<?xml version="1.0" encoding="UTF-8"?>
<svg xmlns="http://www.w3.org/2000/svg" viewBox="0 0 434.75 268.8">
  <defs>
    <style>
      .cls-1, .cls-2, .cls-3, .cls-4, .cls-5, .cls-6, .cls-7, .cls-8, .cls-9, .cls-10, .cls-11, .cls-12, .cls-13, .cls-14, .cls-15, .cls-16, .cls-17, .cls-18, .cls-19, .cls-20, .cls-21, .cls-22, .cls-23, .cls-24, .cls-25, .cls-26, .cls-27, .cls-28, .cls-29, .cls-30, .cls-31, .cls-32, .cls-33, .cls-34, .cls-35 {
        stroke-width: 0px;
      }

      .cls-1, .cls-5, .cls-10, .cls-16, .cls-19, .cls-21, .cls-36 {
        mix-blend-mode: multiply;
      }

      .cls-1, .cls-9, .cls-10, .cls-17 {
        fill: #f05956;
      }

      .cls-1, .cls-24 {
        opacity: .4;
      }

      .cls-2 {
        fill: #a64d20;
      }

      .cls-3 {
        fill: #113642;
      }

      .cls-4 {
        fill: #c26144;
      }

      .cls-5, .cls-9, .cls-10, .cls-12, .cls-16, .cls-19, .cls-21, .cls-36, .cls-29, .cls-37, .cls-33 {
        opacity: .5;
      }

      .cls-5, .cls-32 {
        fill: #bd6b40;
      }

      .cls-6 {
        fill: #b8cbd9;
      }

      .cls-7 {
        fill: #e04f4c;
      }

      .cls-8 {
        fill: #ffb894;
      }

      .cls-9, .cls-24, .cls-29, .cls-37, .cls-33 {
        mix-blend-mode: screen;
      }

      .cls-11 {
        fill: #b05f35;
      }

      .cls-12, .cls-19, .cls-27 {
        fill: #b4cbdd;
      }

      .cls-38 {
        isolation: isolate;
      }

      .cls-13 {
        fill: #a9c2d6;
      }

      .cls-14 {
        fill: #d67b4d;
      }

      .cls-15 {
        fill: #e6f3ff;
      }

      .cls-16, .cls-18, .cls-33 {
        fill: #6376bf;
      }

      .cls-20, .cls-24 {
        fill: #143c4a;
      }

      .cls-21, .cls-28, .cls-29 {
        fill: #fcc574;
      }

      .cls-22 {
        fill: #d17648;
      }

      .cls-23 {
        fill: #eb5350;
      }

      .cls-25 {
        fill: #e8504d;
      }

      .cls-26 {
        fill: #0f2c36;
      }

      .cls-30 {
        fill: #fff;
      }

      .cls-31 {
        fill: #523329;
      }

      .cls-34 {
        fill: #fa9c6c;
      }

      .cls-35 {
        fill: #e28758;
      }
    </style>
  </defs>
  <g class="cls-38">
    <g id="OBJECTS">
      <g>
        <g>
          <path class="cls-18" d="M93.79,117.99c0,12.24-9.71,19.32-28.32,19.32H28.87v-70.79h34.59c17.7,0,26.8,7.38,26.8,18.4,0,7.08-3.64,12.54-9.4,15.57,7.89,2.53,12.94,8.59,12.94,17.49ZM45.15,78.86v16.69h16.28c7.99,0,12.34-2.83,12.34-8.39s-4.35-8.29-12.34-8.29h-16.28ZM77.31,116.27c0-5.97-4.55-8.8-13.05-8.8h-19.11v17.49h19.11c8.49,0,13.05-2.63,13.05-8.7Z"/>
          <g class="cls-37">
            <path class="cls-18" d="M80.24,97.68c-.3,0-.59-.13-.79-.38-.34-.44-.26-1.06.17-1.4,2.97-2.32,4.64-5.13,4.96-8.36.7-6.99-5.05-13.8-5.11-13.87-.36-.42-.31-1.05.11-1.41.42-.36,1.05-.31,1.41.11.26.3,6.36,7.51,5.58,15.36-.38,3.8-2.3,7.08-5.72,9.75-.18.14-.4.21-.61.21Z"/>
          </g>
          <g class="cls-37">
            <path class="cls-18" d="M80.24,130.77c-.3,0-.59-.13-.79-.38-.34-.44-.26-1.06.17-1.4,2.97-2.32,4.64-5.14,4.96-8.37.7-7.01-5.05-13.79-5.11-13.86-.36-.42-.31-1.05.11-1.41.42-.36,1.05-.31,1.41.11.26.3,6.36,7.51,5.58,15.36-.38,3.8-2.3,7.08-5.72,9.75-.18.14-.4.21-.61.21Z"/>
          </g>
        </g>
        <g>
          <path class="cls-18" d="M151.34,137.31l-13.65-19.72h-15.07v19.72h-16.38v-70.79h30.64c18.91,0,30.74,9.81,30.74,25.69,0,10.62-5.36,18.4-14.56,22.35l15.88,22.75h-17.6ZM135.97,79.87h-13.35v24.67h13.35c10.01,0,15.07-4.65,15.07-12.34s-5.06-12.34-15.07-12.34Z"/>
          <g class="cls-37">
            <path class="cls-18" d="M155.24,110.01c-.25,0-.5-.09-.69-.28-.4-.38-.41-1.02-.03-1.41,14.55-15.18.1-32.82-.04-33-.35-.42-.3-1.05.13-1.41.42-.35,1.06-.3,1.41.13.16.19,15.73,19.21-.04,35.67-.2.21-.46.31-.72.31Z"/>
          </g>
          <g class="cls-37">
            <path class="cls-18" d="M164.07,135.68c-.31,0-.62-.15-.82-.42l-13.04-18.45c-.32-.45-.21-1.08.24-1.39.45-.32,1.08-.21,1.39.24l13.04,18.45c.32.45.21,1.08-.24,1.39-.18.12-.38.18-.58.18Z"/>
          </g>
        </g>
        <g>
          <path class="cls-18" d="M227.19,122.14h-32.87l-6.27,15.17h-16.79l31.55-70.79h16.18l31.65,70.79h-17.19l-6.27-15.17ZM222.03,109.7l-11.23-27.1-11.22,27.1h22.45Z"/>
          <g class="cls-37">
            <path class="cls-18" d="M246.41,135.68c-.38,0-.75-.22-.91-.59l-28.83-64.33c-.23-.5,0-1.1.5-1.32.5-.23,1.09,0,1.32.5l28.83,64.33c.23.5,0,1.1-.5,1.32-.13.06-.27.09-.41.09Z"/>
          </g>
        </g>
        <g>
          <path class="cls-18" d="M322.95,66.52v70.79h-13.45l-35.29-42.98v42.98h-16.18v-70.79h13.55l35.19,42.98v-42.98h16.18Z"/>
          <g class="cls-37">
            <path class="cls-18" d="M304.57,113.18c-.29,0-.57-.12-.77-.36l-34-41c-.35-.42-.29-1.06.13-1.41.42-.35,1.06-.29,1.41.13l34,41c.35.42.29,1.06-.13,1.41-.19.15-.41.23-.64.23Z"/>
          </g>
          <g class="cls-37">
            <path class="cls-18" d="M320.24,135.68c-.55,0-1-.45-1-1v-65.5c0-.55.45-1,1-1s1,.45,1,1v65.5c0,.55-.45,1-1,1Z"/>
          </g>
        </g>
        <g>
          <path class="cls-18" d="M339.74,66.52h32.16c23.16,0,39.03,13.96,39.03,35.39s-15.88,35.39-39.03,35.39h-32.16v-70.79ZM371.09,123.86c14.06,0,23.26-8.39,23.26-21.94s-9.2-21.94-23.26-21.94h-14.97v43.89h14.97Z"/>
          <g class="cls-37">
            <path class="cls-18" d="M399.9,124.86c-.22,0-.45-.07-.63-.23-.43-.35-.49-.98-.14-1.41,15.68-19.18.11-42.46-.05-42.69-.31-.46-.2-1.08.26-1.39.46-.31,1.08-.19,1.39.26.17.25,16.56,24.75-.05,45.09-.2.24-.49.37-.78.37Z"/>
          </g>
        </g>
      </g>
      <g>
        <g>
          <g>
            <rect class="cls-28" x="402.87" y="134.19" width="12.98" height="12.98" rx="1.05" ry="1.05" transform="translate(20.42 330.66) rotate(-45)"/>
            <path class="cls-28" d="M419.09,149.78c-.36,0-.72-.14-1-.41l-7.69-7.69c-.27-.27-.41-.62-.41-1s.15-.73.41-1l7.69-7.69c.53-.53,1.46-.53,2,0l7.69,7.69c.27.27.41.62.41,1s-.15.73-.41,1l-7.69,7.69c-.28.27-.64.41-1,.41ZM419.09,132.3c-.18,0-.35.07-.49.2l-7.69,7.69c-.13.13-.2.3-.2.49s.07.36.2.49l7.69,7.69c.27.27.71.27.98,0l7.69-7.69c.13-.13.2-.3.2-.49s-.07-.36-.2-.49l-7.69-7.69c-.13-.13-.31-.2-.49-.2Z"/>
          </g>
          <g>
            <rect class="cls-28" x="24.7" y="38.19" width="12.98" height="12.98" rx="1.05" ry="1.05" transform="translate(-22.46 35.14) rotate(-45)"/>
            <path class="cls-28" d="M40.92,53.78c-.36,0-.72-.14-1-.41l-7.69-7.69c-.27-.27-.41-.62-.41-1s.15-.73.41-1l7.69-7.69c.53-.53,1.46-.53,2,0l7.69,7.69c.27.27.41.62.41,1s-.15.73-.41,1l-7.69,7.69c-.28.27-.64.41-1,.41ZM40.92,36.3c-.18,0-.35.07-.49.2l-7.69,7.69c-.13.13-.2.3-.2.49s.07.36.2.49l7.69,7.69c.27.27.71.27.98,0l7.69-7.69c.13-.13.2-.3.2-.49s-.07-.36-.2-.49l-7.69-7.69c-.13-.13-.31-.2-.49-.2Z"/>
          </g>
        </g>
        <g>
          <g>
            <rect class="cls-18" x="56.44" width="34.91" height="26" rx="1.61" ry="1.61"/>
            <circle class="cls-28" cx="83.96" cy="6.35" r="3"/>
            <path class="cls-30" d="M89.26,19.05c.46.47.72,1.1.72,1.76v2.29c0,.77-.67,1.39-1.49,1.39h-29.35c-.83,0-1.49-.62-1.49-1.39v-13.36c0-.83.4-1.62,1.1-2.08,2.1-1.39,4.58-2.5,6.47-1.75,4.01,1.6,5.85,11.1,8.6,9.72,2.75-1.39,6.76-5.45,10.2-1.92,1.43,1.46,3.41,3.48,5.24,5.34Z"/>
          </g>
          <g>
            <rect class="cls-18" x="391.9" y="31.68" width="34.91" height="26" rx="1.61" ry="1.61"/>
            <path class="cls-28" d="M422.42,38.03c0,1.66-1.34,3-3,3s-3-1.34-3-3,1.34-3,3-3,3,1.34,3,3Z"/>
            <path class="cls-30" d="M424.73,50.74c.46.47.72,1.1.72,1.76v2.29c0,.77-.67,1.39-1.49,1.39h-29.35c-.83,0-1.49-.62-1.49-1.39v-13.36c0-.83.4-1.62,1.1-2.08,2.1-1.39,4.58-2.5,6.47-1.75,4.01,1.6,5.85,11.1,8.6,9.72,2.75-1.39,6.76-5.45,10.2-1.92,1.43,1.46,3.41,3.48,5.24,5.34Z"/>
          </g>
        </g>
      </g>
      <g>
        <g>
          <g>
            <path class="cls-28" d="M134,172.91l-4.76,2.56,1.46-5.46c-6.97-5.84-13.32-9.51-16.19-11.04-.71-.38-1.57.17-1.52.97.57,10.9,2.47,20.33,5.14,28.48l4.78.71-4.03,1.47c10.43,29.35,31.17,41.19,36.46,43.79.62.31,1.37-.08,1.48-.76,4.73-28.21-9.36-48.37-22.81-60.72Z"/>
            <polygon class="cls-29" points="153.59 227.34 148.27 218.18 152.37 206.84 151.43 206.5 147.61 217.05 139.66 203.35 145.86 189.29 144.95 188.89 139.03 202.28 130.85 188.19 134.93 178.16 134 177.78 130.22 187.09 116.21 162.97 115.35 163.47 125.04 180.16 117.34 177 116.96 177.93 125.86 181.58 134.35 196.21 121.79 193.36 121.57 194.33 135.04 197.39 143.01 211.12 130.46 206.75 130.13 207.69 143.78 212.45 152.72 227.84 153.59 227.34"/>
          </g>
          <g>
            <path class="cls-18" d="M332.1,212.88l-2.78-4.64,5.52,1.21c5.51-7.24,8.88-13.75,10.28-16.68.35-.73-.24-1.56-1.04-1.48-10.86,1.08-20.19,3.4-28.21,6.45l-.49,4.8-1.65-3.96c-28.84,11.77-39.71,33.04-42.06,38.43-.28.64.14,1.36.83,1.45,28.4,3.42,47.89-11.58,59.61-25.58Z"/>
            <polygon class="cls-33" points="278.63 234.95 287.53 229.22 299.06 232.8 299.35 231.84 288.63 228.51 301.96 219.93 316.28 225.48 316.64 224.55 303 219.26 316.7 210.44 326.9 214.05 327.24 213.11 317.76 209.76 341.22 194.65 340.67 193.81 324.44 204.26 327.24 196.43 326.3 196.09 323.06 205.15 308.84 214.31 311.12 201.63 310.13 201.45 307.7 215.05 294.35 223.64 298.14 210.91 297.18 210.62 293.06 224.47 278.09 234.11 278.63 234.95"/>
          </g>
          <g>
            <path class="cls-27" d="M348.2,243.34H107.83c-1.04-3.37-1.6-6.95-1.6-10.67,0-12.95,6.78-24.32,16.99-30.76,5.6-3.53,12.24-5.57,19.35-5.57,2.93,0,5.78.36,8.52,1.02,0-.02,0-.03.02-.05,7.09-16.09,23.17-27.32,41.88-27.32,7.08,0,13.78,1.61,19.76,4.5.89.42,1.77.87,2.63,1.36.11-.06.21-.11.32-.17,5.14-2.69,10.99-4.22,17.2-4.22,18.23,0,33.38,13.15,36.5,30.49.08-.03.17-.06.25-.08,2.16-.73,4.42-1.26,6.74-1.57,1.63-.23,3.3-.34,4.99-.34,12.9,0,24.26,6.58,30.91,16.57h.02c1.44-.34,2.92-.58,4.44-.69.75-.07,1.52-.1,2.29-.1,15.59,0,28.32,12.22,29.16,27.6Z"/>
            <path class="cls-19" d="M159.89,213.98c-7.3-16.21-24.53-15.22-36.67-12.07,5.6-3.53,12.24-5.57,19.35-5.57,2.93,0,5.78.36,8.52,1.02,0-.02,0-.03.02-.05,6.26,7.83,8.63,16.12,8.78,16.67Z"/>
            <path class="cls-19" d="M215.7,175.68c-6.05,7.66-8.55,15.91-8.55,15.91,0,0-.45-8.9,5.6-17.1.89.42,1.77.87,2.63,1.36.11-.06.21-.11.32-.17Z"/>
            <path class="cls-19" d="M276.39,200.3c-11.05,8.24-23.37,22.42-23.37,22.42,0,0,7.11-11.51,16.63-20.85,2.16-.73,4.42-1.26,6.74-1.57Z"/>
            <path class="cls-19" d="M316.75,215.84c-6.57,3.98-12.73,9.5-12.73,9.5,0,0,3.33-4.71,8.29-8.81,1.44-.34,2.92-.58,4.44-.69Z"/>
          </g>
        </g>
        <rect class="cls-6" x="12.96" y="242.19" width="415.71" height="3"/>
      </g>
      <g>
        <path class="cls-12" d="M293.15,253.47c0,3.29-21.66,5.95-48.37,5.95s-48.37-2.67-48.37-5.95,21.66-5.95,48.37-5.95,48.37,2.67,48.37,5.95Z"/>
        <g>
          <g>
            <g>
              <g>
                <path class="cls-8" d="M259.27,257.35c.48-1.25.99-2.46,1.44-3.67l15.69,5.95-6.1,5.55s-5.12-1.41-12.8-3c.56-1.62,1.14-3.23,1.76-4.83Z"/>
                <path class="cls-27" d="M274.81,259.02l7.15.68s6.92-.29,9.17,2.48c2.25,2.78-6.07,8.08-13.91,6.23-7.84-1.85-8.83-3.75-8.83-3.75,0,0,6.18-2.26,6.42-5.65Z"/>
              </g>
              <g>
                <path class="cls-7" d="M199.21,240.18s1.84-5.04,10.01-4.96c8.17.08,37.44,6.37,37.44,6.37l-1.66,6.72-45.78-8.13Z"/>
                <g>
                  <path class="cls-17" d="M267.01,254.77l-2.2,9.13-3.97-.81-.98-.2-55.55-11.4-.57-.12c-.79-.16-1.5-.47-2.13-.91-4.62-3.14-4.86-12.49,2.65-13.68,6.99-1.1,44.66,11.68,58.03,16.33.33.12.65.23.95.33,2.38.83,3.77,1.33,3.77,1.33Z"/>
                  <path class="cls-24" d="M263.24,253.44l-2.4,9.65-.98-.2.27-1.06c-4.2-.95-34.04-7.74-41.26-9.12-4.63-.88-10.55-1.15-14.56-1.22l-.57-.12c-.79-.16-1.5-.47-2.13-.91,3.54,0,11.52.14,17.44,1.27,7.25,1.39,37.18,8.19,41.32,9.13l1.92-7.75c.33.12.65.23.95.33Z"/>
                </g>
              </g>
            </g>
            <g>
              <g>
                <path class="cls-8" d="M230.58,257.35c-.48-1.25-.99-2.46-1.44-3.67l-15.69,5.95,6.1,5.55s5.12-1.41,12.8-3c-.56-1.62-1.14-3.23-1.76-4.83Z"/>
                <path class="cls-27" d="M215.04,259.02l-7.15.68s-6.92-.29-9.17,2.48c-2.25,2.78,6.07,8.08,13.91,6.23,7.84-1.85,8.83-3.75,8.83-3.75,0,0-6.18-2.26-6.42-5.65Z"/>
              </g>
              <g>
                <path class="cls-7" d="M290.64,240.18s-1.84-5.04-10.01-4.96c-8.17.08-34.79,6.37-34.79,6.37l-.85,6.72,45.65-8.13Z"/>
                <g>
                  <path class="cls-17" d="M222.84,254.77l2.2,9.13,3.97-.81.98-.2,55.55-11.4.57-.12c.79-.16,1.5-.47,2.13-.91,4.62-3.14,4.86-12.49-2.65-13.68-6.99-1.1-44.66,11.68-58.03,16.33-.33.12-.65.23-.95.33-2.38.83-3.77,1.33-3.77,1.33Z"/>
                  <path class="cls-24" d="M226.61,253.44l2.4,9.65.98-.2-.27-1.06c4.2-.95,34.04-7.74,41.26-9.12,4.63-.88,10.55-1.15,14.56-1.22l.57-.12c.79-.16,1.5-.47,2.13-.91-3.54,0-11.52.14-17.44,1.27-7.25,1.39-37.18,8.19-41.32,9.13l-1.92-7.75c-.33.12-.65.23-.95.33Z"/>
                </g>
              </g>
            </g>
          </g>
          <g>
            <g>
              <g>
                <polygon class="cls-8" points="239.98 195.5 250 195.5 249.5 182.95 240.72 182.95 239.98 195.5"/>
                <path class="cls-34" d="M240.47,187.21s4.53,3.92,9.2-.12l.1,2.55s-4.24,2.42-9.44,0l.14-2.42Z"/>
              </g>
              <g>
                <path class="cls-18" d="M239.23,194.92s-6.86,4.38-9.92,9.16c0,0-1.04,2.05-.68,4.27.36,2.22,2.92,32.13,2.92,32.13h27.51s2.44-30.85,2.37-33.41c-.07-2.56-4.71-9.08-11.1-12.14h-11.1Z"/>
                <g>
                  <g>
                    <g>
                      <path class="cls-8" d="M233.84,231.05c-1.04,1.5-2.04,3.03-3.04,4.56l5.95,4.2,4.06-4.32-6.17-5.57c-.27.38-.53.75-.79,1.13Z"/>
                      <path class="cls-8" d="M244.88,236.81c.16.14.31.29.38.49.07.2.03.45-.14.57-.16.11-.36.09-.55.07-.67-.07-1.36,0-2.01.2.72,1.39,2.22,2.17,3.53,3.03.34.22.71.62.51.96-.18.3-.62.26-.95.15-.81-.26-1.58-.66-2.27-1.17.8.65,1.6,1.3,2.39,1.95.24.2.51.51.36.79-.12.22-.43.23-.68.19-1.31-.17-2.56-.77-3.51-1.68.78.77,1.55,1.54,2.33,2.3.1.09.2.2.21.33.02.18-.15.34-.33.37-.18.04-.36-.02-.54-.07-1.17-.39-2.28-.96-3.27-1.7.28.41.57.82.85,1.24.17.25.33.6.12.81-.2.2-.53.07-.77-.08-1.19-.76-2.08-1.91-2.73-3.16-.65-1.25-1.08-2.6-1.51-3.94-.07-.22-.14-.44-.12-.67.02-.26.15-.51.3-.72.52-.74,1.33-1.24,2.19-1.53,2.15-.72,4.49-.25,6.2,1.27Z"/>
                    </g>
                    <path class="cls-18" d="M225.67,221.45l13.41,11.51-.52.5-2.57,2.47-.98.95-1.02.98-.27.25s-28.58-11.82-20.4-22.12c5.87-7.38,16.76-15.17,22.47-19.02,1.22-.81,2.22-1.45,2.86-1.87.36-.23.8-.25,1.18-.08h.01c.16.07.3.18.42.32,9.79,10.69-14.59,26.11-14.59,26.11Z"/>
                  </g>
                  <path class="cls-16" d="M229.8,218.51s4.49-3.21,7.07-6.36c0,0-2.72,9.01-6.67,10.06l-.4-3.7Z"/>
                </g>
                <g>
                  <g>
                    <g>
                      <path class="cls-8" d="M256.01,231.05c1.04,1.5,2.04,3.03,3.04,4.56l-5.95,4.2-4.06-4.32,6.17-5.57c.27.38.53.75.79,1.13Z"/>
                      <path class="cls-8" d="M244.97,236.81c-.16.14-.31.29-.38.49-.07.2-.03.45.14.57.16.11.36.09.55.07.67-.07,1.36,0,2.01.2-.72,1.39-2.22,2.17-3.53,3.03-.34.22-.71.62-.51.96.18.3.62.26.95.15.81-.26,1.58-.66,2.27-1.17-.8.65-1.6,1.3-2.39,1.95-.24.2-.51.51-.36.79.12.22.43.23.68.19,1.31-.17,2.56-.77,3.51-1.68-.78.77-1.55,1.54-2.33,2.3-.1.09-.2.2-.21.33-.02.18.15.34.33.37.18.04.36-.02.54-.07,1.17-.39,2.28-.96,3.27-1.7-.28.41-.57.82-.85,1.24-.17.25-.33.6-.12.81.2.2.53.07.77-.08,1.19-.76,2.08-1.91,2.73-3.16.65-1.25,1.08-2.6,1.51-3.94.07-.22.14-.44.12-.67-.02-.26-.15-.51-.3-.72-.52-.74-1.33-1.24-2.19-1.53-2.15-.72-4.49-.25-6.21,1.27Z"/>
                    </g>
                    <path class="cls-18" d="M264.18,221.45l-13.4,11.51.52.5,2.57,2.47.98.95,1.02.98.27.25s28.58-11.82,20.4-22.12c-5.87-7.38-16.76-15.17-22.47-19.02-1.22-.81-2.22-1.45-2.86-1.87-.36-.23-.8-.25-1.18-.08h-.01c-.16.07-.3.18-.42.32-9.79,10.69,14.59,26.11,14.59,26.11Z"/>
                  </g>
                  <path class="cls-16" d="M260.53,218.84s-4.49-3.21-7.07-6.36c0,0,2.79,9.23,6.74,10.28l.33-3.92Z"/>
                </g>
              </g>
            </g>
            <g>
              <rect class="cls-26" x="227.5" y="247.52" width="34.98" height="2.56"/>
              <g>
                <path class="cls-20" d="M262.48,227.34v20.18h-34.98v-20.18c0-.64.52-1.19,1.18-1.2h32.6c.65,0,1.2.55,1.2,1.2Z"/>
                <path class="cls-15" d="M247.9,237.85c0,1.61-1.31,2.92-2.92,2.92s-2.92-1.31-2.92-2.92,1.31-2.92,2.92-2.92,2.92,1.31,2.92,2.92Z"/>
                <path class="cls-19" d="M262.48,245.57v1.95h-34.98v-20.18c0-.64.52-1.19,1.18-1.2.5,4.17,2.61,16.98,9.78,17.57,6.86.57,19.28,1.5,24.02,1.85Z"/>
              </g>
            </g>
          </g>
          <g>
            <g>
              <path class="cls-8" d="M254.63,177.29c-.4-.3-.81-.37-1.19-.32-.13-1.16-.36-2.29-.61-3.3-.3-1.28-1.16-2.25-2.26-2.61-.15-.05-.3-.1-.46-.15-1.57-.99-3.37-1.22-5.1-1.1-1.76-.13-3.56.11-5.14,1.11t-.02.01c-.15.04-.28.09-.41.12-1.1.35-1.96,1.32-2.27,2.61-.25,1.02-.47,2.14-.6,3.3-.38-.05-.79.02-1.19.32-1.27.95-.45,4.41,1.69,5.33.2.55.43,1.1.74,1.63.09.18.2.35.32.53.99,1.46,2.38,2.58,3.89,3.38,1.86.98,4.13.98,5.99,0,1.5-.79,2.89-1.92,3.88-3.37.11-.17.22-.34.32-.51.32-.54.55-1.1.75-1.66,2.14-.93,2.94-4.38,1.68-5.32Z"/>
              <g>
                <g>
                  <path class="cls-34" d="M245.76,177.18c-.26.44-.32.99-.25,1.51.07.52.25,1.01.48,1.46.12.23.25.44.31.62.07.18.05.36-.04.55-.17.37-.62.6-1.12.66.47.16,1.12.05,1.46-.46.18-.23.24-.58.16-.88-.08-.3-.22-.5-.32-.72-.22-.43-.41-.86-.55-1.31-.13-.45-.2-.92-.14-1.43Z"/>
                  <path class="cls-31" d="M243.98,176.29c-.2-.19-.42-.27-.67-.3-.24-.03-.5,0-.74.06-.25.06-.47.19-.66.36-.19.16-.31.37-.41.58-.03.07,0,.16.07.19.05.03.11.02.16-.02h.01c.15-.15.3-.27.47-.35.16-.09.33-.13.5-.16.35-.06.7.08,1.09.05h.05c.13-.01.22-.13.22-.25,0-.06-.03-.11-.07-.15Z"/>
                  <path class="cls-31" d="M246.87,176.7c.39.03.74-.11,1.09-.05.17.03.34.07.5.16.16.08.31.21.47.34h.01c.06.06.15.06.2,0,.04-.04.05-.11.02-.16-.1-.21-.22-.42-.41-.58-.18-.17-.41-.3-.66-.36-.24-.07-.5-.09-.74-.06-.25.03-.47.11-.67.3-.09.09-.1.24-.01.33.04.04.1.07.15.07h.05Z"/>
                  <path class="cls-34" d="M245.69,183.56c-.63-.02-1.21-.04-1.68-.27-.24-.11-.44-.26-.62-.48-.19-.2-.32-.46-.5-.74-.03.32,0,.65.17.95.14.31.41.57.73.72.32.15.67.19,1,.15.33-.04.64-.15.9-.34Z"/>
                  <path class="cls-31" d="M242.89,179.12c0,.57.28,1.04.62,1.04s.62-.46.62-1.04-.28-1.04-.62-1.04-.62.46-.62,1.04Z"/>
                  <path class="cls-31" d="M247.29,179.12c0,.57.28,1.04.62,1.04s.62-.46.62-1.04-.28-1.04-.62-1.04-.62.46-.62,1.04Z"/>
                </g>
                <path class="cls-34" d="M235.55,179.18c.12-.23.36-.34.58-.37.23-.03.45.05.64.17.39.25.74.62,1.02,1.01.07.1.2.12.3.05.09-.06.11-.18.06-.28-.19-.35-.55-.5-.88-.56-.16-.03-.34-.04-.52,0-.18.03-.37.13-.48.3-.22.34-.13.75.09,1,.23.25.55.35.84.37-.27-.12-.53-.28-.66-.51-.13-.21-.12-.51.01-.66.12-.15.38-.16.64-.1.25.05.47.18.58.36l.36-.23c-.33-.43-.71-.81-1.22-1.04-.25-.11-.56-.16-.83-.07-.27.08-.51.3-.54.56Z"/>
                <path class="cls-34" d="M254.45,179.18c-.12-.23-.36-.34-.58-.37-.23-.03-.45.05-.64.17-.39.25-.74.62-1.02,1.01-.07.1-.2.12-.3.05-.09-.06-.11-.18-.06-.28.19-.35.55-.5.88-.56.16-.03.34-.04.52,0,.18.03.37.13.48.3.22.34.13.75-.09,1-.23.25-.55.35-.84.37.27-.12.53-.28.66-.51.13-.21.12-.51-.01-.66-.12-.15-.38-.16-.64-.1-.25.05-.47.18-.58.36l-.36-.23c.33-.43.71-.81,1.22-1.04.25-.11.56-.16.83-.07.27.08.51.3.54.56Z"/>
              </g>
            </g>
            <path class="cls-31" d="M254.25,177.2c-.95-.8-2.44.88-2.44.88-.41-2.25-3.55-3.53-3.55-3.53l2.03,2.19c-1.54.17-5.65-2.62-5.65-2.62l.59,1.45c-1.92.29-3.76-1.68-3.76-1.68,0,0-.56,4.78-2.57,5.24,0,0-1.12-1.89-2.35-2.15-1.23-.26-3.06,3.35.5,5.65,0,0-4.81-2.36-2.73-8.53,0,0,.82-2,2.54-2.92,0,0,2.09-4.55,8.19-4.69,5.09-.12,9.79,3.09,11.52,7.88,1.07,2.95.88,6.26-3.63,8.26,0,0,3.88-3.25,1.3-5.42Z"/>
          </g>
        </g>
      </g>
      <g>
        <path class="cls-12" d="M143.65,257.18c0,1.59-11.6,1.66-32,1.66s-41.86-.08-41.86-1.66,16.53-2.87,36.93-2.87,36.93,1.29,36.93,2.87Z"/>
        <g>
          <g>
            <path class="cls-28" d="M117.61,232.2c-.25,5.47-3.47,10.01-8,10.01H15c-2.68,0-5.18-1.59-6.66-4.28-5.14-9.34-14.92-32.71-1.73-58.07,3.66-7.04,9.37-12.21,16.03-14.31,1.13-.36,2.33-.69,3.59-.97.44-.09.9-.19,1.35-.26,2.88-.54,6.04-.79,9.36-.51.79.07,1.58.16,2.39.29,7.56,1.19,15.76,5.29,23.23,15.01,20.26,26.37,56.66,18.65,55.05,53.09Z"/>
            <path class="cls-9" d="M69,242.22h-5.07c-10.75-2.7-24.93-7.84-35.98-17.46-18.39-16.04-5.31-51.47-1.72-60.17.44-.09.89-.19,1.35-.26-2.93,7.05-16.99,43.8,1.12,59.57,12.62,11.01,29.42,16.06,40.3,18.32Z"/>
            <path class="cls-21" d="M117.61,232.2c-.25,5.47-3.47,10.01-8,10.01h-25.55l-3.72-25.49s-27.83-3.64-33-4.97c-.55-.14-1.04-.36-1.47-.64-6.44-4.13-14.6-4.56-21.86-2.14-6.56,2.19-12.41,4.06-12.84,3.91-1-.36-4.84-11.47-4.84-13.68,0-1.16,8.36-4.84,16.32-8.08,7.62-3.1,13.18-9.88,14.61-17.99.63-3.6,1.48-6.95,2.06-9.04,7.56,1.19,15.76,5.29,23.23,15.01,20.26,26.37,56.66,18.65,55.05,53.09Z"/>
          </g>
          <g>
            <g>
              <path class="cls-11" d="M95.3,182.15c-1.52-.18-3.43,1.26-3.43,1.26l-23.1,3.91s1.25-11.5.57-19.47c-4.48-.43-8.65-1.68-12.96-2.84-.83,7.76.41,31.17,3.69,32.41,3.69,1.39,34.08-9.7,34.08-9.7.04.02.08.03.12.06,0-.02,0-.04,0-.06.72-.05,4.76-.65,9.24-7.33.11-.16-.05-.38-.23-.32-1.71.58-6.74,2.23-7.99,2.09Z"/>
              <path class="cls-17" d="M54.86,164.16c.22,7.92,1.67,26.18,1.67,26.18l12.8-5.28.42-18.88c.02-.89-.73-1.61-1.62-1.56-4.41.23-8.82-.91-13.27-.47Z"/>
            </g>
            <g>
              <g>
                <g>
                  <path class="cls-11" d="M113.77,236.63l1.07,16.64-8.63.74s-1.27-6.87-2.79-16.23c3.43-.53,6.89-.94,10.35-1.14Z"/>
                  <path class="cls-23" d="M103.99,256.94h23.11c-.01-.08-.04-.17-.07-.27-.14-.37-.46-.8-1.2-1.09-.34-.14-.78-.25-1.33-.3-2.92-.29-8.76-3.02-8.76-3.02,0,0,.48-3.87-.4-4.26-.87-.39-4.05-.34-4.24,1.7-.2,2.05-5.5.12-5.92,1.19-.28.73-.77,2.84-1.04,4.38-.09.48-.16.9-.18,1.2-.02.19-.03.33-.02.43,0,.01.03.03.04.04Z"/>
                </g>
                <path class="cls-13" d="M65.44,192.33s-6.13,5.56-3.6,13.12c1.02,3.05,3.82,5.16,7.02,5.52,8.46.97,27.32,3.09,30.15,3.03l4.93,27.1,10.8-.96s-2.15-32.06-3.94-34.02c-1.42-1.55-23.19-12.3-45.36-13.8Z"/>
              </g>
              <g>
                <g>
                  <path class="cls-32" d="M96.85,236.63l1.07,16.64-8.63.74s-1.27-6.87-2.79-16.23c3.43-.53,6.89-.94,10.35-1.14Z"/>
                  <path class="cls-17" d="M87.07,256.94h23.11c-.01-.08-.04-.17-.07-.27-.14-.37-.46-.8-1.2-1.09-.34-.14-.78-.25-1.33-.3-2.92-.29-8.76-3.02-8.76-3.02,0,0,.48-3.87-.4-4.26-.87-.39-4.05-.34-4.24,1.7-.2,2.05-5.5.12-5.92,1.19-.28.73-.77,2.84-1.04,4.38-.09.48-.16.9-.18,1.2-.02.19-.03.33-.02.43,0,.01.03.03.04.04Z"/>
                </g>
                <g>
                  <path class="cls-27" d="M97.83,240.14l-7.16.64-.99.08-2.66.24-4.93-27.1c-2.83.06-21.69-2.06-30.15-3.03-3.2-.36-6-2.47-7.02-5.52-.41-1.23-.59-2.42-.61-3.53-.01-.34.01-.68.04-1.01.38-5.14,4.17-8.58,4.17-8.58,22.18,1.5,43.94,12.24,45.37,13.8,1.79,1.95,3.94,34.01,3.94,34.01Z"/>
                  <g class="cls-36">
                    <path class="cls-27" d="M90.67,240.78l-.99.08c-.59-6.04-2.54-25.54-3.66-29.13-.88-2.86-25.48-7.44-41.71-9.81-.01-.34.01-.68.04-1.01,9.27,1.36,41.33,6.33,42.63,10.52,1.15,3.73,3.1,23.26,3.69,29.35Z"/>
                  </g>
                </g>
              </g>
            </g>
            <g>
              <g>
                <polygon class="cls-32" points="48.37 153.31 57.31 151.41 57.94 138.78 49.11 138.34 48.37 153.31"/>
                <path class="cls-2" d="M57.61,145.41s-4.68-.29-6.51-2.51c0,0,2.19,5.38,6.37,5.36l.14-2.84Z"/>
              </g>
              <g>
                <path class="cls-32" d="M49.04,192.6s-7.9-30.84-5.63-34.24c2.06-3.09,5.14-5.78,5.14-5.78l8.76-1.18s11.3,6.4,11.98,13.01c.32,3.14-1.46,9.38-1.55,14.8-.1,6,1.48,11.07,1.48,11.07l-20.19,2.31Z"/>
                <g>
                  <path class="cls-17" d="M69.76,165.87c-.5,4.26-.5,23.92-.5,23.92l-20.74,2.68-4.39-20.47s-2.7-11.44-.44-14.44c1.18-1.57,2.46-2.85,3.4-3.72.3-.28.56-.51.78-.69.43-.37.69-.57.69-.57l11.96,7.59-3.19-8.75c.1.05.65.35,1.4.78.41.23.87.5,1.35.8,1.44.86,3.06,1.89,3.87,2.63,1.62,1.5,6.31,6,5.81,10.24Z"/>
                  <g class="cls-37">
                    <path class="cls-17" d="M62.84,163c-.23.18-.5.27-.77.27-.23,0-.46-.07-.67-.2l-14.31-9.23c.3-.28.56-.51.78-.69l14.08,9.08c.12.08.21.02.26-.02.05-.03.12-.12.08-.25l-3.56-9.76c.41.23.87.5,1.35.8l3.14,8.62c.19.5.04,1.04-.38,1.38Z"/>
                  </g>
                </g>
              </g>
            </g>
            <g>
              <g>
                <g>
                  <rect class="cls-20" x="68.92" y="126.18" width="13.87" height="111.78" transform="translate(-71.77 312.88) rotate(-108.93)"/>
                  <g class="cls-37">
                    <rect class="cls-20" x="20.6" y="186.37" width="114.62" height=".95" transform="translate(-56.4 35.38) rotate(-18.93)"/>
                    <rect class="cls-20" x="19.46" y="183.03" width="114.62" height=".95" transform="translate(-55.36 34.81) rotate(-18.92)"/>
                    <rect class="cls-20" x="18.31" y="179.69" width="114.62" height=".95" transform="translate(-54.36 34.27) rotate(-18.93)"/>
                    <rect class="cls-20" x="17.17" y="176.36" width="114.62" height=".95" transform="translate(-53.32 33.71) rotate(-18.92)"/>
                  </g>
                </g>
                <g>
                  <polygon class="cls-27" points="126.47 157.39 136.86 158.23 142.47 158.69 142.8 159.66 139.4 162.77 130.97 170.51 126.47 157.39"/>
                  <polygon class="cls-20" points="136.86 158.23 142.47 158.69 142.8 159.66 139.4 162.77 136.86 158.23"/>
                </g>
                <g>
                  <g>
                    <rect class="cls-17" x="8.88" y="196.84" width="10.63" height="12.75" rx=".76" ry=".76" transform="translate(-65.14 15.59) rotate(-18.93)"/>
                    <path class="cls-10" d="M13.59,196.68l2.85-.98c.4-.14.83.08.97.47l3.64,10.62c.14.4-.08.83-.47.97l-8.62,2.95c-.4.14-.83-.08-.97-.47l-.52-1.5c2.3-.4,6.64-1.27,6.39-2.42-.24-1.14-2.27-6.82-3.27-9.64Z"/>
                  </g>
                  <g>
                    <rect class="cls-27" x="16.79" y="194.3" width="6.36" height="13.87" transform="translate(-64.19 17.36) rotate(-18.93)"/>
                    <polygon class="cls-19" points="19.77 193.97 20.73 193.64 25.23 206.76 22.43 207.72 23.7 205.43 19.77 193.97"/>
                  </g>
                </g>
              </g>
              <g>
                <g>
                  <path class="cls-32" d="M78.57,186.75c-1.47-.41-3.58.72-3.58.72l-23.43.3s3.01-11.18,3.56-19.15c-4.36-1.11-8.29-3-12.36-4.8-2.02,7.54-4.39,30.86-1.34,32.59,3.43,1.95,35.16-4.34,35.16-4.34.03.03.07.05.11.07,0-.02,0-.04.01-.06.72.06,4.81.09,10.26-5.82.13-.15.01-.39-.18-.35-1.78.31-7,1.17-8.21.83Z"/>
                  <path class="cls-5" d="M51.56,187.78s-2.28.7-3.06,1.54c-.78.84,4.63-1.56,4.63-1.56l-1.57.02Z"/>
                </g>
                <path class="cls-17" d="M46.12,154.83c-1.79,1.67-4.1,4-4.61,6.3-.92,4.12-2.5,29.12-2.5,29.12l13.42-3.41,3.87-23.42-4.72-6.61c-1.9-.61-3.6-1.23-5.45-1.99Z"/>
                <polygon class="cls-1" points="53.13 182.53 55.19 170.06 56.81 181.27 53.13 182.53"/>
              </g>
            </g>
            <g>
              <g>
                <path class="cls-32" d="M45.5,132.46c.23-.16.47-.24.69-.27.26-1.12.62-2.21.94-3.23.4-1.27,1.39-2.2,2.6-2.49,2.98-.7,8.76-1.52,12.47,1.52.82.68,1.3,1.73,1.33,2.85.05,1.97.22,2.92,0,6.25-.08,1.24-.19,2.44-.35,3.51-.27,1.78-.67,3.2-1.25,3.81-2.33,2.43-11.39.45-14.76-4.64-.55-.83-.9-1.66-1.11-2.5-1.4-1.42-1.69-4.06-.57-4.81Z"/>
                <g>
                  <path class="cls-22" d="M52.1,138.3c-.05,1,.72,1.85,1.72,1.9,1,.05,1.85-.72,1.9-1.72.05-1-.72-1.85-1.72-1.9-1-.05-1.85.72-1.9,1.72Z"/>
                  <path class="cls-22" d="M61.97,138.79c-.04.82.48,1.55,1.22,1.81.16-1.07.27-2.27.35-3.51-.85.11-1.53.81-1.57,1.7Z"/>
                  <path class="cls-2" d="M59.65,133.85c-.29.43-.37.98-.33,1.5.04.53.2,1.03.41,1.5.11.24.23.45.28.64.06.18.03.36-.06.55-.19.37-.65.57-1.16.61.46.18,1.12.11,1.49-.39.19-.23.27-.58.21-.88-.07-.3-.2-.52-.29-.74-.2-.44-.37-.89-.48-1.35-.11-.46-.15-.94-.07-1.44Z"/>
                  <path class="cls-31" d="M57.91,132.87c-.19-.2-.41-.29-.66-.33-.25-.04-.5-.03-.75.03-.25.05-.49.17-.68.33-.2.15-.34.36-.45.56-.04.07-.01.16.06.19.05.03.11.02.16-.01h.01c.16-.14.32-.26.49-.33.16-.08.34-.12.51-.14.35-.04.7.11,1.09.1h.05c.13,0,.23-.11.23-.24,0-.06-.03-.12-.07-.16Z"/>
                  <path class="cls-31" d="M60.8,133.42c.39.05.75-.07,1.1,0,.17.04.34.09.5.19.16.09.3.22.45.37h.01c.06.07.15.07.2,0,.04-.04.05-.1.03-.16-.09-.21-.2-.43-.39-.6-.17-.18-.4-.32-.64-.4-.24-.08-.5-.12-.74-.1-.25.02-.48.09-.69.27-.1.08-.11.23-.03.33.04.05.09.07.15.08h.05Z"/>
                  <path class="cls-2" d="M59.26,140.26c-.64-.05-1.21-.11-1.67-.36-.23-.12-.43-.29-.6-.51-.18-.22-.3-.48-.47-.76-.04.32-.02.66.12.97.12.32.39.59.7.76.31.16.66.23,1,.2.33-.02.65-.12.92-.3Z"/>
                  <path class="cls-31" d="M56.67,135.66c-.03.58.23,1.06.57,1.07.34.02.65-.44.67-1.01s-.23-1.06-.57-1.07c-.34-.02-.65.44-.68,1.01Z"/>
                  <path class="cls-31" d="M61.1,135.88c-.03.58.23,1.06.57,1.07.34.02.65-.44.67-1.01.03-.58-.23-1.06-.57-1.07-.34-.02-.65.44-.68,1.01Z"/>
                  <path class="cls-2" d="M46.28,134.85c.13-.23.38-.33.61-.34.23-.02.45.07.64.2.38.27.71.66.97,1.06.07.1.2.13.3.06.09-.06.12-.18.07-.28-.18-.36-.53-.53-.85-.61-.16-.04-.34-.05-.52-.03-.18.02-.38.12-.5.28-.24.33-.17.75.04,1.01.22.26.53.38.83.41-.27-.13-.52-.31-.64-.54-.12-.22-.1-.52.04-.66.13-.14.39-.14.64-.07.25.06.47.21.57.39l.37-.21c-.31-.44-.67-.85-1.17-1.11-.25-.13-.56-.19-.83-.11-.27.07-.52.27-.57.54Z"/>
                </g>
              </g>
              <path class="cls-31" d="M50.26,146.16l-1.76-7.61c-3.75-.42-3.46-5.17-2.17-5.63,1.29-.47,3.3,1.72,3.3,1.72,7.98,1.27,11.81-4.92,11.81-4.92,2.83,1.67,2.1,5.14,2.1,5.14,0,0,3.17-.49,2.04-5.82s-9.09-5.88-9.09-5.88c0,0-12.91-1.34-14.08,10.49-.04.4-.08.79-.13,1.16-.46,3.53-1.82,6.85-3.72,9.86-1.99,3.14-4.14,9.18,5.11,12.88,0,0,2.3-2.88,4.18-4.31,1.06-.81,1.85-1.91,2.25-3.19h0c.4-1.27.45-2.61.15-3.91Z"/>
            </g>
          </g>
        </g>
      </g>
      <g>
        <path class="cls-12" d="M434.75,261.69c0,1.61-21.66,2.91-48.38,2.91s-48.38-1.3-48.38-2.91,21.66-2.91,48.38-2.91,48.38,1.3,48.38,2.91Z"/>
        <g>
          <g>
            <g>
              <g>
                <path class="cls-35" d="M375.04,242.17c-1.83.03-3.67.02-5.5-.05l.87,15.77h7.69s.54-6.5,1.11-15.37c-1.39-.11-2.78-.22-4.17-.35Z"/>
                <path class="cls-17" d="M372.62,257.42s.79-3.33-1.54-3.88c-2.33-.54-3.17.42-4,2.88-.83,2.46-10.21,1.01-11.23,2.25-1.02,1.25.04,2.88,1.43,3.05,1.39.16,12.49,1.26,17.19.27l1.7-1.53.76,1.3s2.46-.05,3.41-.59c.8-.46.84-3.34.07-5.14-.22-.52-.82-.77-1.36-.58-1.55.56-4.88,1.71-6.42,1.97Z"/>
              </g>
              <path class="cls-3" d="M368.32,155.12s-6.72,8.41-2.82,54.69l2.69,38.12h12.56l.65-84.84,12.25-7.97h-25.33Z"/>
            </g>
            <g>
              <g>
                <path class="cls-35" d="M396.81,239.18l1.4,2.21,10.72,16.94,9.21-1.56s-3.98-8.36-9.07-18.44c-4.08.35-8.17.65-12.26.85Z"/>
                <path class="cls-17" d="M409.97,255.97s.48-3.39-1.89-3.72c-2.37-.32-3.12.71-3.72,3.23-.6,2.52-10.07,1.95-10.97,3.29-.9,1.34.31,2.87,1.71,2.9,1.39.03,12.55.1,17.14-1.32l1.55-1.68.87,1.22s2.44-.28,3.34-.91c.76-.53.52-3.41-.41-5.12-.27-.5-.89-.69-1.4-.45-1.49.7-4.7,2.16-6.21,2.55Z"/>
              </g>
              <g>
                <path class="cls-20" d="M414.4,245.92h-15.66s-10.55-19.8-12.88-24.05c-2.33-4.25-6.16-53.03-6.16-53.03l-1.42-13.72h15.37c5.15,4.83,6.25,45.97,5.5,54.69-.74,8.72,15.25,36.11,15.25,36.11Z"/>
                <g class="cls-37">
                  <path class="cls-20" d="M412,245.92h-1.14c-3.53-6.53-13.66-25.31-15.92-30.61-2.58-6.05-4.03-52.3-4.26-60.19h1c.23,7.71,1.71,53.99,4.18,59.8,2.3,5.4,12.87,24.98,16.14,31Z"/>
                </g>
              </g>
            </g>
          </g>
          <g>
            <g>
              <g>
                <path class="cls-14" d="M367.12,146.36c-1.82-1.04-3.64-2.09-5.45-3.16l-4.29,11.16c-.73,1.86.41,3.88,2.73,4.93l.05.02c2.32,1.05,4.6.38,5.52-1.4l5.03-9.5c-1.2-.68-2.4-1.37-3.6-2.05Z"/>
                <path class="cls-14" d="M331.58,154.09l.35-5.64,30.18,2.48c2.53.16,4.45,2.36,4.29,4.92h0c-.16,2.56-2.34,4.5-4.87,4.34l-29.95-6.1Z"/>
                <path class="cls-14" d="M328.35,146.48c-.2-.02-.41-.02-.59.06-.18.08-.33.27-.31.47.03.18.18.31.32.43.49.42.89.95,1.17,1.53-1.44.41-2.95-.13-4.41-.47-.37-.09-.89-.09-1,.28-.09.32.23.6.52.76.71.39,1.49.67,2.29.81-.97-.13-1.94-.26-2.91-.39-.3-.04-.69-.02-.78.27-.07.23.12.44.31.59.97.8,2.2,1.27,3.46,1.34-1.04-.04-2.08-.08-3.12-.11-.13,0-.27,0-.37.07-.14.11-.14.33-.04.47.09.15.25.24.4.32,1.03.56,2.15.95,3.31,1.16-.47.07-.94.15-1.41.22-.28.04-.63.16-.64.44-.01.27.3.42.55.48,1.3.33,2.68.19,3.98-.17,1.29-.36,2.51-.95,3.72-1.53.2-.09.4-.19.55-.35.17-.18.25-.43.3-.68.17-.84,0-1.73-.37-2.51-.91-1.96-2.76-3.28-4.93-3.48Z"/>
                <path class="cls-25" d="M358.81,147.97s9.77-22.67,11.42-24.06c1.65-1.38,10.28-.15,10.12,6.78l-11.55,22.94-9.99-5.67Z"/>
              </g>
              <g>
                <g>
                  <polygon class="cls-35" points="385.79 117.17 380.35 118.31 376.24 117.17 376.71 105.21 385.07 105.21 385.79 117.17"/>
                  <path class="cls-4" d="M376.46,111.49s4.69-.05,6.52-2.07c0,0-2.68,4.99-6.62,4.77l.11-2.7Z"/>
                </g>
                <g>
                  <path class="cls-35" d="M395.57,129.51c-.14-5.81-9.79-12.34-9.79-12.34h-9.55s-10.17,6.49-10.31,12.3c-.07,2.87,2.44,25.65,2.44,25.65l12.64-.25,12.64.25s1.98-22.74,1.92-25.61Z"/>
                  <path class="cls-17" d="M376.24,117.17s-1.83,4.55,1.04,5.74,8.51-5.74,8.51-5.74c0,0,8.92,4.78,9.99,10.57,1.07,5.79-2.12,27.38-2.12,27.38h-25.33s-3.05-23.59-2.39-27.03c.66-3.44,6.7-9.16,10.31-10.92Z"/>
                </g>
              </g>
            </g>
            <g>
              <g>
                <rect class="cls-28" x="228.25" y="140.66" width="141.14" height="16.48"/>
                <g>
                  <rect class="cls-30" x="247.59" y="140.66" width="1.96" height="7.28"/>
                  <rect class="cls-30" x="272.71" y="140.66" width="1.96" height="7.28"/>
                  <rect class="cls-30" x="297.84" y="140.66" width="1.96" height="7.28"/>
                  <rect class="cls-30" x="322.96" y="140.66" width="1.96" height="7.28"/>
                  <rect class="cls-30" x="348.09" y="140.66" width="1.96" height="7.28"/>
                </g>
                <path class="cls-21" d="M369.39,140.66v16.48h-141.14v-4.14c20.4,1.18,138.69,7.19,136.75-12.34h4.39Z"/>
              </g>
              <g>
                <g>
                  <path class="cls-35" d="M385.96,146.29c-2.3-.84-4.59-1.7-6.83-2.66l-2.76,12.9c-.43,1.95,1.01,3.76,3.47,4.44h.05c2.46.69,4.6-.33,5.23-2.23l3.82-11.12c-1-.43-2-.87-2.99-1.33Z"/>
                  <path class="cls-35" d="M350.84,160.28l-.53-5.62,30.2-2.25c2.52-.24,4.76,1.64,5,4.19h0c.24,2.55-1.61,4.81-4.13,5.05l-30.53-1.36Z"/>
                  <path class="cls-35" d="M346.47,153.27c-.2.01-.41.04-.57.15-.17.11-.29.32-.23.51.05.17.22.28.38.37.55.34,1.03.8,1.4,1.33-1.36.63-2.93.34-4.43.22-.38-.03-.89.05-.94.43-.04.33.32.56.63.67.77.28,1.58.43,2.39.44-.98.02-1.96.05-2.94.07-.3,0-.69.09-.73.38-.03.23.19.42.4.54,1.08.64,2.37.91,3.63.78-1.03.12-2.07.25-3.1.37-.13.02-.26.04-.35.13-.12.13-.08.34.03.48s.28.2.45.26c1.11.39,2.28.61,3.45.63-.45.15-.91.29-1.36.44-.27.09-.6.26-.56.54.03.26.36.37.62.39,1.34.12,2.68-.23,3.9-.79,1.22-.56,2.33-1.33,3.44-2.09.18-.12.36-.25.48-.43.14-.21.18-.47.19-.72.04-.86-.27-1.71-.75-2.43-1.2-1.8-3.24-2.81-5.41-2.67Z"/>
                </g>
                <path class="cls-17" d="M376.78,150s4.96-24.04,6.37-25.67c1.42-1.62,11.29-1.62,12.21,5.25l-7.83,24.46-10.75-4.04Z"/>
                <polygon class="cls-10" points="387.53 154.04 393.52 135.35 389.9 155.12 386.37 155.12 386.83 153.78 387.53 154.04"/>
              </g>
            </g>
          </g>
          <g>
            <g>
              <path class="cls-35" d="M388.77,99.83c-.33-.25-.66-.33-.97-.32-.14-1.11-.38-2.17-.63-3.14-.32-1.22-1.21-2.15-2.34-2.47-2.78-.81-7.98-2.43-11.63.27-.81.6-1.31,1.57-1.39,2.63-.14,1.86-.34,3.4-.3,6.55.01,1.18.07,2.31.17,3.33.17,1.7.48,3.06,1,3.66,2.08,2.4,10.08,1.28,13.51-3.37.51-.69.88-1.4,1.15-2.13,1.92-.98,2.62-4.13,1.44-5.01Z"/>
              <g>
                <path class="cls-4" d="M376.32,100.47c.25.42.31.95.24,1.43-.06.49-.24.96-.46,1.4-.11.22-.24.42-.3.59-.06.17-.04.34.04.52.16.36.59.57,1.07.63-.45.15-1.07.05-1.39-.43-.17-.22-.23-.56-.15-.84.08-.28.21-.48.31-.68.21-.41.39-.82.52-1.25.13-.43.19-.88.13-1.36Z"/>
                <path class="cls-31" d="M378.01,99.63c.19-.18.4-.25.64-.28.23-.02.48,0,.71.06.23.06.45.19.62.34.18.15.3.36.39.55.03.07,0,.15-.06.18-.05.02-.11.01-.15-.02h-.01c-.15-.14-.29-.26-.44-.34-.15-.09-.31-.13-.48-.15-.33-.06-.66.07-1.04.05h-.05c-.12-.01-.21-.12-.21-.24,0-.06.03-.11.07-.15Z"/>
                <path class="cls-31" d="M375.26,100.01c-.37.03-.7-.1-1.04-.05-.16.03-.33.07-.48.15-.16.08-.3.2-.44.33h-.01c-.06.06-.14.05-.19,0-.04-.04-.04-.1-.02-.15.09-.2.21-.4.39-.55.17-.16.39-.29.62-.34.23-.06.47-.09.71-.06.23.03.45.11.64.28.09.08.09.22.01.31-.04.04-.09.07-.15.07h-.05Z"/>
                <path class="cls-4" d="M376.39,106.54c.6-.01,1.15-.04,1.6-.26.22-.1.42-.25.59-.45.18-.19.31-.44.48-.7.03.3,0,.62-.16.91-.13.3-.39.54-.7.69-.3.14-.64.18-.95.14-.31-.04-.61-.14-.86-.33Z"/>
                <path class="cls-31" d="M379.05,102.32c0,.55-.26.99-.59.99s-.59-.44-.59-.99.26-.99.59-.99.59.44.59.99Z"/>
                <path class="cls-31" d="M374.86,102.32c0,.55-.26.99-.59.99s-.59-.44-.59-.99.26-.99.59-.99.59.44.59.99Z"/>
                <path class="cls-4" d="M388.48,101.63c-.12-.22-.34-.33-.56-.35-.22-.03-.42.05-.61.16-.37.24-.7.59-.97.96-.07.09-.19.11-.29.04-.08-.06-.11-.18-.06-.26.18-.33.53-.48.83-.53.16-.03.32-.03.49,0,.17.03.36.13.46.29.21.33.13.72-.09.96-.22.24-.52.33-.8.35.26-.11.51-.27.63-.48.13-.2.12-.48-.01-.63-.11-.14-.36-.15-.61-.1-.24.05-.45.17-.55.34l-.34-.22c.31-.4.67-.77,1.16-.99.24-.11.53-.15.79-.07.25.08.48.28.52.54Z"/>
              </g>
            </g>
            <path class="cls-31" d="M389.59,97.61c.12-3.46-.35-4.65-5.69-5.65-5.33-1-10.81-2.65-12.52-2.1-1.71.54-1.42,2.54-1.42,2.54-1.41.8-2.94,3.41-.24,5.65.02,1.23.24,3.78,1.77,4.26l.13-3.26c4.31,1.25,11.52-1.3,11.52-1.3,0,0-1.25,4.67.83,5.83,0,0,2.34-4.83,4.35-3.77,2.73,1.44-1.01,5.01-1.01,5.01-.74,1.82-2.09,3.21-2.09,3.21l.08,1.38c6.5-.17,4.14-8.35,4.27-11.81Z"/>
          </g>
        </g>
      </g>
    </g>
  </g>
</svg>