<?xml version="1.0" encoding="UTF-8"?>
<svg xmlns="http://www.w3.org/2000/svg" viewBox="0 0 500 372.61">
  <defs>
    <style>
      .cls-1 {
        fill: #263238;
      }

      .cls-1, .cls-2, .cls-3, .cls-4, .cls-5, .cls-6, .cls-7, .cls-8, .cls-9, .cls-10, .cls-11, .cls-12, .cls-13, .cls-14, .cls-15, .cls-16, .cls-17, .cls-18, .cls-19, .cls-20, .cls-21, .cls-22, .cls-23, .cls-24, .cls-25, .cls-26, .cls-27, .cls-28 {
        stroke-width: 0px;
      }

      .cls-2 {
        fill: #de5753;
      }

      .cls-3, .cls-16, .cls-19 {
        fill: #000;
      }

      .cls-29 {
        stroke: #2e353a;
        stroke-width: .72px;
      }

      .cls-29, .cls-30, .cls-31 {
        fill: none;
      }

      .cls-29, .cls-32, .cls-31 {
        stroke-linecap: round;
        stroke-linejoin: round;
      }

      .cls-4 {
        opacity: .8;
      }

      .cls-4, .cls-6, .cls-7, .cls-9, .cls-10, .cls-20, .cls-21, .cls-22, .cls-23, .cls-24, .cls-26, .cls-27, .cls-28 {
        fill: #fff;
      }

      .cls-5 {
        fill: #e4897b;
      }

      .cls-6, .cls-33, .cls-26 {
        opacity: .6;
      }

      .cls-7, .cls-19, .cls-27 {
        opacity: .3;
      }

      .cls-8 {
        fill: #ebb376;
      }

      .cls-9, .cls-10, .cls-34, .cls-16, .cls-19, .cls-21, .cls-23, .cls-33, .cls-26, .cls-27 {
        isolation: isolate;
      }

      .cls-10, .cls-34, .cls-16, .cls-20 {
        opacity: .2;
      }

      .cls-30 {
        stroke-miterlimit: 10;
      }

      .cls-30, .cls-31 {
        stroke: #263238;
        stroke-width: .5px;
      }

      .cls-11 {
        fill: #d58745;
      }

      .cls-12, .cls-32 {
        fill: #f0f0f0;
      }

      .cls-13 {
        fill: #f5f5f5;
      }

      .cls-14 {
        fill: #407bff;
      }

      .cls-15 {
        fill: #2e353a;
      }

      .cls-32 {
        stroke: #e0e0e0;
        stroke-width: 2px;
      }

      .cls-17 {
        fill: #ebebeb;
      }

      .cls-18 {
        fill: #e0e0e0;
      }

      .cls-21, .cls-28 {
        opacity: .1;
      }

      .cls-22 {
        opacity: .9;
      }

      .cls-23 {
        opacity: .4;
      }

      .cls-25 {
        fill: #fafafa;
      }
    </style>
  </defs>
  <g id="Background_Complete" data-name="Background Complete">
    <g>
      <rect class="cls-17" y="327.45" width="500" height=".25"/>
      <rect class="cls-17" x="416.78" y="343.54" width="33.12" height=".25"/>
      <rect class="cls-17" x="322.53" y="346.26" width="8.69" height=".25"/>
      <rect class="cls-17" x="396.59" y="334.26" width="19.19" height=".25"/>
      <rect class="cls-17" x="52.46" y="335.94" width="43.19" height=".25"/>
      <rect class="cls-17" x="104.56" y="335.94" width="6.33" height=".25"/>
      <rect class="cls-17" x="131.47" y="340.16" width="93.68" height=".25"/>
      <path class="cls-17" d="M237.01,282.85H43.91c-3.15,0-5.71-2.56-5.71-5.71V5.71c0-3.15,2.56-5.71,5.71-5.71h193.1c3.15,0,5.71,2.56,5.71,5.71v271.43c0,3.15-2.56,5.71-5.71,5.71ZM43.91.25c-3.01,0-5.46,2.45-5.46,5.46v271.43c0,3.01,2.45,5.46,5.46,5.46h193.1c3.01,0,5.46-2.45,5.46-5.46V5.71c0-3.01-2.45-5.46-5.46-5.46H43.91Z"/>
      <path class="cls-17" d="M453.31,282.85h-193.1c-3.15,0-5.71-2.56-5.71-5.71V5.71c0-3.15,2.56-5.71,5.71-5.71h193.1c3.15,0,5.71,2.56,5.71,5.71v271.43c0,3.15-2.56,5.71-5.71,5.71ZM260.21.25c-3.01,0-5.46,2.45-5.46,5.46v271.43c0,3.01,2.45,5.46,5.46,5.46h193.1c3.01,0,5.46-2.45,5.46-5.46V5.71c0-3.01-2.45-5.46-5.46-5.46h-193.1Z"/>
    </g>
    <g>
      <g>
        <rect class="cls-17" x="254.39" y="65.76" width="169.52" height="189.92"/>
        <rect class="cls-25" x="254.39" y="68.82" width="166.19" height="183.49"/>
        <g>
          <polygon class="cls-12" points="414.44 166.21 414.44 153.32 410.75 153.32 410.75 144.73 405.84 144.73 405.84 131.84 404.62 131.84 404.62 144.73 399.7 144.73 399.7 153.32 396.02 153.32 396.02 166.21 389.27 166.21 389.27 169.9 386.2 169.9 386.2 184.02 385.58 184.02 385.58 163.76 383.74 163.76 383.74 176.65 381.9 176.65 381.9 145.96 380.67 145.96 380.67 158.85 375.76 158.85 375.76 154.55 373.92 154.55 373.92 136.75 370.24 136.75 370.24 118.94 369.01 118.94 369.01 121.4 343.84 121.4 343.84 114.03 339.54 114.03 339.54 85.79 337.7 85.79 337.7 114.03 331.56 114.03 331.56 121.4 329.1 121.4 329.1 158.23 316.21 158.23 316.21 147.18 320.51 147.18 320.51 145.34 316.21 145.34 316.21 142.27 303.93 142.27 303.93 114.03 300.86 114.03 300.86 109.74 286.13 109.74 286.13 114.03 284.29 114.03 284.29 153.32 277.54 153.32 277.54 171.13 273.85 171.13 273.85 157.01 270.78 157.01 270.78 153.32 264.03 153.32 264.03 140.43 260.35 140.43 260.35 131.84 256.05 131.84 256.05 118.94 254.39 118.94 254.39 252.31 420.58 252.31 420.58 166.21 414.44 166.21"/>
          <g>
            <rect class="cls-25" x="353.24" y="123.32" width="1.74" height="1.74"/>
            <rect class="cls-25" x="353.24" y="126.24" width="1.74" height="1.74"/>
            <rect class="cls-25" x="353.24" y="137.9" width="1.74" height="1.74"/>
            <rect class="cls-25" x="353.24" y="140.82" width="1.74" height="1.74"/>
            <rect class="cls-25" x="353.24" y="143.74" width="1.74" height="1.74"/>
            <rect class="cls-25" x="353.24" y="152.49" width="1.74" height="1.74"/>
            <rect class="cls-25" x="353.24" y="155.4" width="1.74" height="1.74"/>
            <rect class="cls-25" x="350.48" y="134.99" width="1.74" height="1.74"/>
            <rect class="cls-25" x="350.48" y="137.9" width="1.74" height="1.74"/>
            <rect class="cls-25" x="350.48" y="140.82" width="1.74" height="1.74"/>
            <rect class="cls-25" x="350.48" y="143.74" width="1.74" height="1.74"/>
            <rect class="cls-25" x="350.48" y="146.65" width="1.74" height="1.74"/>
            <rect class="cls-25" x="350.48" y="152.49" width="1.74" height="1.74"/>
            <rect class="cls-25" x="350.48" y="155.4" width="1.74" height="1.74"/>
            <rect class="cls-25" x="347.71" y="123.32" width="1.74" height="1.74"/>
            <rect class="cls-25" x="347.71" y="126.24" width="1.74" height="1.74"/>
            <rect class="cls-25" x="347.71" y="129.16" width="1.74" height="1.74"/>
            <rect class="cls-25" x="347.71" y="132.07" width="1.74" height="1.74"/>
            <rect class="cls-25" x="347.71" y="134.99" width="1.74" height="1.74"/>
            <rect class="cls-25" x="347.71" y="137.9" width="1.74" height="1.74"/>
            <rect class="cls-25" x="347.71" y="140.82" width="1.74" height="1.74"/>
            <rect class="cls-25" x="347.71" y="143.74" width="1.74" height="1.74"/>
            <rect class="cls-25" x="347.71" y="146.65" width="1.74" height="1.74"/>
            <rect class="cls-25" x="347.71" y="149.57" width="1.74" height="1.74"/>
            <rect class="cls-25" x="347.71" y="155.4" width="1.74" height="1.74"/>
            <rect class="cls-25" x="344.95" y="123.32" width="1.74" height="1.74"/>
            <rect class="cls-25" x="344.95" y="126.24" width="1.74" height="1.74"/>
            <rect class="cls-25" x="344.95" y="129.16" width="1.74" height="1.74"/>
            <rect class="cls-25" x="344.95" y="132.07" width="1.74" height="1.74"/>
            <rect class="cls-25" x="344.95" y="134.99" width="1.74" height="1.74"/>
            <rect class="cls-25" x="344.95" y="137.9" width="1.74" height="1.74"/>
            <rect class="cls-25" x="344.95" y="140.82" width="1.74" height="1.74"/>
            <rect class="cls-25" x="344.95" y="167.07" width="1.74" height="1.74"/>
            <rect class="cls-25" x="342.19" y="123.32" width="1.74" height="1.74"/>
            <rect class="cls-25" x="342.19" y="126.24" width="1.74" height="1.74"/>
            <rect class="cls-25" x="342.19" y="129.16" width="1.74" height="1.74"/>
            <rect class="cls-25" x="342.19" y="132.07" width="1.74" height="1.74"/>
            <rect class="cls-25" x="342.19" y="134.99" width="1.74" height="1.74"/>
            <rect class="cls-25" x="342.19" y="137.9" width="1.74" height="1.74"/>
            <rect class="cls-25" x="342.19" y="140.82" width="1.74" height="1.74"/>
            <rect class="cls-25" x="342.19" y="143.74" width="1.74" height="1.74"/>
            <rect class="cls-25" x="342.19" y="161.23" width="1.74" height="1.74"/>
            <rect class="cls-25" x="342.19" y="164.15" width="1.74" height="1.74"/>
            <rect class="cls-25" x="342.19" y="167.07" width="1.74" height="1.74"/>
            <rect class="cls-25" x="342.19" y="169.98" width="1.74" height="1.74"/>
            <rect class="cls-25" x="342.19" y="181.65" width="1.74" height="1.74"/>
            <rect class="cls-25" x="339.43" y="123.32" width="1.74" height="1.74"/>
            <rect class="cls-25" x="339.43" y="126.24" width="1.74" height="1.74"/>
            <rect class="cls-25" x="339.43" y="129.16" width="1.74" height="1.74"/>
            <rect class="cls-25" x="339.43" y="132.07" width="1.74" height="1.74"/>
            <rect class="cls-25" x="339.43" y="134.99" width="1.74" height="1.74"/>
            <rect class="cls-25" x="339.43" y="137.9" width="1.74" height="1.74"/>
            <rect class="cls-25" x="339.43" y="140.82" width="1.74" height="1.74"/>
            <rect class="cls-25" x="339.43" y="143.74" width="1.74" height="1.74"/>
            <rect class="cls-25" x="339.43" y="146.65" width="1.74" height="1.74"/>
            <rect class="cls-25" x="339.43" y="149.57" width="1.74" height="1.74"/>
            <rect class="cls-25" x="339.43" y="158.32" width="1.74" height="1.74"/>
            <rect class="cls-25" x="339.43" y="161.23" width="1.74" height="1.74"/>
            <rect class="cls-25" x="339.43" y="164.15" width="1.74" height="1.74"/>
            <rect class="cls-25" x="339.43" y="167.07" width="1.74" height="1.74"/>
            <rect class="cls-25" x="339.43" y="169.98" width="1.74" height="1.74"/>
            <rect class="cls-25" x="339.43" y="181.65" width="1.74" height="1.74"/>
            <rect class="cls-25" x="336.66" y="123.32" width="1.74" height="1.74"/>
            <rect class="cls-25" x="336.66" y="126.24" width="1.74" height="1.74"/>
            <rect class="cls-25" x="336.66" y="129.16" width="1.74" height="1.74"/>
            <rect class="cls-25" x="336.66" y="132.07" width="1.74" height="1.74"/>
            <rect class="cls-25" x="336.66" y="134.99" width="1.74" height="1.74"/>
            <rect class="cls-25" x="336.66" y="137.9" width="1.74" height="1.74"/>
            <rect class="cls-25" x="336.66" y="140.82" width="1.74" height="1.74"/>
            <rect class="cls-25" x="336.66" y="143.74" width="1.74" height="1.74"/>
            <rect class="cls-25" x="336.66" y="146.65" width="1.74" height="1.74"/>
            <rect class="cls-25" x="336.66" y="149.57" width="1.74" height="1.74"/>
            <rect class="cls-25" x="336.66" y="152.49" width="1.74" height="1.74"/>
            <rect class="cls-25" x="336.66" y="155.4" width="1.74" height="1.74"/>
            <rect class="cls-25" x="336.66" y="158.32" width="1.74" height="1.74"/>
            <rect class="cls-25" x="336.66" y="161.23" width="1.74" height="1.74"/>
            <rect class="cls-25" x="336.66" y="164.15" width="1.74" height="1.74"/>
            <rect class="cls-25" x="336.66" y="167.07" width="1.74" height="1.74"/>
            <rect class="cls-25" x="336.66" y="169.98" width="1.74" height="1.74"/>
            <rect class="cls-25" x="336.66" y="172.9" width="1.74" height="1.74"/>
            <rect class="cls-25" x="333.9" y="123.32" width="1.74" height="1.74"/>
            <rect class="cls-25" x="333.9" y="126.24" width="1.74" height="1.74"/>
            <rect class="cls-25" x="333.9" y="129.16" width="1.74" height="1.74"/>
            <rect class="cls-25" x="333.9" y="132.07" width="1.74" height="1.74"/>
            <rect class="cls-25" x="333.9" y="134.99" width="1.74" height="1.74"/>
            <rect class="cls-25" x="333.9" y="137.9" width="1.74" height="1.74"/>
            <rect class="cls-25" x="333.9" y="140.82" width="1.74" height="1.74"/>
            <rect class="cls-25" x="333.9" y="143.74" width="1.74" height="1.74"/>
            <rect class="cls-25" x="333.9" y="146.65" width="1.74" height="1.74"/>
            <rect class="cls-25" x="333.9" y="149.57" width="1.74" height="1.74"/>
            <rect class="cls-25" x="333.9" y="158.32" width="1.74" height="1.74"/>
            <rect class="cls-25" x="333.9" y="161.23" width="1.74" height="1.74"/>
            <rect class="cls-25" x="333.9" y="164.15" width="1.74" height="1.74"/>
            <rect class="cls-25" x="333.9" y="167.07" width="1.74" height="1.74"/>
            <rect class="cls-25" x="331.14" y="123.32" width="1.74" height="1.74"/>
            <rect class="cls-25" x="331.14" y="126.24" width="1.74" height="1.74"/>
            <rect class="cls-25" x="331.14" y="129.16" width="1.74" height="1.74"/>
            <rect class="cls-25" x="331.14" y="132.07" width="1.74" height="1.74"/>
            <rect class="cls-25" x="331.14" y="134.99" width="1.74" height="1.74"/>
            <rect class="cls-25" x="331.14" y="137.9" width="1.74" height="1.74"/>
            <rect class="cls-25" x="331.14" y="140.82" width="1.74" height="1.74"/>
            <rect class="cls-25" x="331.14" y="143.74" width="1.74" height="1.74"/>
            <rect class="cls-25" x="331.14" y="146.65" width="1.74" height="1.74"/>
            <rect class="cls-25" x="331.14" y="149.57" width="1.74" height="1.74"/>
            <rect class="cls-25" x="331.14" y="158.32" width="1.74" height="1.74"/>
            <rect class="cls-25" x="331.14" y="161.23" width="1.74" height="1.74"/>
            <rect class="cls-25" x="331.14" y="164.15" width="1.74" height="1.74"/>
            <rect class="cls-25" x="300.03" y="115.75" width="1.74" height="1.74"/>
            <rect class="cls-25" x="300.03" y="118.67" width="1.74" height="1.74"/>
            <rect class="cls-25" x="300.03" y="121.59" width="1.74" height="1.74"/>
            <rect class="cls-25" x="300.03" y="124.5" width="1.74" height="1.74"/>
            <rect class="cls-25" x="300.03" y="127.42" width="1.74" height="1.74"/>
            <rect class="cls-25" x="300.03" y="130.33" width="1.74" height="1.74"/>
            <rect class="cls-25" x="300.03" y="133.25" width="1.74" height="1.74"/>
            <rect class="cls-25" x="300.03" y="136.17" width="1.74" height="1.74"/>
            <rect class="cls-25" x="300.03" y="144.91" width="1.74" height="1.74"/>
            <rect class="cls-25" x="300.03" y="147.83" width="1.74" height="1.74"/>
            <rect class="cls-25" x="297.27" y="115.75" width="1.74" height="1.74"/>
            <rect class="cls-25" x="297.27" y="118.67" width="1.74" height="1.74"/>
            <rect class="cls-25" x="297.27" y="121.59" width="1.74" height="1.74"/>
            <rect class="cls-25" x="297.27" y="124.5" width="1.74" height="1.74"/>
            <rect class="cls-25" x="297.27" y="127.42" width="1.74" height="1.74"/>
            <rect class="cls-25" x="297.27" y="130.33" width="1.74" height="1.74"/>
            <rect class="cls-25" x="297.27" y="133.25" width="1.74" height="1.74"/>
            <rect class="cls-25" x="297.27" y="136.17" width="1.74" height="1.74"/>
            <rect class="cls-25" x="297.27" y="147.83" width="1.74" height="1.74"/>
            <rect class="cls-25" x="294.51" y="115.75" width="1.74" height="1.74"/>
            <rect class="cls-25" x="294.51" y="118.67" width="1.74" height="1.74"/>
            <rect class="cls-25" x="294.51" y="121.59" width="1.74" height="1.74"/>
            <rect class="cls-25" x="294.51" y="124.5" width="1.74" height="1.74"/>
            <rect class="cls-25" x="294.51" y="127.42" width="1.74" height="1.74"/>
            <rect class="cls-25" x="294.51" y="130.33" width="1.74" height="1.74"/>
            <rect class="cls-25" x="294.51" y="133.25" width="1.74" height="1.74"/>
            <rect class="cls-25" x="294.51" y="136.17" width="1.74" height="1.74"/>
            <rect class="cls-25" x="291.75" y="115.75" width="1.74" height="1.74"/>
            <rect class="cls-25" x="291.75" y="118.67" width="1.74" height="1.74"/>
            <rect class="cls-25" x="291.75" y="121.59" width="1.74" height="1.74"/>
            <rect class="cls-25" x="291.75" y="124.5" width="1.74" height="1.74"/>
            <rect class="cls-25" x="291.75" y="127.42" width="1.74" height="1.74"/>
            <rect class="cls-25" x="291.75" y="130.33" width="1.74" height="1.74"/>
            <rect class="cls-25" x="291.75" y="136.17" width="1.74" height="1.74"/>
            <rect class="cls-25" x="291.75" y="139.08" width="1.74" height="1.74"/>
            <rect class="cls-25" x="291.75" y="147.83" width="1.74" height="1.74"/>
            <rect class="cls-25" x="291.75" y="150.75" width="1.74" height="1.74"/>
            <rect class="cls-25" x="291.75" y="153.66" width="1.74" height="1.74"/>
            <rect class="cls-25" x="291.75" y="156.58" width="1.74" height="1.74"/>
            <rect class="cls-25" x="291.75" y="159.49" width="1.74" height="1.74"/>
            <rect class="cls-25" x="291.75" y="162.41" width="1.74" height="1.74"/>
            <rect class="cls-25" x="291.75" y="165.33" width="1.74" height="1.74"/>
            <rect class="cls-25" x="288.98" y="115.75" width="1.74" height="1.74"/>
            <rect class="cls-25" x="288.98" y="118.67" width="1.74" height="1.74"/>
            <rect class="cls-25" x="288.98" y="121.59" width="1.74" height="1.74"/>
            <rect class="cls-25" x="288.98" y="124.5" width="1.74" height="1.74"/>
            <rect class="cls-25" x="288.98" y="127.42" width="1.74" height="1.74"/>
            <rect class="cls-25" x="288.98" y="130.33" width="1.74" height="1.74"/>
            <rect class="cls-25" x="288.98" y="139.08" width="1.74" height="1.74"/>
            <rect class="cls-25" x="288.98" y="142" width="1.74" height="1.74"/>
            <rect class="cls-25" x="288.98" y="144.91" width="1.74" height="1.74"/>
            <rect class="cls-25" x="288.98" y="147.83" width="1.74" height="1.74"/>
            <rect class="cls-25" x="288.98" y="150.75" width="1.74" height="1.74"/>
            <rect class="cls-25" x="288.98" y="153.66" width="1.74" height="1.74"/>
            <rect class="cls-25" x="288.98" y="156.58" width="1.74" height="1.74"/>
            <rect class="cls-25" x="288.98" y="159.49" width="1.74" height="1.74"/>
            <rect class="cls-25" x="288.98" y="162.41" width="1.74" height="1.74"/>
            <rect class="cls-25" x="288.98" y="165.33" width="1.74" height="1.74"/>
            <rect class="cls-25" x="288.98" y="168.24" width="1.74" height="1.74"/>
            <rect class="cls-25" x="288.98" y="174.07" width="1.74" height="1.74"/>
            <rect class="cls-25" x="286.22" y="115.75" width="1.74" height="1.74"/>
            <rect class="cls-25" x="286.22" y="118.67" width="1.74" height="1.74"/>
            <rect class="cls-25" x="286.22" y="121.59" width="1.74" height="1.74"/>
            <rect class="cls-25" x="286.22" y="124.5" width="1.74" height="1.74"/>
            <rect class="cls-25" x="286.22" y="127.42" width="1.74" height="1.74"/>
            <rect class="cls-25" x="286.22" y="130.33" width="1.74" height="1.74"/>
            <rect class="cls-25" x="286.22" y="139.08" width="1.74" height="1.74"/>
            <rect class="cls-25" x="286.22" y="142" width="1.74" height="1.74"/>
            <rect class="cls-25" x="286.22" y="144.91" width="1.74" height="1.74"/>
            <rect class="cls-25" x="286.22" y="147.83" width="1.74" height="1.74"/>
            <rect class="cls-25" x="286.22" y="156.58" width="1.74" height="1.74"/>
            <rect class="cls-25" x="286.22" y="159.49" width="1.74" height="1.74"/>
            <rect class="cls-25" x="286.22" y="162.41" width="1.74" height="1.74"/>
            <rect class="cls-25" x="286.22" y="165.33" width="1.74" height="1.74"/>
            <rect class="cls-25" x="286.22" y="168.24" width="1.74" height="1.74"/>
            <rect class="cls-25" x="286.22" y="174.07" width="1.74" height="1.74"/>
            <rect class="cls-25" x="286.22" y="176.99" width="1.74" height="1.74"/>
            <rect class="cls-25" x="261.15" y="142.87" width="1.74" height="1.74"/>
            <rect class="cls-25" x="261.15" y="145.78" width="1.74" height="1.74"/>
            <rect class="cls-25" x="261.15" y="148.7" width="1.74" height="1.74"/>
            <rect class="cls-25" x="261.15" y="151.62" width="1.74" height="1.74"/>
            <rect class="cls-25" x="261.15" y="154.53" width="1.74" height="1.74"/>
            <rect class="cls-25" x="261.15" y="157.45" width="1.74" height="1.74"/>
            <rect class="cls-25" x="261.15" y="160.36" width="1.74" height="1.74"/>
            <rect class="cls-25" x="261.15" y="169.11" width="1.74" height="1.74"/>
            <rect class="cls-25" x="261.15" y="172.03" width="1.74" height="1.74"/>
            <rect class="cls-25" x="261.15" y="174.94" width="1.74" height="1.74"/>
            <rect class="cls-25" x="258.39" y="142.87" width="1.74" height="1.74"/>
            <rect class="cls-25" x="258.39" y="145.78" width="1.74" height="1.74"/>
            <rect class="cls-25" x="258.39" y="148.7" width="1.74" height="1.74"/>
            <rect class="cls-25" x="258.39" y="151.62" width="1.74" height="1.74"/>
            <rect class="cls-25" x="258.39" y="154.53" width="1.74" height="1.74"/>
            <rect class="cls-25" x="258.39" y="157.45" width="1.74" height="1.74"/>
            <rect class="cls-25" x="258.39" y="160.36" width="1.74" height="1.74"/>
            <rect class="cls-25" x="254.87" y="142.87" width="2.5" height="1.74"/>
            <rect class="cls-25" x="254.87" y="145.78" width="2.5" height="1.74"/>
            <rect class="cls-25" x="254.87" y="148.7" width="2.5" height="1.74"/>
            <rect class="cls-25" x="254.87" y="151.62" width="2.5" height="1.74"/>
            <rect class="cls-25" x="254.87" y="154.53" width="2.5" height="1.74"/>
            <rect class="cls-25" x="254.87" y="157.45" width="2.5" height="1.74"/>
            <rect class="cls-25" x="254.87" y="160.36" width="2.5" height="1.74"/>
            <rect class="cls-25" x="407.57" y="146.65" width="1.74" height="1.74"/>
            <rect class="cls-25" x="407.57" y="149.57" width="1.74" height="1.74"/>
            <rect class="cls-25" x="407.57" y="152.49" width="1.74" height="1.74"/>
            <rect class="cls-25" x="407.57" y="155.4" width="1.74" height="1.74"/>
            <rect class="cls-25" x="407.57" y="158.32" width="1.74" height="1.74"/>
            <rect class="cls-25" x="407.57" y="161.23" width="1.74" height="1.74"/>
            <rect class="cls-25" x="407.57" y="164.15" width="1.74" height="1.74"/>
            <rect class="cls-25" x="407.57" y="167.07" width="1.74" height="1.74"/>
            <rect class="cls-25" x="407.57" y="169.98" width="1.74" height="1.74"/>
            <rect class="cls-25" x="407.57" y="172.9" width="1.74" height="1.74"/>
            <rect class="cls-25" x="407.57" y="175.81" width="1.74" height="1.74"/>
            <rect class="cls-25" x="407.57" y="178.73" width="1.74" height="1.74"/>
            <rect class="cls-25" x="407.57" y="181.65" width="1.74" height="1.74"/>
            <rect class="cls-25" x="407.57" y="184.56" width="1.74" height="1.74"/>
            <rect class="cls-25" x="407.57" y="187.48" width="1.74" height="1.74"/>
            <rect class="cls-25" x="407.57" y="190.39" width="1.74" height="1.74"/>
            <rect class="cls-25" x="407.57" y="193.31" width="1.74" height="1.74"/>
            <rect class="cls-25" x="407.57" y="196.23" width="1.74" height="1.74"/>
            <rect class="cls-25" x="407.57" y="199.14" width="1.74" height="1.74"/>
            <rect class="cls-25" x="407.57" y="202.06" width="1.74" height="1.74"/>
            <rect class="cls-25" x="404.81" y="146.65" width="1.74" height="1.74"/>
            <rect class="cls-25" x="404.81" y="149.57" width="1.74" height="1.74"/>
            <rect class="cls-25" x="404.81" y="152.49" width="1.74" height="1.74"/>
            <rect class="cls-25" x="404.81" y="155.4" width="1.74" height="1.74"/>
            <rect class="cls-25" x="404.81" y="158.32" width="1.74" height="1.74"/>
            <rect class="cls-25" x="404.81" y="161.23" width="1.74" height="1.74"/>
            <rect class="cls-25" x="404.81" y="164.15" width="1.74" height="1.74"/>
            <rect class="cls-25" x="404.81" y="167.07" width="1.74" height="1.74"/>
            <rect class="cls-25" x="404.81" y="169.98" width="1.74" height="1.74"/>
            <rect class="cls-25" x="404.81" y="172.9" width="1.74" height="1.74"/>
            <rect class="cls-25" x="404.81" y="175.81" width="1.74" height="1.74"/>
            <rect class="cls-25" x="404.81" y="178.73" width="1.74" height="1.74"/>
            <rect class="cls-25" x="404.81" y="181.65" width="1.74" height="1.74"/>
            <rect class="cls-25" x="404.81" y="184.56" width="1.74" height="1.74"/>
            <rect class="cls-25" x="404.81" y="187.48" width="1.74" height="1.74"/>
            <rect class="cls-25" x="404.81" y="190.39" width="1.74" height="1.74"/>
            <rect class="cls-25" x="404.81" y="193.31" width="1.74" height="1.74"/>
            <rect class="cls-25" x="404.81" y="196.23" width="1.74" height="1.74"/>
            <rect class="cls-25" x="402.04" y="146.65" width="1.74" height="1.74"/>
            <rect class="cls-25" x="402.04" y="149.57" width="1.74" height="1.74"/>
            <rect class="cls-25" x="402.04" y="152.49" width="1.74" height="1.74"/>
            <rect class="cls-25" x="402.04" y="155.4" width="1.74" height="1.74"/>
            <rect class="cls-25" x="402.04" y="158.32" width="1.74" height="1.74"/>
            <rect class="cls-25" x="402.04" y="161.23" width="1.74" height="1.74"/>
            <rect class="cls-25" x="402.04" y="164.15" width="1.74" height="1.74"/>
            <rect class="cls-25" x="402.04" y="167.07" width="1.74" height="1.74"/>
            <rect class="cls-25" x="402.04" y="169.98" width="1.74" height="1.74"/>
            <rect class="cls-25" x="402.04" y="172.9" width="1.74" height="1.74"/>
            <rect class="cls-25" x="402.04" y="175.81" width="1.74" height="1.74"/>
            <rect class="cls-25" x="402.04" y="178.73" width="1.74" height="1.74"/>
            <rect class="cls-25" x="402.04" y="181.65" width="1.74" height="1.74"/>
            <rect class="cls-25" x="402.04" y="184.56" width="1.74" height="1.74"/>
            <rect class="cls-25" x="402.04" y="187.48" width="1.74" height="1.74"/>
            <rect class="cls-25" x="402.04" y="190.39" width="1.74" height="1.74"/>
            <rect class="cls-25" x="402.04" y="193.31" width="1.74" height="1.74"/>
            <rect class="cls-25" x="402.04" y="196.23" width="1.74" height="1.74"/>
            <rect class="cls-25" x="417.9" y="167.94" width="1.74" height="1.74"/>
            <rect class="cls-25" x="417.9" y="170.85" width="1.74" height="1.74"/>
            <rect class="cls-25" x="417.9" y="173.77" width="1.74" height="1.74"/>
            <rect class="cls-25" x="417.9" y="176.68" width="1.74" height="1.74"/>
            <rect class="cls-25" x="417.9" y="179.6" width="1.74" height="1.74"/>
            <rect class="cls-25" x="417.9" y="182.52" width="1.74" height="1.74"/>
            <rect class="cls-25" x="417.9" y="185.43" width="1.74" height="1.74"/>
            <rect class="cls-25" x="417.9" y="188.35" width="1.74" height="1.74"/>
            <rect class="cls-25" x="417.9" y="191.26" width="1.74" height="1.74"/>
            <rect class="cls-25" x="417.9" y="194.18" width="1.74" height="1.74"/>
            <rect class="cls-25" x="417.9" y="197.1" width="1.74" height="1.74"/>
            <rect class="cls-25" x="417.9" y="200.01" width="1.74" height="1.74"/>
            <rect class="cls-25" x="417.9" y="202.93" width="1.74" height="1.74"/>
            <rect class="cls-25" x="415.14" y="167.94" width="1.74" height="1.74"/>
            <rect class="cls-25" x="415.14" y="170.85" width="1.74" height="1.74"/>
            <rect class="cls-25" x="415.14" y="173.77" width="1.74" height="1.74"/>
            <rect class="cls-25" x="415.14" y="176.68" width="1.74" height="1.74"/>
            <rect class="cls-25" x="415.14" y="179.6" width="1.74" height="1.74"/>
            <rect class="cls-25" x="415.14" y="182.52" width="1.74" height="1.74"/>
            <rect class="cls-25" x="415.14" y="185.43" width="1.74" height="1.74"/>
            <rect class="cls-25" x="415.14" y="188.35" width="1.74" height="1.74"/>
            <rect class="cls-25" x="415.14" y="191.26" width="1.74" height="1.74"/>
            <rect class="cls-25" x="415.14" y="194.18" width="1.74" height="1.74"/>
            <rect class="cls-25" x="415.14" y="197.1" width="1.74" height="1.74"/>
            <rect class="cls-25" x="415.14" y="200.01" width="1.74" height="1.74"/>
            <rect class="cls-25" x="415.14" y="202.93" width="1.74" height="1.74"/>
            <rect class="cls-25" x="412.38" y="167.94" width="1.74" height="1.74"/>
            <rect class="cls-25" x="412.38" y="170.85" width="1.74" height="1.74"/>
            <rect class="cls-25" x="412.38" y="173.77" width="1.74" height="1.74"/>
            <rect class="cls-25" x="412.38" y="176.68" width="1.74" height="1.74"/>
            <rect class="cls-25" x="412.38" y="179.6" width="1.74" height="1.74"/>
            <rect class="cls-25" x="412.38" y="182.52" width="1.74" height="1.74"/>
            <rect class="cls-25" x="412.38" y="185.43" width="1.74" height="1.74"/>
            <rect class="cls-25" x="412.38" y="188.35" width="1.74" height="1.74"/>
            <rect class="cls-25" x="412.38" y="191.26" width="1.74" height="1.74"/>
            <rect class="cls-25" x="412.38" y="194.18" width="1.74" height="1.74"/>
            <rect class="cls-25" x="412.38" y="197.1" width="1.74" height="1.74"/>
            <rect class="cls-25" x="412.38" y="200.01" width="1.74" height="1.74"/>
            <rect class="cls-25" x="412.38" y="202.93" width="1.74" height="1.74"/>
            <rect class="cls-25" x="412.38" y="205.84" width="1.74" height="1.74"/>
            <rect class="cls-25" x="397.03" y="168.8" width="1.74" height="1.74"/>
            <rect class="cls-25" x="397.03" y="171.72" width="1.74" height="1.74"/>
            <rect class="cls-25" x="397.03" y="174.64" width="1.74" height="1.74"/>
            <rect class="cls-25" x="397.03" y="177.55" width="1.74" height="1.74"/>
            <rect class="cls-25" x="397.03" y="180.47" width="1.74" height="1.74"/>
            <rect class="cls-25" x="397.03" y="183.39" width="1.74" height="1.74"/>
            <rect class="cls-25" x="397.03" y="186.3" width="1.74" height="1.74"/>
            <rect class="cls-25" x="397.03" y="189.22" width="1.74" height="1.74"/>
            <rect class="cls-25" x="397.03" y="192.13" width="1.74" height="1.74"/>
            <rect class="cls-25" x="397.03" y="195.05" width="1.74" height="1.74"/>
            <rect class="cls-25" x="397.03" y="203.8" width="1.74" height="1.74"/>
            <rect class="cls-25" x="394.27" y="168.8" width="1.74" height="1.74"/>
            <rect class="cls-25" x="394.27" y="171.72" width="1.74" height="1.74"/>
            <rect class="cls-25" x="394.27" y="174.64" width="1.74" height="1.74"/>
            <rect class="cls-25" x="394.27" y="177.55" width="1.74" height="1.74"/>
            <rect class="cls-25" x="394.27" y="180.47" width="1.74" height="1.74"/>
            <rect class="cls-25" x="394.27" y="183.39" width="1.74" height="1.74"/>
            <rect class="cls-25" x="394.27" y="186.3" width="1.74" height="1.74"/>
            <rect class="cls-25" x="394.27" y="189.22" width="1.74" height="1.74"/>
            <rect class="cls-25" x="394.27" y="192.13" width="1.74" height="1.74"/>
            <rect class="cls-25" x="394.27" y="200.88" width="1.74" height="1.74"/>
            <rect class="cls-25" x="394.27" y="203.8" width="1.74" height="1.74"/>
            <rect class="cls-25" x="391.51" y="168.8" width="1.74" height="1.74"/>
            <rect class="cls-25" x="391.51" y="171.72" width="1.74" height="1.74"/>
            <rect class="cls-25" x="391.51" y="174.64" width="1.74" height="1.74"/>
            <rect class="cls-25" x="391.51" y="177.55" width="1.74" height="1.74"/>
            <rect class="cls-25" x="391.51" y="180.47" width="1.74" height="1.74"/>
            <rect class="cls-25" x="391.51" y="183.39" width="1.74" height="1.74"/>
            <rect class="cls-25" x="391.51" y="186.3" width="1.74" height="1.74"/>
            <rect class="cls-25" x="391.51" y="189.22" width="1.74" height="1.74"/>
            <rect class="cls-25" x="391.51" y="197.97" width="1.74" height="1.74"/>
            <rect class="cls-25" x="391.51" y="200.88" width="1.74" height="1.74"/>
            <rect class="cls-25" x="391.51" y="203.8" width="1.74" height="1.74"/>
            <rect class="cls-25" x="365.82" y="124.5" width="1.74" height="1.74"/>
            <rect class="cls-25" x="365.82" y="127.42" width="1.74" height="1.74"/>
            <rect class="cls-25" x="365.82" y="130.33" width="1.74" height="1.74"/>
            <rect class="cls-25" x="365.82" y="133.25" width="1.74" height="1.74"/>
            <rect class="cls-25" x="365.82" y="136.17" width="1.74" height="1.74"/>
            <rect class="cls-25" x="365.82" y="139.08" width="1.74" height="1.74"/>
            <rect class="cls-25" x="365.82" y="142" width="1.74" height="1.74"/>
            <rect class="cls-25" x="365.82" y="144.91" width="1.74" height="1.74"/>
            <rect class="cls-25" x="365.82" y="147.83" width="1.74" height="1.74"/>
            <rect class="cls-25" x="365.82" y="150.75" width="1.74" height="1.74"/>
            <rect class="cls-25" x="365.82" y="153.66" width="1.74" height="1.74"/>
            <rect class="cls-25" x="365.82" y="156.58" width="1.74" height="1.74"/>
            <rect class="cls-25" x="365.82" y="159.49" width="1.74" height="1.74"/>
            <rect class="cls-25" x="365.82" y="162.41" width="1.74" height="1.74"/>
            <rect class="cls-25" x="365.82" y="165.33" width="1.74" height="1.74"/>
            <rect class="cls-25" x="365.82" y="168.24" width="1.74" height="1.74"/>
            <rect class="cls-25" x="365.82" y="171.16" width="1.74" height="1.74"/>
            <rect class="cls-25" x="365.82" y="176.99" width="1.74" height="1.74"/>
            <rect class="cls-25" x="365.82" y="179.91" width="1.74" height="1.74"/>
            <rect class="cls-25" x="365.82" y="182.82" width="1.74" height="1.74"/>
            <rect class="cls-25" x="365.82" y="185.74" width="1.74" height="1.74"/>
            <rect class="cls-25" x="365.82" y="188.65" width="1.74" height="1.74"/>
            <rect class="cls-25" x="363.06" y="124.5" width="1.74" height="1.74"/>
            <rect class="cls-25" x="363.06" y="127.42" width="1.74" height="1.74"/>
            <rect class="cls-25" x="363.06" y="130.33" width="1.74" height="1.74"/>
            <rect class="cls-25" x="363.06" y="133.25" width="1.74" height="1.74"/>
            <rect class="cls-25" x="363.06" y="136.17" width="1.74" height="1.74"/>
            <rect class="cls-25" x="363.06" y="139.08" width="1.74" height="1.74"/>
            <rect class="cls-25" x="363.06" y="142" width="1.74" height="1.74"/>
            <rect class="cls-25" x="363.06" y="144.91" width="1.74" height="1.74"/>
            <rect class="cls-25" x="363.06" y="147.83" width="1.74" height="1.74"/>
            <rect class="cls-25" x="363.06" y="150.75" width="1.74" height="1.74"/>
            <rect class="cls-25" x="363.06" y="153.66" width="1.74" height="1.74"/>
            <rect class="cls-25" x="363.06" y="156.58" width="1.74" height="1.74"/>
            <rect class="cls-25" x="363.06" y="159.49" width="1.74" height="1.74"/>
            <rect class="cls-25" x="363.06" y="162.41" width="1.74" height="1.74"/>
            <rect class="cls-25" x="363.06" y="165.33" width="1.74" height="1.74"/>
            <rect class="cls-25" x="363.06" y="168.24" width="1.74" height="1.74"/>
            <rect class="cls-25" x="363.06" y="185.74" width="1.74" height="1.74"/>
            <rect class="cls-25" x="363.06" y="188.65" width="1.74" height="1.74"/>
            <rect class="cls-25" x="360.3" y="124.5" width="1.74" height="1.74"/>
            <rect class="cls-25" x="360.3" y="127.42" width="1.74" height="1.74"/>
            <rect class="cls-25" x="360.3" y="130.33" width="1.74" height="1.74"/>
            <rect class="cls-25" x="360.3" y="133.25" width="1.74" height="1.74"/>
            <rect class="cls-25" x="360.3" y="136.17" width="1.74" height="1.74"/>
            <rect class="cls-25" x="360.3" y="139.08" width="1.74" height="1.74"/>
            <rect class="cls-25" x="360.3" y="142" width="1.74" height="1.74"/>
            <rect class="cls-25" x="360.3" y="144.91" width="1.74" height="1.74"/>
            <rect class="cls-25" x="360.3" y="147.83" width="1.74" height="1.74"/>
            <rect class="cls-25" x="360.3" y="150.75" width="1.74" height="1.74"/>
            <rect class="cls-25" x="360.3" y="153.66" width="1.74" height="1.74"/>
            <rect class="cls-25" x="360.3" y="156.58" width="1.74" height="1.74"/>
            <rect class="cls-25" x="360.3" y="159.49" width="1.74" height="1.74"/>
            <rect class="cls-25" x="360.3" y="162.41" width="1.74" height="1.74"/>
            <rect class="cls-25" x="360.3" y="165.33" width="1.74" height="1.74"/>
            <rect class="cls-25" x="360.3" y="168.24" width="1.74" height="1.74"/>
            <rect class="cls-25" x="360.3" y="174.07" width="1.74" height="1.74"/>
            <rect class="cls-25" x="360.3" y="176.99" width="1.74" height="1.74"/>
            <rect class="cls-25" x="360.3" y="179.91" width="1.74" height="1.74"/>
            <rect class="cls-25" x="360.3" y="182.82" width="1.74" height="1.74"/>
            <rect class="cls-25" x="360.3" y="188.65" width="1.74" height="1.74"/>
            <rect class="cls-25" x="375.85" y="161.23" width="1.74" height="1.74"/>
            <rect class="cls-25" x="375.85" y="164.15" width="1.74" height="1.74"/>
            <rect class="cls-25" x="375.85" y="167.07" width="1.74" height="1.74"/>
            <rect class="cls-25" x="375.85" y="169.98" width="1.74" height="1.74"/>
            <rect class="cls-25" x="375.85" y="172.9" width="1.74" height="1.74"/>
            <rect class="cls-25" x="375.85" y="175.81" width="1.74" height="1.74"/>
            <rect class="cls-25" x="375.85" y="178.73" width="1.74" height="1.74"/>
            <rect class="cls-25" x="375.85" y="184.56" width="1.74" height="1.74"/>
            <rect class="cls-25" x="375.85" y="187.48" width="1.74" height="1.74"/>
            <rect class="cls-25" x="375.85" y="190.39" width="1.74" height="1.74"/>
            <rect class="cls-25" x="375.85" y="193.31" width="1.74" height="1.74"/>
            <rect class="cls-25" x="375.85" y="196.23" width="1.74" height="1.74"/>
            <rect class="cls-25" x="375.85" y="199.14" width="1.74" height="1.74"/>
            <rect class="cls-25" x="375.85" y="202.06" width="1.74" height="1.74"/>
            <rect class="cls-25" x="375.85" y="204.97" width="1.74" height="1.74"/>
            <rect class="cls-25" x="373.09" y="161.23" width="1.74" height="1.74"/>
            <rect class="cls-25" x="373.09" y="164.15" width="1.74" height="1.74"/>
            <rect class="cls-25" x="373.09" y="167.07" width="1.74" height="1.74"/>
            <rect class="cls-25" x="373.09" y="169.98" width="1.74" height="1.74"/>
            <rect class="cls-25" x="373.09" y="172.9" width="1.74" height="1.74"/>
            <rect class="cls-25" x="373.09" y="175.81" width="1.74" height="1.74"/>
            <rect class="cls-25" x="373.09" y="184.56" width="1.74" height="1.74"/>
            <rect class="cls-25" x="373.09" y="187.48" width="1.74" height="1.74"/>
            <rect class="cls-25" x="373.09" y="190.39" width="1.74" height="1.74"/>
            <rect class="cls-25" x="373.09" y="193.31" width="1.74" height="1.74"/>
            <rect class="cls-25" x="373.09" y="196.23" width="1.74" height="1.74"/>
            <rect class="cls-25" x="373.09" y="199.14" width="1.74" height="1.74"/>
            <rect class="cls-25" x="373.09" y="202.06" width="1.74" height="1.74"/>
            <rect class="cls-25" x="373.09" y="204.97" width="1.74" height="1.74"/>
            <rect class="cls-25" x="370.33" y="161.23" width="1.74" height="1.74"/>
            <rect class="cls-25" x="370.33" y="164.15" width="1.74" height="1.74"/>
            <rect class="cls-25" x="370.33" y="167.07" width="1.74" height="1.74"/>
            <rect class="cls-25" x="370.33" y="169.98" width="1.74" height="1.74"/>
            <rect class="cls-25" x="370.33" y="172.9" width="1.74" height="1.74"/>
            <rect class="cls-25" x="370.33" y="175.81" width="1.74" height="1.74"/>
            <rect class="cls-25" x="370.33" y="181.65" width="1.74" height="1.74"/>
            <rect class="cls-25" x="370.33" y="184.56" width="1.74" height="1.74"/>
            <rect class="cls-25" x="370.33" y="187.48" width="1.74" height="1.74"/>
            <rect class="cls-25" x="370.33" y="190.39" width="1.74" height="1.74"/>
            <rect class="cls-25" x="370.33" y="193.31" width="1.74" height="1.74"/>
            <rect class="cls-25" x="370.33" y="196.23" width="1.74" height="1.74"/>
            <rect class="cls-25" x="370.33" y="199.14" width="1.74" height="1.74"/>
            <rect class="cls-25" x="370.33" y="202.06" width="1.74" height="1.74"/>
            <rect class="cls-25" x="370.33" y="204.97" width="1.74" height="1.74"/>
            <rect class="cls-25" x="312.11" y="144.91" width="1.74" height="1.74"/>
            <rect class="cls-25" x="312.11" y="147.83" width="1.74" height="1.74"/>
            <rect class="cls-25" x="312.11" y="150.75" width="1.74" height="1.74"/>
            <rect class="cls-25" x="312.11" y="153.66" width="1.74" height="1.74"/>
            <rect class="cls-25" x="312.11" y="156.58" width="1.74" height="1.74"/>
            <rect class="cls-25" x="312.11" y="159.49" width="1.74" height="1.74"/>
            <rect class="cls-25" x="312.11" y="162.41" width="1.74" height="1.74"/>
            <rect class="cls-25" x="312.11" y="165.33" width="1.74" height="1.74"/>
            <rect class="cls-25" x="312.11" y="168.24" width="1.74" height="1.74"/>
            <rect class="cls-25" x="312.11" y="171.16" width="1.74" height="1.74"/>
            <rect class="cls-25" x="312.11" y="174.07" width="1.74" height="1.74"/>
            <rect class="cls-25" x="312.11" y="176.99" width="1.74" height="1.74"/>
            <rect class="cls-25" x="312.11" y="179.91" width="1.74" height="1.74"/>
            <rect class="cls-25" x="312.11" y="185.74" width="1.74" height="1.74"/>
            <rect class="cls-25" x="312.11" y="188.65" width="1.74" height="1.74"/>
            <rect class="cls-25" x="312.11" y="191.57" width="1.74" height="1.74"/>
            <rect class="cls-25" x="312.11" y="194.49" width="1.74" height="1.74"/>
            <rect class="cls-25" x="312.11" y="200.32" width="1.74" height="1.74"/>
            <rect class="cls-25" x="312.11" y="203.23" width="1.74" height="1.74"/>
            <rect class="cls-25" x="312.11" y="206.15" width="1.74" height="1.74"/>
            <rect class="cls-25" x="309.34" y="144.91" width="1.74" height="1.74"/>
            <rect class="cls-25" x="309.34" y="147.83" width="1.74" height="1.74"/>
            <rect class="cls-25" x="309.34" y="150.75" width="1.74" height="1.74"/>
            <rect class="cls-25" x="309.34" y="153.66" width="1.74" height="1.74"/>
            <rect class="cls-25" x="309.34" y="156.58" width="1.74" height="1.74"/>
            <rect class="cls-25" x="309.34" y="159.49" width="1.74" height="1.74"/>
            <rect class="cls-25" x="309.34" y="162.41" width="1.74" height="1.74"/>
            <rect class="cls-25" x="309.34" y="165.33" width="1.74" height="1.74"/>
            <rect class="cls-25" x="309.34" y="168.24" width="1.74" height="1.74"/>
            <rect class="cls-25" x="309.34" y="171.16" width="1.74" height="1.74"/>
            <rect class="cls-25" x="309.34" y="174.07" width="1.74" height="1.74"/>
            <rect class="cls-25" x="309.34" y="176.99" width="1.74" height="1.74"/>
            <rect class="cls-25" x="309.34" y="179.91" width="1.74" height="1.74"/>
            <rect class="cls-25" x="309.34" y="188.65" width="1.74" height="1.74"/>
            <rect class="cls-25" x="309.34" y="191.57" width="1.74" height="1.74"/>
            <rect class="cls-25" x="309.34" y="197.4" width="1.74" height="1.74"/>
            <rect class="cls-25" x="309.34" y="200.32" width="1.74" height="1.74"/>
            <rect class="cls-25" x="309.34" y="203.23" width="1.74" height="1.74"/>
            <rect class="cls-25" x="309.34" y="206.15" width="1.74" height="1.74"/>
            <rect class="cls-25" x="306.58" y="144.91" width="1.74" height="1.74"/>
            <rect class="cls-25" x="306.58" y="147.83" width="1.74" height="1.74"/>
            <rect class="cls-25" x="306.58" y="150.75" width="1.74" height="1.74"/>
            <rect class="cls-25" x="306.58" y="153.66" width="1.74" height="1.74"/>
            <rect class="cls-25" x="306.58" y="156.58" width="1.74" height="1.74"/>
            <rect class="cls-25" x="306.58" y="159.49" width="1.74" height="1.74"/>
            <rect class="cls-25" x="306.58" y="162.41" width="1.74" height="1.74"/>
            <rect class="cls-25" x="306.58" y="165.33" width="1.74" height="1.74"/>
            <rect class="cls-25" x="306.58" y="168.24" width="1.74" height="1.74"/>
            <rect class="cls-25" x="306.58" y="171.16" width="1.74" height="1.74"/>
            <rect class="cls-25" x="306.58" y="174.07" width="1.74" height="1.74"/>
            <rect class="cls-25" x="306.58" y="176.99" width="1.74" height="1.74"/>
            <rect class="cls-25" x="306.58" y="179.91" width="1.74" height="1.74"/>
            <rect class="cls-25" x="306.58" y="182.82" width="1.74" height="1.74"/>
            <rect class="cls-25" x="306.58" y="188.65" width="1.74" height="1.74"/>
            <rect class="cls-25" x="306.58" y="194.49" width="1.74" height="1.74"/>
            <rect class="cls-25" x="306.58" y="197.4" width="1.74" height="1.74"/>
            <rect class="cls-25" x="306.58" y="200.32" width="1.74" height="1.74"/>
            <rect class="cls-25" x="306.58" y="203.23" width="1.74" height="1.74"/>
            <rect class="cls-25" x="306.58" y="206.15" width="1.74" height="1.74"/>
            <rect class="cls-25" x="323.36" y="161.54" width="1.74" height="1.74"/>
            <rect class="cls-25" x="323.36" y="164.46" width="1.74" height="1.74"/>
            <rect class="cls-25" x="323.36" y="167.37" width="1.74" height="1.74"/>
            <rect class="cls-25" x="323.36" y="170.29" width="1.74" height="1.74"/>
            <rect class="cls-25" x="323.36" y="173.2" width="1.74" height="1.74"/>
            <rect class="cls-25" x="323.36" y="176.12" width="1.74" height="1.74"/>
            <rect class="cls-25" x="323.36" y="184.87" width="1.74" height="1.74"/>
            <rect class="cls-25" x="323.36" y="187.78" width="1.74" height="1.74"/>
            <rect class="cls-25" x="323.36" y="190.7" width="1.74" height="1.74"/>
            <rect class="cls-25" x="323.36" y="193.62" width="1.74" height="1.74"/>
            <rect class="cls-25" x="323.36" y="196.53" width="1.74" height="1.74"/>
            <rect class="cls-25" x="323.36" y="199.45" width="1.74" height="1.74"/>
            <rect class="cls-25" x="323.36" y="202.37" width="1.74" height="1.74"/>
            <rect class="cls-25" x="320.6" y="161.54" width="1.74" height="1.74"/>
            <rect class="cls-25" x="320.6" y="164.46" width="1.74" height="1.74"/>
            <rect class="cls-25" x="320.6" y="167.37" width="1.74" height="1.74"/>
            <rect class="cls-25" x="320.6" y="170.29" width="1.74" height="1.74"/>
            <rect class="cls-25" x="320.6" y="173.2" width="1.74" height="1.74"/>
            <rect class="cls-25" x="320.6" y="176.12" width="1.74" height="1.74"/>
            <rect class="cls-25" x="320.6" y="184.87" width="1.74" height="1.74"/>
            <rect class="cls-25" x="320.6" y="187.78" width="1.74" height="1.74"/>
            <rect class="cls-25" x="320.6" y="190.7" width="1.74" height="1.74"/>
            <rect class="cls-25" x="320.6" y="193.62" width="1.74" height="1.74"/>
            <rect class="cls-25" x="320.6" y="196.53" width="1.74" height="1.74"/>
            <rect class="cls-25" x="320.6" y="199.45" width="1.74" height="1.74"/>
            <rect class="cls-25" x="320.6" y="205.28" width="1.74" height="1.74"/>
          </g>
        </g>
        <g>
          <rect class="cls-17" x="254.39" y="66.19" width="3.45" height="189.49"/>
          <rect class="cls-17" x="309.84" y="66.19" width="2.92" height="189.49"/>
          <rect class="cls-17" x="364.76" y="66.19" width="2.92" height="189.49"/>
        </g>
      </g>
      <g>
        <path class="cls-18" d="M78.82,303.76s-4.46-9.73.64-19.33c5.1-9.6,6.58-11.86,3.33-13.82-3.25-1.97-4.74,7.68-4.74,7.68,0,0-2.74-6.63-.48-13.58,2.26-6.94,3.68-18.25.59-19.46-3.09-1.21-.59,14.11-3.27,19.33,0,0-2.25-5.81-2.62-11.39-.37-5.58.21-14.48-2.23-16.76-2.44-2.28-4-.7-1.6,11.6,2.4,12.31,2.38,22.31,2.38,22.31,0,0-5.29-16.14-8.85-16.61-3.55-.47-3.55,4.76-.51,9.29,3.04,4.53,8.91,12.66,9.87,16.84,0,0-5.81-12.15-11.04-8.42-5.23,3.72,4.55,11.06,8.91,13.71s7.38,19.27,7.38,19.27l2.24-.64Z"/>
        <path class="cls-17" d="M75.29,307.76s4.34-9.8-.87-19.32c-5.21-9.52-6.72-11.76-3.49-13.77,3.23-2.01,4.83,7.61,4.83,7.61,0,0,2.66-6.67.31-13.58-2.34-6.91-3.9-18.19-.82-19.45,3.07-1.26.76,14.1,3.5,19.28,0,0,2.18-5.85,2.48-11.43s-.38-14.48,2.03-16.8,3.99-.76,1.74,11.58c-2.25,12.34-2.11,22.34-2.11,22.34,0,0,5.1-16.22,8.65-16.74,3.55-.52,3.61,4.7.62,9.28-2.99,4.58-8.75,12.79-9.67,16.98,0,0,5.67-12.23,10.94-8.59,5.27,3.64-4.42,11.13-8.74,13.84-4.33,2.72-7.15,19.38-7.15,19.38l-2.25-.61Z"/>
        <polygon class="cls-17" points="95.33 300.77 59.44 300.77 62.35 326.45 92.43 326.45 95.33 300.77"/>
      </g>
      <g>
        <path class="cls-17" d="M421.86,298.94c.13-.87,3.11-21.4-2.86-28.49-1.32-1.57-2.99-2.39-4.95-2.44-12.03-.28-13.68,9.38-13.7,9.48l1.42.22c.06-.35,1.48-8.53,12.24-8.27,1.56.04,2.83.67,3.89,1.93,5.55,6.6,2.57,27.15,2.53,27.36l1.42.21Z"/>
        <path class="cls-17" d="M422.59,298.01l1.44-.05c0-.19-.48-18.92,8.75-22.79,9.04-3.79,13.11,4,13.28,4.34l1.28-.64c-.05-.09-4.82-9.33-15.12-5.01-10.14,4.25-9.66,23.35-9.63,24.16Z"/>
        <path class="cls-17" d="M422.55,299.48c0-.3.09-29.92,5.86-38.59,5.55-8.32,14.49-4.4,14.87-4.23l.59-1.31c-.1-.05-10.43-4.6-16.66,4.74-6.02,9.02-6.1,38.15-6.1,39.38h1.44Z"/>
        <path class="cls-18" d="M412.33,268.72s5.25,1.94,3.69,6.51c-1.56,4.57-18.18,12.1-18.18,12.1,0,0-6.96-6.38-.57-16.75,6.39-10.37,14.91-5.13,15.05-1.86Z"/>
        <path class="cls-18" d="M428.67,259.33s-3.73-.4-3.43-2.67c.3-2.27,14.5-8.12,22.88,1.34,0,0-5.36,9.22-13.12,9.34-7.76.12-6.33-8-6.33-8Z"/>
        <path class="cls-18" d="M432.5,274.51s-2.57-2.08.2-3.09c2.78-1.01,16.41-.73,16.55,12.78,0,0-15.88,2.64-17.84-2.51-1.97-5.14,1.09-7.18,1.09-7.18Z"/>
        <polygon class="cls-17" points="409.51 326.45 434.15 326.45 436.8 299.48 406.85 299.48 409.51 326.45"/>
        <rect class="cls-18" x="405.53" y="296.5" width="32.59" height="5.95" transform="translate(843.65 598.95) rotate(180)"/>
      </g>
      <g>
        <circle class="cls-18" cx="159.26" cy="64.3" r="14.17"/>
        <circle class="cls-12" cx="159.26" cy="64.3" r="12.05"/>
        <polyline class="cls-32" points="159.83 56.04 159.83 64.46 165.41 61.3"/>
      </g>
    </g>
  </g>
  <g id="Shadow">
    <ellipse id="_Path_" data-name="&amp;lt;Path&amp;gt;" class="cls-13" cx="250" cy="361.29" rx="193.89" ry="11.32"/>
  </g>
  <g id="Board">
    <g>
      <rect class="cls-1" x="79.67" y="113.62" width="152.86" height="102.58"/>
      <g>
        <polygon class="cls-1" points="114.2 170.18 109.54 170.18 109.54 348.88 99.35 351.05 99.35 352.85 111.04 352.85 112.7 352.85 124.38 352.85 124.38 351.05 114.2 348.88 114.2 170.18"/>
        <polygon class="cls-1" points="202.66 348.88 202.66 170.18 198 170.18 198 348.88 187.82 351.05 187.82 352.85 199.5 352.85 201.16 352.85 212.85 352.85 212.85 351.05 202.66 348.88"/>
      </g>
      <g class="cls-33">
        <rect class="cls-24" x="79.67" y="113.62" width="152.86" height="102.58"/>
        <g>
          <polygon class="cls-24" points="114.2 170.18 109.54 170.18 109.54 348.88 99.35 351.05 99.35 352.85 111.04 352.85 112.7 352.85 124.38 352.85 124.38 351.05 114.2 348.88 114.2 170.18"/>
          <polygon class="cls-24" points="202.66 348.88 202.66 170.18 198 170.18 198 348.88 187.82 351.05 187.82 352.85 199.5 352.85 201.16 352.85 212.85 352.85 212.85 351.05 202.66 348.88"/>
        </g>
      </g>
      <rect class="cls-24" x="109.23" y="92.9" width="93.73" height="144.02" transform="translate(321.01 8.81) rotate(90)"/>
      <g>
        <g class="cls-34">
          <polygon class="cls-3" points="217.17 205.13 92.85 205.13 92.85 135.43 93.85 135.43 93.85 204.13 217.17 204.13 217.17 205.13"/>
        </g>
        <g>
          <g>
            <rect class="cls-16" x="99.35" y="193.56" width="5.37" height="10.07"/>
            <rect class="cls-14" x="99.35" y="193.56" width="5.37" height="2.93"/>
          </g>
          <g>
            <rect class="cls-16" x="110.32" y="177.45" width="5.37" height="26.17"/>
            <rect class="cls-14" x="110.32" y="177.45" width="5.37" height="7.62"/>
          </g>
          <g>
            <rect class="cls-16" x="121.29" y="183.49" width="5.37" height="20.14"/>
            <rect class="cls-14" x="121.29" y="183.49" width="5.37" height="5.86"/>
          </g>
          <g>
            <rect class="cls-16" x="132.26" y="174.23" width="5.37" height="29.39"/>
            <rect class="cls-14" x="132.26" y="174.23" width="5.37" height="8.56"/>
          </g>
          <g>
            <rect class="cls-16" x="143.23" y="165.69" width="5.37" height="37.94"/>
            <rect class="cls-14" x="143.23" y="165.69" width="5.37" height="11.05"/>
          </g>
          <g>
            <rect class="cls-16" x="154.21" y="159.23" width="5.37" height="44.4"/>
            <rect class="cls-14" x="154.21" y="159.23" width="5.37" height="12.93"/>
          </g>
          <g>
            <rect class="cls-16" x="165.18" y="166.7" width="5.37" height="36.93"/>
            <rect class="cls-14" x="165.18" y="166.7" width="5.37" height="10.75"/>
          </g>
          <g>
            <rect class="cls-16" x="176.15" y="165.09" width="5.37" height="38.54"/>
            <rect class="cls-14" x="176.15" y="165.09" width="5.37" height="11.22"/>
          </g>
          <g>
            <rect class="cls-16" x="187.12" y="155.25" width="5.37" height="48.37"/>
            <rect class="cls-14" x="187.12" y="155.25" width="5.37" height="14.08"/>
          </g>
          <g>
            <rect class="cls-16" x="198.09" y="145.34" width="5.37" height="58.28"/>
            <rect class="cls-14" x="198.09" y="145.34" width="5.37" height="16.97"/>
          </g>
          <g>
            <rect class="cls-16" x="209.06" y="136.68" width="5.37" height="66.95"/>
            <rect class="cls-14" x="209.06" y="136.68" width="5.37" height="19.49"/>
          </g>
        </g>
        <rect class="cls-16" x="121.29" y="124.9" width="66.52" height="2.77"/>
      </g>
    </g>
  </g>
  <g id="Character_2" data-name="Character 2">
    <g>
      <path class="cls-8" d="M226.32,193.14l-4.65-2.28s-1.38-3.06-1.48-3.01-8.9-1.81-8.9-1.81c0,0-.1,5.2.89,6.3s7.02,1.62,7.32,1.81c.3.19.99-.43.99-.43l4.94,3.25.89-3.81Z"/>
      <path class="cls-1" d="M277.12,154.02s-1.93-4.45-8.16-4.45-11.42,3.71-11.13,8.46-3.26,4.3-3.86,8.9,1.63,5.79,1.78,7.71c.15,1.93-2.37,1.34-4.01,4.6-1.63,3.26-3.71,7.86,3.26,13.94,6.97,6.08,26.7,5.04,31,1.34,4.3-3.71,4.15-10.83,0-12.76-4.15-1.93-.3-1.63.15-5.93.44-4.3-3.41-5.93-3.12-9.35s1.34-12.16-5.93-12.46Z"/>
      <g>
        <path class="cls-14" d="M252.91,182.89v12.23s-1.05,1.31-2.62,2.99c-1.48,1.59-3.45,3.51-5.42,4.94-1.88,1.36-3.76,2.29-5.3,2.09-4.84-.62-17.9-8.13-17.9-8.13l2.17-5.77s14.83,7.63,15.73,6.84c.89-.79,10.64-14.5,13.33-15.2Z"/>
        <path class="cls-16" d="M250.29,198.11c-1.48,1.59-3.45,3.51-5.42,4.94-.71-5.46,5.56-12.19,5.56-12.19,0,0,.09,3.5-.14,7.25Z"/>
      </g>
      <path class="cls-8" d="M254.63,227.19s-8.13,43.32-10.3,61.11c-2.83,23.2-14.42,57.15-14.42,57.15l4.63,1.2s16.34-28.85,19.52-54.8c12.98-26.53,14.02-59.19,14.02-59.19l-13.46-5.46Z"/>
      <path class="cls-1" d="M221.28,355.95c.75-.34,1.56-.55,2.38-.6h0s2.85-1.68,5.67-8.19l3.17-.02c1.1.01,2.07.71,2.44,1.75.05.14.08.29.09.44-.03.77-.11,1.53-.24,2.29-.29,2.37-1.86,7.47-1.86,7.47l-.54-.14.98-4.74c.33-1.61-1.37-.05-2.15,1.57-.78,1.62-1.99,3.26-5.49,2.45-4.09-.96-5.73-1.54-4.45-2.28Z"/>
      <path class="cls-8" d="M263.07,226.5s1.01,44.07,2.57,61.92c2.03,23.29-2.29,58.9-2.29,58.9l4.78.21s10.02-31.6,7.76-57.65c7.21-28.64,1.48-60.81,1.48-60.81l-14.3-2.56Z"/>
      <path class="cls-1" d="M255.9,357.4c.71-.42,1.49-.72,2.3-.86h0s2.65-1.97,4.75-8.76l3.15-.36c1.09-.11,2.14.48,2.61,1.47.07.13.11.28.14.43.05.77.05,1.53,0,2.3-.03,2.39-1.04,7.63-1.04,7.63l-.55-.08.46-4.82c.15-1.64-1.36.09-1.97,1.79-.6,1.7-1.62,3.45-5.2,3.03-4.16-.51-5.87-.92-4.67-1.78Z"/>
      <path class="cls-8" d="M229.91,345.45s-3.96,8.3-6.25,9.9c0,0,3.06,1.82,6.25-2.24,4.12-5.25,5.13-3.79,5.13-3.79,0,0-.17-1.8-.5-2.68-.62-1.69-4.63-1.2-4.63-1.2Z"/>
      <path class="cls-8" d="M263.83,345.38s-1.12,3.07-2.62,6.45c-1.5,3.38-3,4.72-3,4.72,0,0,2.61.85,4.01-.79s3.81-7.53,6.51-6.86c0,0-.2-.7-.6-1.37-.4-.67-4.29-2.15-4.29-2.15Z"/>
      <g>
        <path class="cls-14" d="M251.84,219.96s-3.22,32.07-8,64.22c-4.35,29.27-12.86,54-12.86,54l9.49.79s18.2-45.1,23.74-71.21c0,0,1.98,46.28-1.19,72l8.31-.4s20.27-87.1,5.14-118.48l-24.64-.93Z"/>
        <path class="cls-23" d="M271.34,339.37l-8.31.39c3.16-25.71,1.19-72,1.19-72-1.4,6.59-3.61,14.38-6.12,22.36-7.45,23.63-17.62,48.85-17.62,48.85l-9.49-.8s8.5-24.72,12.85-54c4.78-32.15,8-64.22,8-64.22l24.64.93c15.13,31.37-5.14,118.48-5.14,118.48Z"/>
        <path class="cls-16" d="M264.22,267.76c-1.4,6.59-3.61,14.38-6.12,22.36-.96-15.01,2.86-41.95,2.86-41.95l3.26,19.58Z"/>
      </g>
      <g>
        <polygon class="cls-1" points="276.43 219.33 276.5 222.95 251.71 221.52 251.63 217.24 276.43 219.33"/>
        <rect class="cls-24" x="257.22" y="218.2" width="5.43" height="4.12" transform="translate(503.73 458.27) rotate(-175.97)"/>
        <g>
          <rect class="cls-14" x="267.99" y="217.98" width="1.23" height="6.26" transform="translate(529.97 450.75) rotate(-178.16)"/>
          <rect class="cls-23" x="267.99" y="217.98" width="1.23" height="6.26" transform="translate(529.97 450.75) rotate(-178.16)"/>
        </g>
        <g>
          <rect class="cls-14" x="252.84" y="216.61" width="1.23" height="6.26" transform="translate(499.74 447.49) rotate(-178.16)"/>
          <rect class="cls-23" x="252.84" y="216.61" width="1.23" height="6.26" transform="translate(499.74 447.49) rotate(-178.16)"/>
        </g>
      </g>
      <g>
        <path class="cls-1" d="M251.68,217.7l24.74,1.63c.39-6.15.83-8.04,2.69-15.37.59-2.37,1.34-5.02,2.29-8.08.51-1.64,1.07-3.39,1.7-5.28.47-1.43.98-2.95,1.55-4.56-3.37-1.07-6.79-1.91-10.27-2.48-3.67-.65-7.39-1.04-11.11-1.17-4.81-.04-10.35.5-10.35.5,0,0-.79.19-1.28,5.29-.45,4.79-.93,12.08.06,29.51Z"/>
        <path class="cls-23" d="M251.68,217.7l24.74,1.63c.39-6.15.83-8.04,2.69-15.37.59-2.37,1.34-5.02,2.29-8.08.51-1.64,1.07-3.39,1.7-5.28.47-1.43.98-2.95,1.55-4.56-3.37-1.07-6.79-1.91-10.27-2.48-3.67-.65-7.39-1.04-11.11-1.17-4.81-.04-10.35.5-10.35.5,0,0-.79.19-1.28,5.29-.45,4.79-.93,12.08.06,29.51Z"/>
      </g>
      <path class="cls-8" d="M265.3,187.85c6.1-.78,7.93-3.39,7.93-3.39-3.87-3.65-.65-9.98-.65-9.98l-7.34,1.37c.19,1.21.28,2.23.29,3.09.06,4.46-1.96,4.5-1.96,4.5-1.29,2.41,1.74,4.4,1.74,4.4Z"/>
      <path class="cls-16" d="M265.24,175.86c.19,1.21.28,2.23.29,3.09,4.96,0,7.06-4.46,7.06-4.46l-7.34,1.37Z"/>
      <g>
        <path class="cls-8" d="M269.3,155.32c-6.38-.35-8.63,2.96-9.45,9.51-1.03,8.19.47,14.13,8.55,12.81,10.97-1.79,11.51-21.74.91-22.32Z"/>
        <path class="cls-11" d="M263.99,164.7s-.98,1.62-2,2.55c0,0,.5.9,1.64.81l.36-3.36Z"/>
        <g>
          <path class="cls-1" d="M267.93,164.39c-.04.52.21.97.56,1,.35.03.67-.38.71-.9.04-.52-.21-.97-.56-1-.35-.03-.67.38-.71.9Z"/>
          <path class="cls-1" d="M268.78,163.53l-1.1-.54s.49,1,1.1.54Z"/>
        </g>
        <g>
          <path class="cls-1" d="M261.42,163.77c-.04.52.21.97.56,1,.35.03.67-.38.71-.9.04-.52-.21-.97-.56-1s-.67.38-.71.9Z"/>
          <path class="cls-1" d="M262.27,162.91l-1.1-.54s.49,1,1.1.54Z"/>
        </g>
        <path class="cls-29" d="M268.23,159.99s1.81-.14,2.72,1.12"/>
        <path class="cls-29" d="M263.61,159.46s-1.1-.48-2.57.39"/>
        <path class="cls-1" d="M264.42,170.62c.33.79.62,2.26.62,2.26.14,0,.28,0,.41-.02,1.87-.09,2.71-.74,3.07-1.45.2-.38.25-.79.25-1.12,0-.38-.08-.65-.08-.65-.96.64-2.7.85-3.63.93-.39.04-.64.04-.64.04Z"/>
        <path class="cls-24" d="M265.06,170.58l.2.66c1.76-.09,2.99-.38,3.51-.94,0-.38-.08-.65-.08-.65-.96.64-2.7.85-3.63.93Z"/>
        <path class="cls-2" d="M265.46,172.87c1.87-.09,2.71-.74,3.07-1.45-.64.05-1.4.19-2.06.51-.51.24-.81.59-1.01.94Z"/>
        <path class="cls-1" d="M275.68,166.47s-2.7-5.41-2.02-9.43c0,0-12.37-5.86-13.69,6.94,0,0-.61-11.47,10.38-11.12,10.97.35,10.06,16.4,4.13,20.87,0,0,2.88-3.88,1.21-7.26Z"/>
        <path class="cls-1" d="M276.33,154.72s-4.99-4.45-9.54-3.61c-4.55.84-3.76,6.82,2.23,9.1s7.22,5.19,7.22,5.19l5.19-4.65-5.09-6.03Z"/>
        <path class="cls-30" d="M265.45,152.98s-2.13.15-1.53,3.31c.59,3.16,5.09,4.76,9.35,6.24,4.25,1.48,3.91,3.16,3.91,3.16"/>
        <path class="cls-8" d="M274.57,167.76c.1-1.03,1.25-2.71,3.15-2.39,1.97.32,2.69,4.44-2.29,5.14-.71.1-1.07-.61-.87-2.75Z"/>
      </g>
      <path class="cls-8" d="M278.89,185.14s-7.16,5.81-13.83,5.72c-6.67-.09-9.01-7.59-9.01-7.59,0,0,10.34-3.06,22.84,1.88Z"/>
      <g>
        <path class="cls-14" d="M284.65,186.04l-3.22,38.62-6.91.58c-1.02-5.25-1.2-13.54-1.07-21.36h0c.18-10.61.93-20.32.93-20.32,3.84.41,10.27,2.48,10.27,2.48Z"/>
        <path class="cls-23" d="M275.48,193.25l1.87,2.86-3.9,7.75c.18-10.6.93-20.31.93-20.31l5.95,5.53-4.85,4.15Z"/>
      </g>
      <g>
        <path class="cls-14" d="M261.03,182.33h0c-.16.29-3.6,6.55-6.34,18.53-1.36,5.95-2.54,13.33-3.05,22.09l-2.64-1.22s-1.24-29.91,3.91-38.84l8.12-.56Z"/>
        <path class="cls-23" d="M261.03,182.33c-.16.28-3.6,6.54-6.34,18.52l-1.23-7.72,2.59-2.28-2.59-4.93,7.57-3.59Z"/>
      </g>
      <g>
        <path class="cls-14" d="M294.66,209.36c-.77,1.66-2.1,1.81-3.46,1.14-1.08-.53-2.19-1.6-3.06-2.85-.62-.89-1.45-2.23-2.31-3.65-1.83-3.07-3.73-6.47-3.73-6.47l2.56-11.49c3.68,1.76,11.39,20.35,10.01,23.32Z"/>
        <path class="cls-16" d="M291.2,210.5c-1.08-.53-2.19-1.6-3.06-2.85-.62-.89-1.45-2.23-2.31-3.65,1.05-1.93,2.17-3.45,2.17-3.45l1.86,5.23s3.26.74,3.78,2.45c.19.64-.92,1.56-2.44,2.28Z"/>
      </g>
      <g>
        <path class="cls-1" d="M291.09,195.56l-6.16,23.48c-.14.55-.72.94-1.29.86l-16.35-2.18c-.57-.08-.91-.59-.76-1.14l6.16-23.48c.14-.55.72-.94,1.29-.86l16.35,2.18c.57.08.91.59.76,1.14Z"/>
        <path class="cls-28" d="M291.09,195.56l-6.16,23.48c-.14.55-.72.94-1.29.86l-15.6-2.08c-.57-.08-.91-.59-.76-1.14l6.16-23.48c.14-.55.72-.94,1.29-.86l15.6,2.08c.57.08.91.59.76,1.14Z"/>
        <path class="cls-7" d="M279.74,204.52c-.81-.11-1.64.45-1.85,1.24-.21.79.28,1.52,1.09,1.63.81.11,1.64-.45,1.85-1.24-.81-.11-1.3-.84-1.09-1.63Z"/>
      </g>
      <g>
        <path class="cls-14" d="M292.41,214.9c-1.1.58-3.58-.3-4.34-.6-.15-.05-.23-.09-.23-.09,0,0-1.36-4.42,2.18-6.82.02-.01.05-.04.08-.05,1.12-.61,4.61.17,4.72,1.35.42,4.72-1.09,5.51-2.4,6.2Z"/>
        <path class="cls-16" d="M290.26,211.12c-.43,1.6-1.37,2.59-2.19,3.18-.15-.05-.23-.09-.23-.09,0,0-1.36-4.42,2.18-6.82.02-.01.05-.04.08-.05.31.4.79,1.45.17,3.77Z"/>
      </g>
      <path class="cls-8" d="M285.17,205.51s2.27-.1,3.31,0c1.04.1.72,3.45.72,3.45l.89.48s.73,1.97-.83,2.96l-.8-.27s-.23.79-.87,1.19c-.64.4-3.81-.49-3.81-.49l1.38-7.32Z"/>
    </g>
  </g>
  <g id="Table">
    <g>
      <g>
        <g>
          <path class="cls-1" d="M192.96,238.41h-32.13l5.33-21.08c.12-.46.6-.83,1.09-.83h30.37c.48,0,.78.37.67.83l-5.33,21.08Z"/>
          <polygon class="cls-14" points="192.72 236.65 161.96 236.65 166.64 218.16 197.4 218.16 192.72 236.65"/>
          <polygon class="cls-26" points="192.72 236.65 161.96 236.65 166.64 218.16 197.4 218.16 192.72 236.65"/>
        </g>
        <path class="cls-1" d="M178.96,237.74h-32.17v1.34c0,.57.46,1.04,1.04,1.04h44.09c.57,0,1.04-.46,1.04-1.04v-1.34h-14Z"/>
        <path class="cls-26" d="M178.96,237.74h-32.17v1.34c0,.57.46,1.04,1.04,1.04h44.09c.57,0,1.04-.46,1.04-1.04v-1.34h-14Z"/>
        <path class="cls-10" d="M163.9,237.74v.46h-5.6v-.46h-11.5v1.34c0,.57.46,1.04,1.04,1.04h30.09c.57,0,1.04-.46,1.04-1.04v-1.34h-15.06Z"/>
        <g>
          <polygon class="cls-26" points="180.7 229.07 165.96 229.07 168.1 220.62 182.84 220.62 180.7 229.07"/>
          <polygon class="cls-14" points="182.71 221.11 167.98 221.11 168.1 220.62 182.84 220.62 182.71 221.11"/>
        </g>
        <g>
          <polygon class="cls-9" points="191.94 235.33 171.44 235.33 174.41 223.57 194.92 223.57 191.94 235.33"/>
          <polygon class="cls-14" points="194.74 224.26 174.24 224.26 174.41 223.57 194.92 223.57 194.74 224.26"/>
        </g>
      </g>
      <g>
        <g>
          <polygon class="cls-1" points="400.9 362.36 396.23 362.36 387.84 245.57 394.03 245.57 400.9 362.36"/>
          <polygon class="cls-21" points="400.9 362.36 396.23 362.36 388.25 251.37 387.84 245.76 394.03 245.76 394.37 251.37 400.9 362.36"/>
          <polygon class="cls-16" points="394.37 251.1 388.25 251.1 387.84 245.76 394.03 245.76 394.37 251.1"/>
        </g>
        <g>
          <polygon class="cls-1" points="269.88 362.36 265.21 362.36 272.07 245.57 278.26 245.57 269.88 362.36"/>
          <polygon class="cls-21" points="278.26 245.76 277.85 251.37 269.87 362.36 265.21 362.36 271.73 251.37 272.07 245.76 278.26 245.76"/>
          <polygon class="cls-16" points="272.07 245.76 278.26 245.76 277.85 251.1 271.73 251.1 272.07 245.76"/>
        </g>
        <g>
          <polygon class="cls-1" points="213.19 362.36 208.52 362.36 200.13 245.57 206.32 245.57 213.19 362.36"/>
          <polygon class="cls-21" points="213.19 362.36 208.52 362.36 200.54 251.37 200.13 245.76 206.32 245.76 206.66 251.37 213.19 362.36"/>
          <polygon class="cls-16" points="206.66 251.1 200.54 251.1 200.13 245.76 206.32 245.76 206.66 251.1"/>
        </g>
        <g>
          <polygon class="cls-1" points="92.17 362.36 87.5 362.36 94.36 245.57 100.56 245.57 92.17 362.36"/>
          <polygon class="cls-21" points="100.55 245.76 100.14 251.37 92.16 362.36 87.5 362.36 94.02 251.37 94.36 245.76 100.55 245.76"/>
          <polygon class="cls-16" points="94.36 245.76 100.55 245.76 100.14 251.1 94.02 251.1 94.36 245.76"/>
        </g>
        <g>
          <path class="cls-14" d="M89.45,242.65h309.49v4.15c0,.94-.76,1.7-1.7,1.7H91.16c-.94,0-1.7-.76-1.7-1.7v-4.15h0Z"/>
          <path class="cls-26" d="M89.45,242.65h309.49v4.15c0,.94-.76,1.7-1.7,1.7H91.16c-.94,0-1.7-.76-1.7-1.7v-4.15h0Z"/>
        </g>
        <rect class="cls-16" x="89.45" y="242.65" width="309.49" height="2.92"/>
        <g>
          <path class="cls-14" d="M401.84,243.41H86.56c-.91,0-1.65-.74-1.65-1.65h0c0-.91.74-1.65,1.65-1.65h315.28c.91,0,1.65.74,1.65,1.65h0c0,.91-.74,1.65-1.65,1.65Z"/>
          <path class="cls-26" d="M401.84,243.41H86.56c-.91,0-1.65-.74-1.65-1.65h0c0-.91.74-1.65,1.65-1.65h315.28c.91,0,1.65.74,1.65,1.65h0c0,.91-.74,1.65-1.65,1.65Z"/>
        </g>
      </g>
      <g>
        <g>
          <path class="cls-1" d="M298.16,238.41h32.13l-5.33-21.08c-.12-.46-.6-.83-1.09-.83h-30.37c-.48,0-.78.37-.67.83l5.33,21.08Z"/>
          <polygon class="cls-14" points="298.4 236.65 329.16 236.65 324.48 218.16 293.72 218.16 298.4 236.65"/>
          <polygon class="cls-26" points="298.4 236.65 329.16 236.65 324.48 218.16 293.72 218.16 298.4 236.65"/>
        </g>
        <path class="cls-1" d="M312.16,237.74h32.17v1.34c0,.57-.46,1.04-1.04,1.04h-44.09c-.57,0-1.04-.46-1.04-1.04v-1.34h14Z"/>
        <path class="cls-26" d="M312.16,237.74h32.17v1.34c0,.57-.46,1.04-1.04,1.04h-44.09c-.57,0-1.04-.46-1.04-1.04v-1.34h14Z"/>
        <path class="cls-10" d="M327.22,237.74v.46h5.6v-.46h11.5v1.34c0,.57-.46,1.04-1.04,1.04h-30.09c-.57,0-1.04-.46-1.04-1.04v-1.34h15.06Z"/>
        <g>
          <polygon class="cls-9" points="299.75 235.3 327.35 235.3 323.34 219.46 295.74 219.46 299.75 235.3"/>
          <polygon class="cls-14" points="295.98 220.39 323.58 220.39 323.34 219.46 295.74 219.46 295.98 220.39"/>
        </g>
      </g>
    </g>
  </g>
  <g id="Character_3" data-name="Character 3">
    <g>
      <g id="_Group_" data-name="&amp;lt;Group&amp;gt;">
        <path class="cls-1" d="M368.46,354.04l7.89-.49c.27-.03.52.17.55.44,0,0,0,0,0,0l.77,6.22c.04.68-.47,1.27-1.15,1.32-2.75.13-4.08.05-7.55.24-2.13.13-6.33.58-9.27.3-2.94-.28-2.58-3.18-1.31-3.32,3.01-.34,7-2.55,8.88-4.23.33-.29.75-.46,1.18-.48Z"/>
        <path class="cls-1" d="M328.28,354.04l7.89-.49c.27-.03.52.17.55.44,0,0,0,0,0,0l.77,6.22c.04.68-.47,1.27-1.15,1.32-2.75.13-4.08.05-7.55.24-2.13.13-6.33.58-9.27.3s-2.58-3.18-1.31-3.32c3.01-.34,7-2.55,8.88-4.23.33-.29.75-.46,1.18-.48Z"/>
        <path class="cls-8" d="M357.89,235.12l-6.48.97s-2.2-.73-4.52-.97c-2.32-.24-5.01,0-5.01,0,0,0-2.93,1.1-2.93,3.91,0,0,6.84,1.83,9.47.73l9.47-.73v-3.91Z"/>
        <g>
          <path class="cls-14" d="M373.26,210.42c-4.03,4.17-6.78,20.3-7.51,21.4-.73,1.1-14.66,3.12-14.66,3.12,0,0-1.47,3.05,0,5.56,0,0,17.26-.79,19.36-1.89,2.09-1.1,7.23-13.14,7.23-13.14,0,0,.49-3.17-.68-8.3-1.16-5.13-3.73-6.73-3.73-6.73Z"/>
          <path class="cls-6" d="M373.26,210.42c-4.03,4.17-6.78,20.3-7.51,21.4-.73,1.1-14.66,3.12-14.66,3.12,0,0-1.47,3.05,0,5.56,0,0,17.26-.79,19.36-1.89,2.09-1.1,7.23-13.14,7.23-13.14,0,0,.49-3.17-.68-8.3-1.16-5.13-3.73-6.73-3.73-6.73Z"/>
        </g>
        <g>
          <path class="cls-11" d="M342.64,188.21s-.86,2.37-1.97,3.84c0,0,.88,1.05,2.36.65l-.39-4.49Z"/>
          <path class="cls-15" d="M341.55,187.06c.08.7.52,1.22.99,1.16.46-.05.78-.66.69-1.36-.08-.7-.52-1.22-.98-1.16-.46.05-.78.66-.7,1.36Z"/>
          <path class="cls-29" d="M341.72,184.29s.51-.14,1.13.4"/>
          <path class="cls-8" d="M344.47,196.05c.17.31.34.6.53.88,1.13,1.68,2.71,2.91,4.46,3.6.46.19.93.33,1.41.45,2.53.59,5.25.13,7.39-1.52.88-.66,1.67-1.55,2.3-2.63,2.52-4.27,1.43-8.18.13-14.95-.26-1.46-.85-2.84-1.74-4.02-3.11-4.17-9.02-5.02-13.18-1.91-5.87,4.32-4.26,14.47-1.29,20.11Z"/>
          <path class="cls-16" d="M349.46,200.53c.46.19.93.33,1.41.45,2.53.59,5.25.13,7.39-1.52-.8-1.17-1.76-1.96-1.76-1.96,0,0-4.14.39-7.04,3.04Z"/>
          <path class="cls-8" d="M368.86,205.22c-2.53,3.82-14.65,5.32-14.65,5.32,0,0-5.37-.11-4.71-1.94,2.84-1.24,3.92-2.98,4.07-4.9.08-1.12-.16-2.29-.55-3.46-.2-.62-.46-1.23-.73-1.82l8.09-9.88c-2.11,10.92,4.38,13.97,8.49,16.69Z"/>
          <path class="cls-1" d="M342.61,175.54c2.29-3.6,4.33-2.97,4.33-2.97,1.46-3.02,10.05-3.14,14.41-.17,4.36,2.97,5.88,8.53,5.59,12.95-.42,6.43-4.45,12.97-4.45,12.97,0,0,0,0,0,0-5.07,1.35-9.33.24-9.65-2.45-.33-2.69-3.04-4.68-3.04-4.68-2.5.84-4.76-1.94-4.76-1.94,0,0-2.83-2.5-2.07-5.96.76-3.46-2.28-4.73-.35-7.77Z"/>
          <path class="cls-8" d="M350.69,189.43c-.03,1.55-.56,2.82-1.47,3.52-1.21.92-2.59-.77-2.9-2.82-.26-1.82.02-4.56,1.56-4.6,1.54-.04,2.83,1.98,2.81,3.9Z"/>
          <path class="cls-1" d="M346.26,189.54s.69,5.83,2.26,8.15c1.57,2.32,1.38,3.11,3.53,3.48,0,0-1.21,1.61-2.3,1.38-1.09-.23-.84-1.15-1.81-1.14-.96.02-2.63-.65-2.45-1.65s.36-1.27-.91-2.13c-1.27-.86-1.72-2.8-1.03-3.61.69-.81,2-.56,2-.56l-.1-4.34.82.42Z"/>
        </g>
        <g>
          <path class="cls-14" d="M351.68,208.6s1.96-8.79,13.75-8.7l2.99,4.35-16.74,4.35Z"/>
          <path class="cls-4" d="M351.68,208.6s1.96-8.79,13.75-8.7l2.99,4.35-16.74,4.35Z"/>
        </g>
        <path class="cls-14" d="M353.65,317.35c4.47,16.98,11.51,38.88,11.51,38.88l12.36-.94s-6.71-29.55-8.55-47.69c-1.14-11.2-1.04-20.46,2.24-21.18,2.06-.45,6.89-.44,13.08-.29v-23.05c-17.36,3.56-34.63,10.29-35.94,15.68-1.84,7.59,1.37,23.66,5.31,38.6Z"/>
        <path class="cls-16" d="M353.65,317.35c4.62-2.92,10.02-6.36,15.32-9.76-1.14-11.2-1.04-20.46,2.24-21.18,2.06-.45,6.89-.44,13.08-.29v-23.05c-17.36,3.56-34.63,10.29-35.94,15.68-1.84,7.59,1.37,23.66,5.31,38.6Z"/>
        <g>
          <path class="cls-14" d="M360.72,256.21l-2.94-8.88s-2.11-16.45-12.84-37.17c0,0,12.91-9.17,27.22-7.8,11.01,1.05,21.37,29.28,24.61,51.62l-36.05,2.22Z"/>
          <path class="cls-22" d="M396.77,253.98l-36.05,2.23-2.95-8.88s-.36-2.81-1.54-7.58c-.82-3.27-2.02-7.48-3.77-12.33-1.84-5.13-4.29-11-7.53-17.26,0,0,12.91-9.16,27.22-7.8,11.02,1.05,21.38,29.27,24.62,51.62Z"/>
        </g>
        <path class="cls-14" d="M360.42,260.8l-1.09-8.75,35.37-5.82s11.57,22.92,5.91,34.16c-5.19,10.31-60.48,4.17-68.99,6.03-8.6,1.88,5.79,68.72,5.79,68.72l-12.36.94s-20.22-61.12-16.29-77.33c1.71-7.07,30.86-16.43,51.66-17.95Z"/>
        <g>
          <polygon class="cls-3" points="396 250.21 379.61 252.36 379.08 249.94 395.5 247.55 396 250.21"/>
          <polygon class="cls-3" points="377.71 249.96 377.91 252.36 362.76 254.44 362.76 252.07 377.71 249.96"/>
          <polygon class="cls-3" points="361.82 252.2 361.82 254.44 359.63 254.74 359.63 252.57 361.82 252.2"/>
        </g>
        <path class="cls-16" d="M356.23,240.53c-.82-3.12-2.02-7.13-3.77-11.75.63-1.3,1.49-2.45,2.59-3.32,0,0,3.39,11.03,1.18,15.07Z"/>
        <path class="cls-8" d="M327.58,237.6l-5.46-.88s-2.2-.73-4.52-.97c-2.32-.24-5.01,0-5.01,0,0,0-2.93,1.1-2.93,3.91,0,0,6.84,1.83,9.47.73l8.05,1.82.4-4.62Z"/>
        <path class="cls-14" d="M344.93,210.42c-2.55,2.8-1.06,25.7-1.89,27.27-.83,1.57-19.91-1.6-19.91-1.6l-1.26,5.67s22.43,6.59,26.54,6.67,6.62-24.19,6.62-24.19c0,0-.57-3.38-3.58-7.68-3.01-4.31-6.53-6.13-6.53-6.13Z"/>
        <path class="cls-22" d="M344.93,210.42c-2.55,2.8-1.06,25.7-1.89,27.27-.83,1.57-19.91-1.6-19.91-1.6l-1.26,5.67s22.43,6.59,26.54,6.67,6.62-24.19,6.62-24.19c0,0-.57-3.38-3.58-7.68-3.01-4.31-6.53-6.13-6.53-6.13Z"/>
      </g>
      <g>
        <path class="cls-14" d="M340.68,279.05h70.07v4.46c0,3.75-3.04,6.79-6.79,6.79h-56.48c-3.75,0-6.79-3.04-6.79-6.79v-4.46h0Z" transform="translate(751.42 569.35) rotate(180)"/>
        <path class="cls-23" d="M340.68,279.05h70.07v4.46c0,3.75-3.04,6.79-6.79,6.79h-56.48c-3.75,0-6.79-3.04-6.79-6.79v-4.46h0Z" transform="translate(751.42 569.35) rotate(180)"/>
        <path class="cls-1" d="M387.76,251.19h-38.58c-1.98,0-3.45,2.15-3.01,4.4l6.9,34.71h1.59l-5.88-30.42c-.43-2.25,1.03-4.38,3.01-4.38h35.17l.79-4.31Z"/>
        <path class="cls-1" d="M371.21,291.52v29.33c0,.95.77,1.7,1.71,1.7h7.19c.95,0,1.71-.76,1.71-1.7v-29.33h-10.6Z"/>
        <g>
          <g>
            <circle class="cls-1" cx="414.02" cy="359.24" r="3.12"/>
            <path class="cls-20" d="M412.46,359.24c0-.86.7-1.56,1.56-1.56s1.56.7,1.56,1.56-.7,1.56-1.56,1.56-1.56-.7-1.56-1.56Z"/>
          </g>
          <g>
            <path class="cls-1" d="M335.89,359.24c0-1.72,1.4-3.12,3.12-3.12s3.12,1.4,3.12,3.12-1.4,3.12-3.12,3.12-3.12-1.4-3.12-3.12Z"/>
            <path class="cls-20" d="M337.45,359.24c0-.86.7-1.56,1.56-1.56s1.56.7,1.56,1.56-.7,1.56-1.56,1.56-1.56-.7-1.56-1.56Z"/>
          </g>
        </g>
        <path class="cls-1" d="M373.93,345.57v-33.52h5.16v33.52c20.08.51,32.28,7.53,34.72,9.07.28.18.45.49.45.83v2.79c0,.54-.44.99-.99.99h0c-.35,0-.68-.19-.86-.5l-1.19-2.09s-13.81-4.92-32.14-5.32v5.51c0,.7-.57,1.28-1.27,1.28h-2.61c-.7,0-1.28-.57-1.28-1.28v-5.51c-18.33.4-32.14,5.32-32.14,5.32l-1.19,2.09c-.18.31-.5.5-.86.5h0c-.54,0-.99-.44-.99-.99v-2.79c0-.34.17-.65.45-.83,2.44-1.54,14.64-8.56,34.72-9.07Z"/>
        <rect class="cls-1" x="374.82" y="356.13" width="3.38" height="6.23" transform="translate(753.03 718.48) rotate(180)"/>
        <rect class="cls-16" x="371.21" y="291.52" width="10.6" height="12.19"/>
        <path class="cls-1" d="M338.76,288.5v3.5c0,.99.69,1.79,1.54,1.79h70.82c.85,0,1.54-.8,1.54-1.79v-3.5c0-.98-.68-1.79-1.54-1.79h-70.82c-.85,0-1.54.81-1.54,1.79Z"/>
        <path class="cls-1" d="M371.34,290.3h41.31s13.13-21.56,13.13-57.18v-13.08c0-5.37-4.42-9.73-9.87-9.73h-17.52c-5.34,0-9.71,4.19-9.86,9.46-.51,18.35-3.25,58.1-17.2,70.54Z"/>
        <path class="cls-20" d="M380.43,290.3h30.36c1.17,0,2.25-.64,2.79-1.67,2.99-5.69,12.2-25.67,12.2-55.51v-13.08c0-5.38-4.41-9.73-9.86-9.73h-15.14c-5.34,0-9.71,4.19-9.86,9.46-.45,16.4-2.69,49.87-13.11,65.69-1.38,2.09.09,4.85,2.61,4.85Z"/>
        <path class="cls-16" d="M338.76,288.5v3.5c0,.99.69,1.79,1.54,1.79h31.74c1.15,0,2.08-1.08,2.08-2.42v-2.24c0-1.34-.93-2.42-2.08-2.42h-31.73c-.85,0-1.54.81-1.54,1.79Z"/>
      </g>
    </g>
  </g>
  <g id="Character_1" data-name="Character 1">
    <g>
      <g id="_Group_-2" data-name="&amp;lt;Group&amp;gt;">
        <g>
          <path class="cls-5" d="M150.11,213.68l-3.03.72-.7-2.44s-.9.6-2.14,0c-.34-.16-.81-.45-1.33-.79-1.35-.89-2.95-2.11-2.95-2.11l2.34-4.77s1.02.41,2.27.96c1.76.79,3.97,1.84,4.36,2.4.66.95.33,2.72.33,2.72l.85,3.31Z"/>
          <path class="cls-16" d="M142.91,211.17c-1.35-.89-2.95-2.11-2.95-2.11l2.34-4.77s1.02.41,2.27.96c.11,1.4,0,3.85-1.66,5.92Z"/>
        </g>
        <polygon class="cls-5" points="191.96 323.83 186.95 325.8 183.34 319 180.06 312.81 185.62 309.48 188.98 317.07 191.96 323.83"/>
        <polygon class="cls-16" points="188.98 317.07 183.34 319 180.06 312.81 185.62 309.48 188.98 317.07"/>
        <g>
          <path class="cls-1" d="M187.94,313.36l-6.83,3.66s-25.79-45.35-29.76-44.97c-3.97.38-41.59,24.36-53.07,15.5-11.47-8.85-.31-35.52-.31-35.52,0,0,23.74-6.78,26.31-1.57.5,1.01,1.17,3.03,1.7,4.77.51,1.63.89,3.01.89,3.01,0,0,0,0,.01-.01.72-.29,24.17-9.91,34.63-4.75,10.63,5.24,26.41,59.88,26.41,59.88Z"/>
          <path class="cls-27" d="M187.94,313.36l-6.83,3.66s-25.79-45.35-29.76-44.97c-3.97.38-41.59,24.36-53.07,15.5-11.47-8.85-.31-35.52-.31-35.52,0,0,23.74-6.78,26.31-1.57.5,1.01,1.17,3.03,1.7,4.77.51,1.63.89,3.01.89,3.01,0,0,0,0,.01-.01.72-.29,24.17-9.91,34.63-4.75,10.63,5.24,26.41,59.88,26.41,59.88Z"/>
        </g>
        <polygon class="cls-5" points="150.86 350.34 145.51 349.73 145.48 342.18 145.47 335.25 151.94 334.94 151.37 343.1 150.86 350.34"/>
        <polygon class="cls-16" points="151.35 343.26 145.46 342.32 145.46 335.32 151.94 334.98 151.35 343.26"/>
        <polygon class="cls-14" points="177.77 314.77 187.76 309.77 188.8 314 181.24 317.9 177.77 314.77"/>
        <g>
          <path class="cls-1" d="M116.01,287.63s1.65-.19,26.88-4.86c0,0,.57,32.27,1.77,56.32l7.77.25s11.15-53.39,9.84-61.45-10.9-9.15-10.9-9.15c0,0-16.66,12.94-35.35,18.89Z"/>
          <path class="cls-23" d="M116.01,287.63s1.65-.19,26.88-4.86c0,0,.57,32.27,1.77,56.32l7.77.25s11.15-53.39,9.84-61.45-10.9-9.15-10.9-9.15c0,0-16.66,12.94-35.35,18.89Z"/>
          <path class="cls-19" d="M116.01,287.63s1.65-.19,26.88-4.86c0,0,.57,32.27,1.77,56.32l7.77.25s11.15-53.39,9.84-61.45-10.9-9.15-10.9-9.15c0,0-16.66,12.94-35.35,18.89Z"/>
        </g>
        <polygon class="cls-14" points="143.23 336.94 153.83 336.69 152.38 341.06 143.78 341.14 143.23 336.94"/>
        <path class="cls-1" d="M201.94,332.73c-.84-.25-1.72-.35-2.59-.29h0s-3.24-1.35-7.15-7.79l-3.34.44c-1.15.17-2.08,1.05-2.31,2.19-.03.16-.04.32-.03.48.14.8.34,1.59.59,2.37.64,2.46,3.03,7.59,3.03,7.59l.55-.22-1.71-4.84c-.57-1.65,1.43-.26,2.49,1.34,1.06,1.59,2.56,3.14,6.13,1.79,4.16-1.6,5.81-2.45,4.35-3.04Z"/>
        <path class="cls-5" d="M191.34,322.93s5.37,8.15,8,9.51c0,0-2.95,2.36-6.89-1.45-5.09-4.93-5.94-3.24-5.94-3.24,0,0-.08-1.92.13-2.89.41-1.87,4.7-1.93,4.7-1.93Z"/>
        <path class="cls-1" d="M158.87,359.83c-.75-.45-1.58-.75-2.45-.9h0s-2.83-2.08-5.1-9.27l-3.35-.37c-1.16-.11-2.27.52-2.77,1.58-.07.14-.12.3-.14.45-.05.81-.05,1.63,0,2.44.04,2.54,1.15,8.09,1.15,8.09l.58-.09-.52-5.11c-.17-1.74,1.45.09,2.1,1.89.65,1.8,1.74,3.66,5.53,3.19,4.42-.56,6.22-1.01,4.95-1.92Z"/>
        <path class="cls-5" d="M150.9,347.8s3.28,9.19,5.52,11.13c0,0-3.43,1.59-6.35-3.04-3.78-6-5-4.56-5-4.56,0,0,.38-1.88.82-2.77.84-1.72,5.02-.76,5.02-.76Z"/>
        <g>
          <path class="cls-31" d="M144.76,194.31s-1.85-.05-2.71,1.27"/>
          <path class="cls-2" d="M143.95,198.71s1.08,1.6,2.17,2.5c0,0-.46.94-1.63.91l-.53-3.41Z"/>
          <g>
            <path class="cls-1" d="M144.89,196.82c.07.53-.16,1-.52,1.04-.35.05-.7-.35-.76-.88-.07-.53.16-1,.52-1.04.35-.05.7.35.76.88Z"/>
            <path class="cls-1" d="M143.98,195.98l1.1-.6s-.45,1.05-1.1.6Z"/>
          </g>
          <path class="cls-5" d="M131.08,209.56c.07.05.14.11.22.14,1.02.65,2.19,1.27,3.49,1.5,3.65.66,6.09.04,7.61-1.67h0c2.13-2.56,2.48-6.92,1.91-12.13-.26-2.39-.7-4.46-1.44-6.05,0-.02-.01-.08-.02-.09-.04-.06-.06-.15-.1-.22-1.1-2.22-2.81-3.61-5.46-4.1-.92-.17-1.95-.24-3.11-.2-10.2.39-11.21,17.37-3.11,22.81Z"/>
          <path class="cls-16" d="M131.3,209.71c1.02.65,2.18,1.13,3.48,1.36,3.65.66,6.08-.08,7.61-1.81-1.75.48-4.13.74-6.49-.21-1.49-.6-3.1-.18-4.6.67Z"/>
          <path class="cls-1" d="M142.88,191.29s.91,7.12-5.72,10.53c0,0-2.55,7.57-6.83,7.88-5.83.43-11.39-7.63-9.78-16.19,2.09-11.1,18.67-12.81,22.32-2.22Z"/>
          <path class="cls-5" d="M140.5,199.59c-.06-1.12-1.05-2.95-2.77-2.61-1.78.35-2.56,4.82,1.9,5.6.64.11.99-.66.87-2.99Z"/>
          <path class="cls-1" d="M130.06,184.29s6.74-2.06,10.64.5c4.56,2.99,6.39,6.22,1.43,11.62,0,0-11.64-3.15-15.4-2.18-3.77.97-6.44,2.22-6.44,2.22-1.17-7.53,5.89-13.51,9.77-12.15Z"/>
          <path class="cls-5" d="M136.46,210.51s-5.01,2.45-3.55,7.82l-12.75-5.31s6.97-.44,6.61-5.34c0,0,7.29-2.8,9.69,2.83Z"/>
          <path class="cls-1" d="M131.8,185.67s-3.8-10.96-12.44-9.07c-8.63,1.89-7.97,11.16-1.79,14.02,6.17,2.87,14.82,1.78,14.23-4.95Z"/>
          <path class="cls-1" d="M119.95,190.45s-7.62-.05-6.68,6.49c0,0,.66-2.12,2.37-2.99,0,0-2.31,1.77-.01,4.82,0,0-.92-1.99,2.23-3.38s11.77-1.26,10.17-5.52c-1.61-4.26-8.08.58-8.08.58Z"/>
          <path class="cls-31" d="M130.45,185.66s-1.84-13.34-12.6-10.65"/>
          <path class="cls-31" d="M126.17,205.3s-7.85-3.97-6.46-10.25"/>
          <path class="cls-31" d="M119.17,190.5s-6.88-.11-7.47,4.58"/>
        </g>
        <path class="cls-14" d="M121.04,212.66l3.11-2.24s10.24,1.39,10.34,7.91-13.45-5.67-13.45-5.67Z"/>
        <path class="cls-1" d="M119.17,212.66s7.68-1.48,18.36,5.67c0,0,3.58,15.64-11.54,36.91l-28.66-1.8s7.76-31.32,21.84-40.78Z"/>
        <path class="cls-19" d="M126.88,258.25l-9.75,4.9s3.23-5.4,8.87-7.91c.51,1.63.89,3.01.89,3.01Z"/>
        <path class="cls-21" d="M136.66,232.75c-.48,2.01-1.14,4.2-2.02,6.53-1.79,4.77-4.52,10.15-8.65,15.96l-28.66-1.8s7.76-31.32,21.84-40.78c0,0,7.67-1.47,18.36,5.67,0,0,1.26,5.51-.87,14.42Z"/>
        <path class="cls-16" d="M136.66,232.75c-.48,2.01-1.14,4.2-2.02,6.53-.31-3.41.06-7.08.06-7.08.74.08,1.39.27,1.96.55Z"/>
        <path class="cls-1" d="M137.53,218.33s8.43,12.12,10.61,13.28-2.01-18.95-2.01-18.95l4.07-.88s7.21,24.18,2.37,28.34-17.86-7.91-17.86-7.91c0,0-.46-4.75,0-8.31.46-3.56,2.83-5.56,2.83-5.56Z"/>
        <path class="cls-21" d="M137.53,218.33s8.43,12.12,10.61,13.28-2.01-18.95-2.01-18.95l4.07-.88s7.21,24.18,2.37,28.34-17.86-7.91-17.86-7.91c0,0-.46-4.75,0-8.31.46-3.56,2.83-5.56,2.83-5.56Z"/>
      </g>
      <g>
        <path class="cls-14" d="M81.39,279.05h56.48c3.75,0,6.79,3.04,6.79,6.79v4.46h-70.07v-4.46c0-3.75,3.04-6.79,6.79-6.79Z"/>
        <path class="cls-23" d="M81.39,279.05h56.48c3.75,0,6.79,3.04,6.79,6.79v4.46h-70.07v-4.46c0-3.75,3.04-6.79,6.79-6.79Z"/>
        <path class="cls-1" d="M97.58,251.19h38.58c1.98,0,3.45,2.15,3.01,4.4l-6.9,34.71h-1.59l5.88-30.42c.43-2.25-1.03-4.38-3.01-4.38h-35.17l-.79-4.31Z"/>
        <path class="cls-1" d="M114.13,291.52v29.33c0,.95-.77,1.7-1.71,1.7h-7.19c-.95,0-1.71-.76-1.71-1.7v-29.33h10.6Z"/>
        <g>
          <g>
            <path class="cls-1" d="M74.44,359.24c0-1.72-1.4-3.12-3.12-3.12s-3.12,1.4-3.12,3.12,1.4,3.12,3.12,3.12,3.12-1.4,3.12-3.12Z"/>
            <path class="cls-20" d="M72.88,359.24c0-.86-.7-1.56-1.56-1.56s-1.56.7-1.56,1.56.7,1.56,1.56,1.56,1.56-.7,1.56-1.56Z"/>
          </g>
          <g>
            <path class="cls-1" d="M149.45,359.24c0-1.72-1.4-3.12-3.12-3.12s-3.12,1.4-3.12,3.12,1.4,3.12,3.12,3.12,3.12-1.4,3.12-3.12Z"/>
            <circle class="cls-20" cx="146.33" cy="359.24" r="1.56"/>
          </g>
        </g>
        <path class="cls-1" d="M111.41,345.57v-33.52h-5.16v33.52c-20.08.51-32.28,7.53-34.72,9.07-.28.18-.45.49-.45.83v2.79c0,.54.44.99.99.99h0c.35,0,.68-.19.86-.5l1.19-2.09s13.81-4.92,32.14-5.32v5.51c0,.7.57,1.28,1.28,1.28h2.61c.7,0,1.27-.57,1.27-1.28v-5.51c18.33.4,32.14,5.32,32.14,5.32l1.19,2.09c.18.31.5.5.86.5h0c.54,0,.99-.44.99-.99v-2.79c0-.34-.17-.65-.45-.83-2.44-1.54-14.64-8.56-34.72-9.07Z"/>
        <rect class="cls-1" x="107.14" y="356.13" width="3.38" height="6.23"/>
        <rect class="cls-16" x="103.53" y="291.52" width="10.6" height="12.19"/>
        <path class="cls-1" d="M146.58,288.5v3.5c0,.99-.69,1.79-1.54,1.79h-70.82c-.85,0-1.54-.8-1.54-1.79v-3.5c0-.98.68-1.79,1.54-1.79h70.82c.85,0,1.54.81,1.54,1.79Z"/>
        <path class="cls-1" d="M114,290.3h-41.31s-13.13-21.56-13.13-57.18v-13.08c0-5.37,4.42-9.73,9.87-9.73h17.52c5.34,0,9.71,4.19,9.86,9.46.51,18.35,3.25,58.1,17.2,70.54Z"/>
        <path class="cls-20" d="M104.91,290.3h-30.36c-1.17,0-2.25-.64-2.79-1.67-2.99-5.69-12.2-25.67-12.2-55.51v-13.08c0-5.38,4.41-9.73,9.86-9.73h15.14c5.34,0,9.71,4.19,9.86,9.46.45,16.4,2.69,49.87,13.11,65.69,1.38,2.09-.09,4.85-2.61,4.85Z"/>
        <path class="cls-16" d="M146.58,288.5v3.5c0,.99-.69,1.79-1.54,1.79h-31.74c-1.15,0-2.08-1.08-2.08-2.42v-2.24c0-1.34.93-2.42,2.08-2.42h31.73c.85,0,1.54.81,1.54,1.79Z"/>
      </g>
    </g>
  </g>
</svg>