<?xml version="1.0" encoding="UTF-8"?>
<svg xmlns="http://www.w3.org/2000/svg" xmlns:xlink="http://www.w3.org/1999/xlink" viewBox="0 0 292.94 116.9">
  <defs>
    <style>
      .cls-1 {
        fill: url(#linear-gradient-17);
      }

      .cls-1, .cls-2, .cls-3, .cls-4, .cls-5, .cls-6, .cls-7, .cls-8, .cls-9, .cls-10, .cls-11, .cls-12, .cls-13, .cls-14, .cls-15, .cls-16, .cls-17, .cls-18, .cls-19, .cls-20 {
        stroke-width: 0px;
      }

      .cls-2 {
        fill: url(#linear-gradient-19);
      }

      .cls-3 {
        fill: url(#linear-gradient);
      }

      .cls-4 {
        fill: url(#linear-gradient-6);
      }

      .cls-21 {
        isolation: isolate;
      }

      .cls-5 {
        fill: #645ae9;
      }

      .cls-6 {
        fill: url(#linear-gradient-10);
        opacity: .78;
      }

      .cls-6, .cls-9, .cls-15, .cls-18, .cls-20 {
        mix-blend-mode: multiply;
      }

      .cls-7 {
        fill: url(#linear-gradient-15);
      }

      .cls-8 {
        fill: url(#linear-gradient-5);
      }

      .cls-9 {
        fill: url(#linear-gradient-12);
      }

      .cls-9, .cls-15, .cls-18, .cls-20 {
        opacity: .3;
      }

      .cls-10 {
        fill: url(#linear-gradient-13);
      }

      .cls-11 {
        fill: url(#linear-gradient-16);
      }

      .cls-12 {
        fill: url(#linear-gradient-14);
      }

      .cls-13 {
        fill: url(#linear-gradient-2);
      }

      .cls-14 {
        fill: url(#linear-gradient-7);
      }

      .cls-15 {
        fill: url(#linear-gradient-9);
      }

      .cls-16 {
        fill: url(#linear-gradient-3);
      }

      .cls-17 {
        fill: url(#linear-gradient-18);
      }

      .cls-18 {
        fill: url(#linear-gradient-11);
      }

      .cls-19 {
        fill: url(#linear-gradient-4);
      }

      .cls-20 {
        fill: url(#linear-gradient-8);
      }
    </style>
    <linearGradient id="linear-gradient" x1="1.46" y1="40.99" x2="36.81" y2="40.99" gradientTransform="translate(2.34 9.02) rotate(2.14)" gradientUnits="userSpaceOnUse">
      <stop offset="0" stop-color="#8e54e9"/>
      <stop offset="1" stop-color="#645ae9"/>
    </linearGradient>
    <linearGradient id="linear-gradient-2" x1="23.03" y1="58.18" x2="67.75" y2="14.56" gradientTransform="translate(2.34 9.02) rotate(2.14)" gradientUnits="userSpaceOnUse">
      <stop offset="0" stop-color="#8e54e9"/>
      <stop offset=".2" stop-color="#8c54e9"/>
      <stop offset=".27" stop-color="#8555e9"/>
      <stop offset=".32" stop-color="#7956e9"/>
      <stop offset=".36" stop-color="#6859e9"/>
      <stop offset=".37" stop-color="#645ae9"/>
    </linearGradient>
    <linearGradient id="linear-gradient-3" x1="39.23" y1="99.84" x2="95.28" y2="58.54" gradientUnits="userSpaceOnUse">
      <stop offset="0" stop-color="#e5a548"/>
      <stop offset=".65" stop-color="#e5cd48"/>
      <stop offset="1" stop-color="#e5e548"/>
    </linearGradient>
    <linearGradient id="linear-gradient-4" x1="11.29" y1="28.74" x2="67.36" y2="-12.57" gradientTransform="translate(36.09 70.1) rotate(15.45)" gradientUnits="userSpaceOnUse">
      <stop offset="0" stop-color="#e5a548"/>
      <stop offset=".65" stop-color="#e5cd48"/>
      <stop offset="1" stop-color="#e5e548"/>
    </linearGradient>
    <linearGradient id="linear-gradient-5" x1="103.86" y1="14.84" x2="47.99" y2="69.24" gradientUnits="userSpaceOnUse">
      <stop offset="0" stop-color="#e5a548"/>
      <stop offset=".22" stop-color="#e5aa48"/>
      <stop offset=".52" stop-color="#e5bb48"/>
      <stop offset=".85" stop-color="#e5d648"/>
      <stop offset="1" stop-color="#e5e548"/>
    </linearGradient>
    <linearGradient id="linear-gradient-6" x1="14.04" y1="122.3" x2="112.15" y2="13.87" gradientUnits="userSpaceOnUse">
      <stop offset="0" stop-color="#8e54e9"/>
      <stop offset=".28" stop-color="#a468c0"/>
      <stop offset=".9" stop-color="#db9c59"/>
      <stop offset="1" stop-color="#e5a548"/>
    </linearGradient>
    <linearGradient id="linear-gradient-7" x1="90.98" y1="49.26" x2="40.45" y2="90.32" xlink:href="#linear-gradient-6"/>
    <linearGradient id="linear-gradient-8" x1="46.63" y1="89.74" x2="94.48" y2="56.92" gradientUnits="userSpaceOnUse">
      <stop offset="0" stop-color="#e5a548"/>
      <stop offset=".1" stop-color="rgba(229, 169, 72, .94)" stop-opacity=".94"/>
      <stop offset=".29" stop-color="rgba(229, 179, 72, .77)" stop-opacity=".77"/>
      <stop offset=".56" stop-color="rgba(229, 196, 72, .5)" stop-opacity=".5"/>
      <stop offset=".88" stop-color="rgba(229, 220, 72, .14)" stop-opacity=".14"/>
      <stop offset="1" stop-color="#e5e548" stop-opacity="0"/>
    </linearGradient>
    <linearGradient id="linear-gradient-9" x1="61.63" y1="73.54" x2="64.09" y2="30.39" xlink:href="#linear-gradient-8"/>
    <linearGradient id="linear-gradient-10" x1="37.3" y1="109.03" x2="93.92" y2="109.03" xlink:href="#linear-gradient-8"/>
    <linearGradient id="linear-gradient-11" x1="79.92" y1="76.45" x2="86.1" y2="71.49" xlink:href="#linear-gradient-8"/>
    <linearGradient id="linear-gradient-12" x1="105.34" y1="17.05" x2="65.38" y2="59.83" xlink:href="#linear-gradient-8"/>
    <linearGradient id="linear-gradient-13" x1="64.54" y1="42.28" x2="102.71" y2="17.29" xlink:href="#linear-gradient-8"/>
    <linearGradient id="linear-gradient-14" x1="108.07" y1="100.6" x2="148.7" y2="30.22" gradientUnits="userSpaceOnUse">
      <stop offset="0" stop-color="#e5ac48"/>
      <stop offset=".5" stop-color="#fff100"/>
      <stop offset="1" stop-color="#e5e548"/>
    </linearGradient>
    <linearGradient id="linear-gradient-15" x1="145.61" y1="100.85" x2="166.35" y2="64.94" xlink:href="#linear-gradient-14"/>
    <linearGradient id="linear-gradient-16" x1="170.32" y1="109.61" x2="197.05" y2="63.32" xlink:href="#linear-gradient-14"/>
    <linearGradient id="linear-gradient-17" x1="203.36" y1="94.84" x2="232.75" y2="43.94" xlink:href="#linear-gradient-14"/>
    <linearGradient id="linear-gradient-18" x1="228.85" y1="97.64" x2="245.48" y2="68.83" xlink:href="#linear-gradient-14"/>
    <linearGradient id="linear-gradient-19" x1="254.56" y1="110.11" x2="281.22" y2="63.93" xlink:href="#linear-gradient-14"/>
  </defs>
  <g class="cls-21">
    <g id="logo-horizontal">
      <g>
        <path class="cls-3" d="M19.45,100.21C3.89,80.65-6.15,57.77,10.72,30.93,32.11-2.4,74.93-.78,97.29,9.29,45.61-9.22-26.71,42.55,19.45,100.21Z"/>
        <path class="cls-13" d="M27.68,105.15C12.11,85.59,2.98,62.04,17.82,35.65,38.51,1.85,74.93-.78,97.29,9.29,45.61-9.22-18.49,47.49,27.68,105.15Z"/>
        <path class="cls-16" d="M95.5,56.33s0,.01,0,.03c-.08.4-.83,4.03-3.25,8.91-2.11,4.24-5.7,7.61-10.15,9.22-.02,0-.05.02-.07.02h.06c.36-.06,2.42-.38,4.96-1-.08.11-.18.22-.26.34-10.44,14.58-27.28,13.3-27.37,13.3,0,0,5.13,1.27,11.57-.26-7.55,4.03-14.18,5.73-22.1,6.82h0c-.09-.08-1.79-1.57-2.82-4.25-.54-1.38-.89-3.07-.76-5.05h0c2.67-1.07,6.09-2.1,9.87-3.24,5.24-1.58,11.19-3.37,17.05-5.83,10.8-4.54,17.97-12.2,23.29-19.01Z"/>
        <path class="cls-19" d="M47.01,100.5c-1.66,1.27-5.51,4.45-6.06,4.87.41-.84,1.72-3.43,3.21-5.58.26-.37.46-.66.62-.87.03.02.07.03.11.04.53.16,1.08-.14,1.24-.67.15-.52-.15-1.07-.67-1.23-.52-.15-1.08.15-1.23.67-.1.33-.02.67.19.92-1.41,1.99-2.99,5.54-3.5,6.68.14-1.01.83-5.55,1.13-7.51.1-.6.43-1.14.93-1.49l6.66-4.65-.38,1.65h0s-1.31,5.7-1.31,5.7c-.12.58-.45,1.1-.92,1.46Z"/>
        <path class="cls-5" d="M93.92,113.04c-2.68-5.33-8.43-8.06-14.18-7.94-5.76.12-11.28,2.21-16.7,4.17-6.82,2.39-14.95,6.15-22.31,4.76-1.15-.23-2.31-.59-3.43-1.08-3.26-1.43-6.1-3.93-7.05-7.38,2.36,3.66,6.68,5.49,10.88,5.83,4.25.39,8.28-1.02,12.35-2.39,8.49-2.91,17.09-7.1,26.36-6.39,3.66.26,7.35,1.69,10.08,4.1-.56-.59-1.13-1.18-1.73-1.72-3.05-2.87-6.11-4.19-10.36-4.37-10.14-.41-19.37,4.53-28.74,7.57,6.98-4.18,14.24-8.17,22.56-9.37,6.67-.93,13.01.21,17.26,5.54,1.19,1.41,3.99,5.84,4.93,8.52.03.08.05.13.05.15Z"/>
        <path class="cls-8" d="M100.25,10.02s0,0,0,.03c-.02.15-.03.31-.05.47,0,.06-.01.12-.02.18,0,.06-.01.13-.02.2-.87,8.52-2.76,24.51-24.34,41.38-7.73,6.04-17.51,9.46-26.62,13.23-1.33.55-2.64,1.1-3.93,1.68.66-2.2,1.49-4.22,2.43-6.08,3.74-7.35,10.13-12.99,17.76-16.13,4.18-1.72,9.55-3.56,14.27-4.04.26-.02.42-.04.48-.04,0,0,.01,0,.02,0h-.01c-.27-.04-4.77-.56-9.61-.38,1.91-1.08,3.76-2.12,5.49-3.16,18.17-11.01,23.96-26.78,24.16-27.32h0Z"/>
        <path class="cls-4" d="M101.51,28.44c.63-10.5-1.26-18.42-1.26-18.42-.81,8.05-.78,27.33-22.16,44.83-3.92,3.21-8.29,5.49-12.78,7.39,1.03.23,2.06.49,3.05.78,3.93,1.13,5.05,1.67,5.3,1.78-23.19-.99-37.33,10.16-41.03,15.77-8.98,13.58-3.02,23.94-2.43,24.89.03.05.05.07.05.07-1.57-7.41-.1-15.42,10.25-21.33,6.07-3.47,18.5-5.7,30.33-10.67,18.62-7.81,26.34-21.86,29.24-34.76-2.52,2.1-4.61,3.52-4.61,3.52.02-.02.04-.04.06-.06,3.59-3.71,5.69-8.62,6-13.78ZM99.06,42.04c-3.57,12.35-11.07,22.22-29.24,30.32-11.54,5.15-23.67,7.46-29.6,11.06-10.1,6.13-11.63,13.93-10.1,21.61,0,0,0,0,0,0,.01.02,0,0,0,0,0,0,0,0,0,0-.65-1.82-7.42-22.88,23.11-30.68,36.72-9.38,41.3-20.74,45.82-32.3Z"/>
        <path class="cls-14" d="M100.07,38.77c-2.9,12.9-10.62,26.94-29.24,34.76-11.83,4.97-24.26,7.2-30.33,10.67-10.35,5.91-11.82,13.92-10.25,21.33,0,0-.02-.02-.05-.07-.67-1.75-7.97-22.91,23.32-30.44,37.63-9.05,41.98-23.94,46.55-36.24Z"/>
        <path class="cls-20" d="M95.5,56.33s0,.01,0,.03c-8.37,18.74-34.32,25.24-42.15,27.64-7.72,2.36-5.07,8.98-4.97,9.19-.09-.08-1.43-1.47-2.31-3.73-.54-1.38-.89-3.07-.76-5.05h0c2.67-1.07,6.09-2.1,9.87-3.24,5.24-1.58,11.19-3.37,17.05-5.83,10.8-4.54,17.97-12.2,23.29-19.01Z"/>
        <path class="cls-15" d="M80.21,40.89c-25.84,4.45-31.01,24.61-31.01,24.61-1.33.55-2.64,1.1-3.93,1.68.66-2.2,1.49-4.22,2.43-6.08,3.74-7.35,10.13-12.99,17.76-16.13,4.18-1.72,9.55-3.56,14.27-4.04.26-.02.42-.04.48-.04Z"/>
        <path class="cls-6" d="M93.92,113.04c-2.68-5.33-8.43-8.06-14.18-7.94-5.76.12-11.28,2.21-16.7,4.17-6.82,2.39-14.95,6.15-22.31,4.76-1.15-.23-2.31-.59-3.43-1.08,8.94,2.88,17.24-1.68,27.24-5.53,3.33-1.28,6.74-2.69,11.14-3.4,12.37-2,17.66,7.47,18.18,8.87.03.08.05.13.05.15Z"/>
        <path class="cls-18" d="M87.05,73.5c-2.08,1.38-10.32,2.75-10.32,2.75l5.3-1.75h.06c.36-.06,2.42-.38,4.96-1Z"/>
        <path class="cls-9" d="M65.32,62.23c4.49-1.9,8.86-4.18,12.78-7.39,21.38-17.5,21.34-36.78,22.16-44.83-.18,45.73-34.93,52.21-34.93,52.21Z"/>
        <path class="cls-10" d="M100.25,10.02s0,0,0,.03c-.02.15-.03.31-.05.47,0,.06-.01.12-.02.18,0,.06-.01.13-.02.2-5.93,19.58-19.6,29.73-19.95,29.99-.27-.04-4.77-.56-9.61-.38,1.91-1.08,3.76-2.12,5.49-3.16,18.17-11.01,23.96-26.78,24.16-27.32h0Z"/>
      </g>
      <g>
        <path class="cls-12" d="M100.16,95.69c-.77,0-1.33-.31-1.69-.94s-.54-1.44-.54-2.45c0-1.39.23-3.02.68-4.9s1.03-3.82,1.73-5.83c.7-2.02,1.4-3.95,2.12-5.8.72-1.85,1.34-3.42,1.87-4.72h-3.96c-.38,0-.58-.14-.58-.43s.22-.68.65-1.19c.43-.5.94-.95,1.51-1.33.58-.38,1.05-.58,1.44-.58h2.45c1.2-2.83,2.33-5.48,3.38-7.96,1.06-2.47,2.38-5.1,3.96-7.88.38-.67.74-1.31,1.08-1.91.34-.6.72-1.14,1.15-1.62-2.59.34-5.25.84-7.96,1.51-2.71.67-5.12,1.54-7.24,2.59-2.11,1.06-3.6,2.3-4.46,3.74-.05.14-.14.22-.29.22-.1,0-.18-.1-.25-.29-.07-.19-.08-.41-.04-.65.48-1.25,1.08-2.45,1.8-3.6.72-1.15,1.42-2.06,2.09-2.74,1.05-1.1,2.5-1.9,4.32-2.38s3.71-.79,5.65-.94,3.61-.22,5-.22h51.19c1.68,0,3.18-.06,4.5-.18s2.44-.18,3.35-.18c1.49,0,2.35.36,2.59,1.08.05.19.08.37.11.54.02.17.04.37.04.61,0,.96-.22,2.05-.65,3.28-.43,1.22-.9,2.4-1.4,3.53-.5,1.13-.9,2.05-1.19,2.77-.05.24-.18.41-.4.5-.22.1-.42.14-.61.14-.24,0-.46-.05-.65-.14-.14-.1-.18-.42-.11-.97.07-.55.18-1.19.32-1.91.14-.72.22-1.34.22-1.87,0-1.54-.61-2.72-1.84-3.56-1.22-.84-2.75-1.26-4.57-1.26-1.34,0-39.38.11-40.25.32-.86.22-1.56.73-2.09,1.55-1.92,2.83-3.66,5.74-5.22,8.71-1.56,2.98-3.01,6.02-4.36,9.14h18.79c.14,0,.06.29-.25.86-.31.58-.7,1.16-1.15,1.76-.46.6-.85.9-1.19.9h-17.78c-.53,1.34-1.15,2.98-1.87,4.9s-1.38,3.82-1.98,5.69-1.07,3.48-1.4,4.82c-.29,1.15-.43,2.18-.43,3.1,0,1.2.37,2.11,1.12,2.74.74.62,2.05.94,3.92.94,2.59,0,5.18-.11,7.78-.32,2.59-.22,5.14-.68,7.63-1.4,2.16-.62,4.09-1.46,5.8-2.52,1.7-1.05,2.94-2.38,3.71-3.96.1-.19.24-.29.43-.29.33,0,.5.26.5.79,0,.1-.01.22-.04.36-.02.14-.06.31-.11.5-.38,1.25-.84,2.35-1.37,3.31s-1.08,1.78-1.66,2.45c-1.34,1.63-3.07,2.63-5.18,2.99s-4.22.54-6.34.54h-21.82Z"/>
        <path class="cls-7" d="M158.98,96.34c-2.11,0-3.8-.85-5.08-2.56-1.27-1.7-2.36-4.16-3.28-7.38-1.49,1.58-2.98,3.12-4.46,4.61s-2.88,3.05-4.18,4.68h-5.33c.82-.72,2.4-2.18,4.75-4.39s5.09-4.85,8.21-7.92c-.48-1.39-.98-2.94-1.51-4.64-.53-1.7-.98-3.37-1.37-5-.43.86-.97,1.97-1.62,3.31-.65,1.34-1.57,2.98-2.77,4.9-.14.24-.26.17-.36-.22-.1-.38-.14-.84-.14-1.37,0-.77.1-1.34.29-1.73,1.2-2.25,2.05-4.1,2.56-5.54.5-1.44,1-2.9,1.48-4.39.38-1.15,1.18-1.73,2.38-1.73h3.74c.24,1.44.62,3.16,1.15,5.15.53,1.99,1.1,4,1.73,6.01,1.3-1.3,2.75-2.89,4.36-4.79,1.61-1.9,3.28-3.8,5-5.72.29-.33.8-.54,1.55-.61.74-.07,1.49-.1,2.23-.07.74.02,1.26.04,1.55.04-2.5,2.21-4.87,4.44-7.13,6.7s-4.58,4.63-6.98,7.13c.34.96.74,2.12,1.22,3.49.48,1.37,1.01,2.65,1.58,3.85.58,1.2,1.17,2.09,1.8,2.66.58.53,1.25.79,2.02.79.96,0,1.92-.36,2.88-1.08.96-.72,1.85-1.54,2.66-2.45.82-.91,1.46-1.68,1.94-2.3.96-1.25,1.88-2.58,2.77-4,.89-1.42,1.67-2.8,2.34-4.14.19-.33.36-.5.5-.5.24,0,.36.36.36,1.08,0,.43-.06.91-.18,1.44-.12.53-.32,1.06-.61,1.58-.82,1.39-1.64,2.74-2.48,4.03-.84,1.3-1.74,2.54-2.7,3.74-.77.96-1.76,2.02-2.99,3.17-1.22,1.15-2.52,2.14-3.89,2.95s-2.7,1.22-4,1.22Z"/>
        <path class="cls-11" d="M174.68,110.16c-1.2,0-2.46-.18-3.78-.54-1.32-.36-2.42-.97-3.31-1.84-.89-.86-1.33-2.02-1.33-3.46,0-1.01.31-1.94.94-2.81.62-.86,1.49-1.3,2.59-1.3.67,0,1.3.18,1.87.54.58.36.96.8,1.15,1.33-.1.05-.24.19-.43.43-.19.24-.31.41-.36.5-.34.67-.5,1.37-.5,2.09,0,.91.32,1.64.97,2.2.65.55,1.48.83,2.48.83,1.3,0,2.64-.48,4.03-1.44,1.54-1.1,2.75-2.53,3.64-4.28.89-1.75,1.6-3.33,2.12-4.72l4.1-10.94c-.86,1.06-1.76,2.12-2.7,3.2-.94,1.08-1.52,1.74-1.76,1.98-1.83,1.83-3.46,2.98-4.9,3.46-1.44.48-2.71.72-3.82.72s-2.12-.5-2.92-1.51-1.19-2.47-1.19-4.39c0-.96.14-2.18.43-3.67.29-1.49.7-3.08,1.22-4.79.53-1.7,1.14-3.38,1.84-5.04.7-1.66,1.45-3.13,2.27-4.43,1.25-1.97,2.64-3.24,4.18-3.82,1.54-.58,3.48-.86,5.83-.86.19,0,.29.1.29.29s-.14.43-.43.72c-.67.58-1.49,1.58-2.45,3.02-.96,1.44-1.88,3.02-2.77,4.75-.89,1.73-1.62,3.38-2.2,4.97-.38,1.1-.76,2.4-1.12,3.89-.36,1.49-.54,2.79-.54,3.89,0,.77.11,1.38.32,1.84.22.46.56.68,1.04.68.77,0,1.82-.58,3.17-1.73,2.02-1.68,3.84-3.74,5.47-6.19,1.63-2.45,3.02-4.99,4.18-7.63.67-1.54,1.22-2.84,1.66-3.92.43-1.08.91-1.96,1.44-2.63.53-.67,1.27-1.16,2.23-1.48.96-.31,2.26-.47,3.89-.47h2.95c-.91.58-1.83,1.64-2.74,3.2-.91,1.56-1.78,3.4-2.59,5.51-.62,1.54-1.26,3.22-1.91,5.04-.65,1.83-1.31,3.67-1.98,5.54-.58,1.73-1.2,3.61-1.87,5.65-.67,2.04-1.44,4.03-2.3,5.98-.86,1.94-1.87,3.64-3.02,5.08-1.63,2.02-3.62,3.61-5.98,4.79-2.35,1.18-4.82,1.76-7.42,1.76Z"/>
        <path class="cls-1" d="M206.72,96.12c-1.34,0-2.35-.49-3.02-1.48-.67-.98-1.01-2.32-1.01-4v-.72c0-.24.02-.48.07-.72.24-1.82.66-3.89,1.26-6.19.6-2.3,1.31-4.73,2.12-7.27.48-1.44,1.09-3.25,1.84-5.44.74-2.18,1.62-4.54,2.63-7.06,1.01-2.52,2.12-5.03,3.35-7.52,1.22-2.5,2.58-4.76,4.07-6.8,1.49-2.04,3.06-3.68,4.72-4.93,1.66-1.25,3.42-1.87,5.29-1.87,1.54,0,2.59.37,3.17,1.12.58.75.86,1.62.86,2.63s-.19,2.12-.58,3.2c-.38,1.08-.77,1.98-1.15,2.7-.86,1.73-1.99,3.67-3.38,5.83-1.39,2.16-2.86,4.18-4.39,6.05-.91,1.2-2.04,2.54-3.38,4.03-1.34,1.49-2.6,2.86-3.78,4.1-1.18,1.25-2.03,2.11-2.56,2.59l-1.15,3.31c-.34.91-.66,1.99-.97,3.24s-.58,2.48-.79,3.71c-.22,1.22-.4,2.29-.54,3.2-.05.19-.07.38-.07.58v.5c0,1.44.55,2.16,1.66,2.16.67,0,1.51-.31,2.52-.94.96-.58,1.88-1.33,2.77-2.27.89-.94,1.52-1.64,1.91-2.12.96-1.25,1.87-2.58,2.74-4s1.61-2.72,2.23-3.92c.24-.38.41-.58.5-.58.29,0,.43.41.43,1.22,0,.38-.06.83-.18,1.33-.12.5-.3.97-.54,1.4-.67,1.15-1.46,2.42-2.38,3.82-.91,1.39-1.85,2.74-2.81,4.03-.72.96-1.73,1.99-3.02,3.1-1.3,1.11-2.69,2.04-4.18,2.81-1.49.77-2.91,1.15-4.25,1.15ZM214.28,70.27c2.4-2.83,4.83-5.87,7.31-9.11,2.47-3.24,4.52-6.54,6.16-9.9.1-.24.31-.72.65-1.44.33-.72.65-1.52.94-2.41.29-.89.43-1.64.43-2.27,0-.82-.31-1.22-.94-1.22h-.5c-.62,0-1.36.43-2.2,1.3-.84.86-1.69,2.02-2.56,3.46-1.1,1.82-2.18,3.92-3.24,6.3-1.06,2.38-2.09,4.88-3.1,7.52-1.01,2.64-1.99,5.23-2.95,7.78Z"/>
        <path class="cls-17" d="M228.89,96.27c-2.21,0-4.12-.7-5.72-2.09-1.61-1.39-2.41-3.62-2.41-6.7,0-2.26.41-4.61,1.22-7.06.82-2.45,1.98-4.73,3.49-6.84s3.35-3.84,5.51-5.18c2.16-1.34,4.58-2.02,7.27-2.02,2.21,0,3.92.42,5.15,1.26,1.22.84,2.1,1.96,2.63,3.35.53,1.39.79,2.88.79,4.46,0,1.2-.13,2.41-.4,3.64-.26,1.22-.64,2.44-1.12,3.64.82.96,1.85,1.44,3.1,1.44,1.34,0,2.59-.5,3.74-1.51.67-.58,1.28-1.31,1.84-2.2.55-.89,1.04-1.72,1.48-2.48.14-.29.31-.43.5-.43.24,0,.36.34.36,1.01,0,.43-.06.94-.18,1.51-.12.58-.37,1.15-.76,1.73-.72,1.25-1.46,2.2-2.23,2.84-.77.65-1.63,1.16-2.59,1.55-.72.29-1.49.43-2.3.43-1.49,0-2.83-.46-4.03-1.37-.38.82-.86,1.66-1.44,2.52-1.39,2.35-3.19,4.36-5.4,6.01-2.21,1.66-5.04,2.48-8.5,2.48ZM231.63,93.53c1.1,0,2.17-.37,3.2-1.12,1.03-.74,1.98-1.67,2.84-2.77.86-1.1,1.62-2.26,2.27-3.46.65-1.2,1.19-2.26,1.62-3.17-1.63-1.39-2.45-3.14-2.45-5.26,0-1.39.38-2.47,1.15-3.24s1.82-1.1,3.17-1.01c-.05-1.1-.34-2.02-.86-2.74s-1.39-1.08-2.59-1.08c-1.1,0-2.15.34-3.13,1.01-.98.67-1.9,1.52-2.74,2.56s-1.58,2.09-2.23,3.17c-.65,1.08-1.19,2.05-1.62,2.92-.62,1.25-1.2,2.76-1.73,4.54-.53,1.78-.79,3.43-.79,4.97,0,1.34.28,2.46.83,3.35.55.89,1.57,1.33,3.06,1.33Z"/>
        <path class="cls-2" d="M260.14,113.33c.77-1.06,1.43-2.16,1.98-3.31.55-1.15,1.07-2.28,1.55-3.38.87-2.06,1.82-4.57,2.88-7.52,1.05-2.95,2.13-6.05,3.24-9.29,1.1-3.24,2.16-6.25,3.17-9.04-.86,1.54-1.78,3.07-2.74,4.61-.96,1.54-1.92,2.86-2.88,3.96-1.54,1.87-3.16,3.43-4.86,4.68-1.7,1.25-3.4,1.87-5.08,1.87-1.34,0-2.48-.49-3.42-1.48-.94-.98-1.4-2.7-1.4-5.15s.43-5.06,1.3-7.7c.86-2.64,2.08-5.1,3.64-7.38,1.56-2.28,3.41-4.12,5.54-5.51,2.13-1.39,4.47-2.09,7.02-2.09,1.2,0,2.51.28,3.92.83s2.39,1.62,2.92,3.2c.67-1.34,1.49-2.3,2.45-2.88.96-.58,2.57-.86,4.82-.86h2.16c-.62.38-1.35,1.18-2.16,2.38-.82,1.2-1.62,2.58-2.41,4.14-.79,1.56-1.48,3.04-2.05,4.43-.67,1.63-1.31,3.23-1.91,4.79-.6,1.56-1.16,3.13-1.69,4.72-.05.91.1,1.67.43,2.27.34.6.84.9,1.51.9.24,0,.54-.05.9-.14.36-.1.71-.26,1.04-.5.72-.48,1.4-1.1,2.05-1.87.65-.77,1.26-1.51,1.84-2.23.96-1.25,1.9-2.62,2.81-4.1.91-1.49,1.68-2.83,2.3-4.03.14-.33.31-.5.5-.5.24,0,.36.41.36,1.22,0,.38-.05.83-.14,1.33-.1.5-.29,1-.58,1.48-.62,1.06-1.38,2.3-2.27,3.74-.89,1.44-1.85,2.82-2.88,4.14-1.03,1.32-2.17,2.39-3.42,3.2-1.15.72-2.23,1.08-3.24,1.08-1.3,0-2.16-.55-2.59-1.66-.77,2.5-1.53,5.06-2.27,7.7-.74,2.64-1.55,5.38-2.41,8.21-.43,1.39-1.16,2.62-2.2,3.67-1.03,1.06-2.68,1.7-4.93,1.94-.38.05-.82.08-1.3.11s-.98.04-1.51.04ZM260.64,89.86c.14.05.36.07.65.07.91,0,1.9-.38,2.95-1.15,1.06-.77,2.11-1.76,3.17-2.99,1.06-1.22,1.99-2.46,2.81-3.71,1.58-2.45,2.84-4.45,3.78-6.01.94-1.56,1.62-2.72,2.05-3.49l.5-1.15c-.24-.77-.66-1.32-1.26-1.66-.6-.33-1.29-.5-2.05-.5-1.05,0-2.17.29-3.35.86-1.18.58-2.17,1.27-2.99,2.09-1.25,1.25-2.44,2.86-3.56,4.82-1.13,1.97-2.04,3.91-2.74,5.83-.7,1.92-1.04,3.53-1.04,4.82,0,1.2.36,1.92,1.08,2.16Z"/>
      </g>
    </g>
  </g>
</svg>