<?xml version="1.0" encoding="UTF-8"?>
<svg xmlns="http://www.w3.org/2000/svg" xmlns:xlink="http://www.w3.org/1999/xlink" viewBox="0 0 230.24 344.97">
  <defs>
    <style>
      .cls-1 {
        fill: url(#linear-gradient-17);
      }

      .cls-1, .cls-2, .cls-3, .cls-4, .cls-5, .cls-6, .cls-7, .cls-8, .cls-9, .cls-10, .cls-11, .cls-12, .cls-13, .cls-14, .cls-15, .cls-16, .cls-17, .cls-18, .cls-19, .cls-20 {
        stroke-width: 0px;
      }

      .cls-2 {
        fill: url(#linear-gradient-19);
      }

      .cls-3 {
        fill: url(#linear-gradient);
      }

      .cls-4 {
        fill: url(#linear-gradient-6);
      }

      .cls-21 {
        isolation: isolate;
      }

      .cls-5, .cls-22 {
        fill: #645ae9;
      }

      .cls-6 {
        fill: url(#linear-gradient-10);
        opacity: .78;
      }

      .cls-6, .cls-9, .cls-15, .cls-18, .cls-20 {
        mix-blend-mode: multiply;
      }

      .cls-7 {
        fill: url(#linear-gradient-15);
      }

      .cls-8 {
        fill: url(#linear-gradient-5);
      }

      .cls-22 {
        font-family: SitkaDisplay-BoldItalic, Sitka;
        font-size: 18px;
        font-style: italic;
        font-weight: 700;
      }

      .cls-9 {
        fill: url(#linear-gradient-12);
      }

      .cls-9, .cls-15, .cls-18, .cls-20 {
        opacity: .3;
      }

      .cls-10 {
        fill: url(#linear-gradient-13);
      }

      .cls-11 {
        fill: url(#linear-gradient-16);
      }

      .cls-12 {
        fill: url(#linear-gradient-14);
      }

      .cls-13 {
        fill: url(#linear-gradient-2);
      }

      .cls-14 {
        fill: url(#linear-gradient-7);
      }

      .cls-15 {
        fill: url(#linear-gradient-9);
      }

      .cls-16 {
        fill: url(#linear-gradient-3);
      }

      .cls-17 {
        fill: url(#linear-gradient-18);
      }

      .cls-18 {
        fill: url(#linear-gradient-11);
      }

      .cls-19 {
        fill: url(#linear-gradient-4);
      }

      .cls-20 {
        fill: url(#linear-gradient-8);
      }
    </style>
    <linearGradient id="linear-gradient" x1="16.59" y1="95.78" x2="95.36" y2="95.78" gradientTransform="translate(-8.27 11.66) rotate(2.14)" gradientUnits="userSpaceOnUse">
      <stop offset="0" stop-color="#8e54e9"/>
      <stop offset="1" stop-color="#645ae9"/>
    </linearGradient>
    <linearGradient id="linear-gradient-2" x1="64.66" y1="134.08" x2="164.31" y2="36.89" gradientTransform="translate(-8.27 11.66) rotate(2.14)" gradientUnits="userSpaceOnUse">
      <stop offset="0" stop-color="#8e54e9"/>
      <stop offset=".2" stop-color="#8c54e9"/>
      <stop offset=".27" stop-color="#8555e9"/>
      <stop offset=".32" stop-color="#7956e9"/>
      <stop offset=".36" stop-color="#6859e9"/>
      <stop offset=".37" stop-color="#645ae9"/>
    </linearGradient>
    <linearGradient id="linear-gradient-3" x1="87.1" y1="218.99" x2="212" y2="126.95" gradientUnits="userSpaceOnUse">
      <stop offset="0" stop-color="#e5a548"/>
      <stop offset=".65" stop-color="#e5cd48"/>
      <stop offset="1" stop-color="#e5e548"/>
    </linearGradient>
    <linearGradient id="linear-gradient-4" x1="162.12" y1="101.44" x2="287.05" y2="9.39" gradientTransform="translate(-41.93 80.18) rotate(15.45)" gradientUnits="userSpaceOnUse">
      <stop offset="0" stop-color="#e5a548"/>
      <stop offset=".65" stop-color="#e5cd48"/>
      <stop offset="1" stop-color="#e5e548"/>
    </linearGradient>
    <linearGradient id="linear-gradient-5" x1="231.13" y1="29.59" x2="106.63" y2="150.8" gradientUnits="userSpaceOnUse">
      <stop offset="0" stop-color="#e5a548"/>
      <stop offset=".22" stop-color="#e5aa48"/>
      <stop offset=".52" stop-color="#e5bb48"/>
      <stop offset=".85" stop-color="#e5d648"/>
      <stop offset="1" stop-color="#e5e548"/>
    </linearGradient>
    <linearGradient id="linear-gradient-6" x1="30.98" y1="269.02" x2="249.58" y2="27.41" gradientUnits="userSpaceOnUse">
      <stop offset="0" stop-color="#8e54e9"/>
      <stop offset=".28" stop-color="#a468c0"/>
      <stop offset=".9" stop-color="#db9c59"/>
      <stop offset="1" stop-color="#e5a548"/>
    </linearGradient>
    <linearGradient id="linear-gradient-7" x1="202.41" y1="106.27" x2="89.82" y2="197.76" xlink:href="#linear-gradient-6"/>
    <linearGradient id="linear-gradient-8" x1="103.59" y1="196.48" x2="210.21" y2="123.33" gradientUnits="userSpaceOnUse">
      <stop offset="0" stop-color="#e5a548"/>
      <stop offset=".1" stop-color="rgba(229, 169, 72, .94)" stop-opacity=".94"/>
      <stop offset=".29" stop-color="rgba(229, 179, 72, .77)" stop-opacity=".77"/>
      <stop offset=".56" stop-color="rgba(229, 196, 72, .5)" stop-opacity=".5"/>
      <stop offset=".88" stop-color="rgba(229, 220, 72, .14)" stop-opacity=".14"/>
      <stop offset="1" stop-color="#e5e548" stop-opacity="0"/>
    </linearGradient>
    <linearGradient id="linear-gradient-9" x1="137.01" y1="160.38" x2="142.49" y2="64.23" xlink:href="#linear-gradient-8"/>
    <linearGradient id="linear-gradient-10" x1="82.81" y1="239.47" x2="208.96" y2="239.47" xlink:href="#linear-gradient-8"/>
    <linearGradient id="linear-gradient-11" x1="177.78" y1="166.87" x2="191.53" y2="155.81" xlink:href="#linear-gradient-8"/>
    <linearGradient id="linear-gradient-12" x1="234.41" y1="34.5" x2="145.38" y2="129.83" xlink:href="#linear-gradient-8"/>
    <linearGradient id="linear-gradient-13" x1="143.49" y1="90.71" x2="228.55" y2="35.04" xlink:href="#linear-gradient-8"/>
    <linearGradient id="linear-gradient-14" x1="30.67" y1="311.68" x2="71.3" y2="241.31" gradientUnits="userSpaceOnUse">
      <stop offset="0" stop-color="#e5ac48"/>
      <stop offset=".5" stop-color="#fff100"/>
      <stop offset="1" stop-color="#e5e548"/>
    </linearGradient>
    <linearGradient id="linear-gradient-15" x1="68.21" y1="311.94" x2="88.95" y2="276.02" xlink:href="#linear-gradient-14"/>
    <linearGradient id="linear-gradient-16" x1="92.92" y1="320.69" x2="119.65" y2="274.4" xlink:href="#linear-gradient-14"/>
    <linearGradient id="linear-gradient-17" x1="125.96" y1="305.92" x2="155.35" y2="255.02" xlink:href="#linear-gradient-14"/>
    <linearGradient id="linear-gradient-18" x1="151.45" y1="308.72" x2="168.08" y2="279.91" xlink:href="#linear-gradient-14"/>
    <linearGradient id="linear-gradient-19" x1="177.16" y1="321.19" x2="203.82" y2="275.01" xlink:href="#linear-gradient-14"/>
  </defs>
  <g class="cls-21">
    <g id="logo-vertical">
      <g>
        <path class="cls-3" d="M43.04,219.81C8.36,176.23-14.02,125.25,23.59,65.42,71.23-8.83,166.65-5.24,216.49,17.21,101.33-24.04-59.84,91.33,43.04,219.81Z"/>
        <path class="cls-13" d="M61.36,230.81C26.69,187.23,6.33,134.75,39.41,75.94,85.51.63,166.65-5.24,216.49,17.21,101.33-24.04-41.51,102.33,61.36,230.81Z"/>
        <path class="cls-16" d="M212.49,122.03s0,.03-.01.06c-.18.89-1.85,8.98-7.25,19.84-4.69,9.44-12.69,16.95-22.61,20.53-.05.01-.1.04-.15.05l.13-.02c.81-.12,5.4-.82,11.05-2.21-.19.25-.4.49-.59.76-23.26,32.48-60.78,29.64-60.99,29.64,0,0,11.42,2.84,25.78-.58-16.81,8.97-31.59,12.76-49.25,15.19h0c-.21-.19-3.99-3.51-6.29-9.47-1.19-3.07-1.98-6.84-1.69-11.24h0c5.96-2.38,13.57-4.67,21.99-7.21,11.68-3.52,24.93-7.51,37.98-12.99,24.07-10.11,40.03-27.18,51.9-42.36Z"/>
        <path class="cls-19" d="M104.45,220.45c-3.69,2.84-12.27,9.92-13.51,10.86.91-1.86,3.84-7.64,7.14-12.43.58-.83,1.03-1.47,1.39-1.94.07.04.16.07.25.09,1.18.36,2.41-.31,2.76-1.49.34-1.17-.33-2.39-1.5-2.75-1.17-.34-2.4.33-2.74,1.49-.22.74-.04,1.5.42,2.05-3.14,4.43-6.67,12.33-7.81,14.88.32-2.26,1.84-12.36,2.51-16.73.22-1.34.96-2.53,2.07-3.32l14.84-10.35-.85,3.68v.02s-2.92,12.68-2.92,12.68c-.28,1.3-1,2.45-2.05,3.25Z"/>
        <path class="cls-5" d="M208.96,248.39c-5.97-11.88-18.8-17.97-31.59-17.7-12.84.28-25.13,4.92-37.2,9.29-15.19,5.33-33.3,13.7-49.72,10.61-2.56-.51-5.15-1.32-7.64-2.41-7.25-3.18-13.59-8.76-15.71-16.44,5.25,8.15,14.89,12.24,24.25,12.98,9.47.86,18.45-2.28,27.53-5.33,18.91-6.49,38.09-15.82,58.74-14.23,8.16.59,16.37,3.77,22.47,9.15-1.24-1.32-2.52-2.62-3.85-3.84-6.8-6.39-13.62-9.34-23.09-9.74-22.6-.92-43.16,10.09-64.04,16.87,15.55-9.32,31.73-18.2,50.27-20.88,14.87-2.07,28.98.47,38.47,12.36,2.64,3.14,8.9,13.02,10.99,18.99.07.18.11.3.12.33Z"/>
        <path class="cls-8" d="M223.08,18.84s0,.02,0,.07c-.04.34-.07.69-.1,1.05-.02.13-.03.26-.04.39-.01.14-.03.28-.05.44-1.93,18.98-6.15,54.62-54.23,92.21-17.22,13.47-39.01,21.08-59.32,29.47-2.96,1.22-5.89,2.46-8.76,3.73,1.48-4.9,3.31-9.4,5.42-13.55,8.33-16.37,22.58-28.95,39.57-35.93,9.31-3.83,21.28-7.94,31.8-9,.57-.05.94-.09,1.06-.09.01,0,.03,0,.04,0h-.03c-.61-.08-10.64-1.25-21.41-.85,4.25-2.4,8.37-4.72,12.22-7.04,40.49-24.53,53.39-59.68,53.83-60.88h0Z"/>
        <path class="cls-4" d="M225.89,59.89c1.4-23.4-2.81-41.05-2.81-41.05-1.81,17.93-1.74,60.89-49.37,99.88-8.74,7.15-18.47,12.23-28.47,16.46,2.3.5,4.6,1.1,6.8,1.73,8.75,2.52,11.26,3.72,11.81,3.97-51.67-2.2-83.18,22.64-91.43,35.13-20,30.26-6.73,53.34-5.42,55.47.07.11.1.16.1.16-3.51-16.5-.23-34.35,22.84-47.53,13.53-7.73,41.23-12.7,67.59-23.77,41.48-17.41,58.68-48.71,65.15-77.44-5.62,4.68-10.28,7.84-10.28,7.84.04-.05.09-.09.13-.14,8-8.27,12.67-19.22,13.36-30.7ZM220.42,90.18c-7.95,27.51-24.68,49.51-65.15,67.56-25.72,11.47-52.75,16.63-65.95,24.64-22.51,13.66-25.92,31.04-22.5,48.15,0,0,0,0,.01.02.02.04.01.02,0,0,0,0,0,0-.01-.02-1.45-4.05-16.53-50.98,51.5-68.37,81.82-20.9,92.03-46.22,102.11-71.98Z"/>
        <path class="cls-14" d="M222.68,82.89c-6.47,28.73-23.67,60.03-65.15,77.44-26.36,11.07-54.06,16.04-67.59,23.77-23.07,13.18-26.35,31.03-22.84,47.53,0,0-.04-.05-.1-.16-1.48-3.91-17.76-51.05,51.96-67.82,83.85-20.16,93.54-53.34,103.73-80.76Z"/>
        <path class="cls-20" d="M212.49,122.03s0,.03-.01.06c-18.65,41.76-76.47,56.24-93.93,61.58-17.21,5.26-11.29,20.02-11.09,20.48-.21-.18-3.18-3.29-5.16-8.32-1.2-3.07-1.98-6.84-1.69-11.24h0c5.96-2.38,13.57-4.67,21.99-7.21,11.68-3.52,24.93-7.51,37.98-12.99,24.07-10.11,40.03-27.18,51.9-42.36Z"/>
        <path class="cls-15" d="M178.41,87.63c-57.57,9.91-69.09,54.84-69.09,54.84-2.96,1.22-5.89,2.46-8.76,3.73,1.48-4.9,3.31-9.4,5.42-13.55,8.33-16.37,22.58-28.95,39.57-35.93,9.31-3.83,21.28-7.94,31.8-9,.57-.05.94-.09,1.06-.09Z"/>
        <path class="cls-6" d="M208.96,248.39c-5.97-11.88-18.8-17.97-31.59-17.7-12.84.28-25.13,4.92-37.2,9.29-15.19,5.33-33.3,13.7-49.72,10.61-2.56-.51-5.15-1.32-7.64-2.41,19.92,6.41,38.42-3.75,60.69-12.31,7.42-2.86,15.01-5.99,24.83-7.58,27.57-4.46,39.35,16.64,40.51,19.76.07.18.11.3.12.33Z"/>
        <path class="cls-18" d="M193.66,160.28c-4.64,3.07-22.99,6.13-22.99,6.13l11.81-3.9.13-.02c.81-.12,5.4-.82,11.05-2.21Z"/>
        <path class="cls-9" d="M145.24,135.18c10-4.23,19.73-9.31,28.47-16.46,47.63-38.99,47.56-81.95,49.37-99.88-.4,101.89-77.84,116.34-77.84,116.34Z"/>
        <path class="cls-10" d="M223.08,18.84s0,.02,0,.07c-.04.34-.07.69-.1,1.05-.02.13-.03.26-.04.39-.01.14-.03.28-.05.44-13.22,43.63-43.68,66.25-44.45,66.83-.61-.08-10.64-1.25-21.41-.85,4.25-2.4,8.37-4.72,12.22-7.04,40.49-24.53,53.39-59.68,53.83-60.88h0Z"/>
      </g>
      <g>
        <path class="cls-12" d="M22.76,306.77c-.77,0-1.33-.31-1.69-.94s-.54-1.44-.54-2.45c0-1.39.23-3.02.68-4.9s1.03-3.82,1.73-5.83c.7-2.02,1.4-3.95,2.12-5.8.72-1.85,1.34-3.42,1.87-4.72h-3.96c-.38,0-.58-.14-.58-.43s.22-.68.65-1.19c.43-.5.94-.95,1.51-1.33.58-.38,1.05-.58,1.44-.58h2.45c1.2-2.83,2.33-5.48,3.38-7.96,1.06-2.47,2.38-5.1,3.96-7.88.38-.67.74-1.31,1.08-1.91.34-.6.72-1.14,1.15-1.62-2.59.34-5.25.84-7.96,1.51-2.71.67-5.12,1.54-7.24,2.59-2.11,1.06-3.6,2.3-4.46,3.74-.05.14-.14.22-.29.22-.1,0-.18-.1-.25-.29-.07-.19-.08-.41-.04-.65.48-1.25,1.08-2.45,1.8-3.6.72-1.15,1.42-2.06,2.09-2.74,1.05-1.1,2.5-1.9,4.32-2.38s3.71-.79,5.65-.94,3.61-.22,5-.22h51.19c1.68,0,3.18-.06,4.5-.18s2.44-.18,3.35-.18c1.49,0,2.35.36,2.59,1.08.05.19.08.37.11.54.02.17.04.37.04.61,0,.96-.22,2.05-.65,3.28-.43,1.22-.9,2.4-1.4,3.53-.5,1.13-.9,2.05-1.19,2.77-.05.24-.18.41-.4.5-.22.1-.42.14-.61.14-.24,0-.46-.05-.65-.14-.14-.1-.18-.42-.11-.97.07-.55.18-1.19.32-1.91.14-.72.22-1.34.22-1.87,0-1.54-.61-2.72-1.84-3.56-1.22-.84-2.75-1.26-4.57-1.26-1.34,0-39.38.11-40.25.32-.86.22-1.56.73-2.09,1.55-1.92,2.83-3.66,5.74-5.22,8.71-1.56,2.98-3.01,6.02-4.36,9.14h18.79c.14,0,.06.29-.25.86-.31.58-.7,1.16-1.15,1.76-.46.6-.85.9-1.19.9h-17.78c-.53,1.34-1.15,2.98-1.87,4.9s-1.38,3.82-1.98,5.69-1.07,3.48-1.4,4.82c-.29,1.15-.43,2.18-.43,3.1,0,1.2.37,2.11,1.12,2.74.74.62,2.05.94,3.92.94,2.59,0,5.18-.11,7.78-.32,2.59-.22,5.14-.68,7.63-1.4,2.16-.62,4.09-1.46,5.8-2.52,1.7-1.05,2.94-2.38,3.71-3.96.1-.19.24-.29.43-.29.33,0,.5.26.5.79,0,.1-.01.22-.04.36-.02.14-.06.31-.11.5-.38,1.25-.84,2.35-1.37,3.31s-1.08,1.78-1.66,2.45c-1.34,1.63-3.07,2.63-5.18,2.99s-4.22.54-6.34.54h-21.82Z"/>
        <path class="cls-7" d="M81.58,307.42c-2.11,0-3.8-.85-5.08-2.56-1.27-1.7-2.36-4.16-3.28-7.38-1.49,1.58-2.98,3.12-4.46,4.61s-2.88,3.05-4.18,4.68h-5.33c.82-.72,2.4-2.18,4.75-4.39s5.09-4.85,8.21-7.92c-.48-1.39-.98-2.94-1.51-4.64-.53-1.7-.98-3.37-1.37-5-.43.86-.97,1.97-1.62,3.31-.65,1.34-1.57,2.98-2.77,4.9-.14.24-.26.17-.36-.22-.1-.38-.14-.84-.14-1.37,0-.77.1-1.34.29-1.73,1.2-2.25,2.05-4.1,2.56-5.54.5-1.44,1-2.9,1.48-4.39.38-1.15,1.18-1.73,2.38-1.73h3.74c.24,1.44.62,3.16,1.15,5.15.53,1.99,1.1,4,1.73,6.01,1.3-1.3,2.75-2.89,4.36-4.79,1.61-1.9,3.28-3.8,5-5.72.29-.33.8-.54,1.55-.61.74-.07,1.49-.1,2.23-.07.74.02,1.26.04,1.55.04-2.5,2.21-4.87,4.44-7.13,6.7s-4.58,4.63-6.98,7.13c.34.96.74,2.12,1.22,3.49.48,1.37,1.01,2.65,1.58,3.85.58,1.2,1.17,2.09,1.8,2.66.58.53,1.25.79,2.02.79.96,0,1.92-.36,2.88-1.08.96-.72,1.85-1.54,2.66-2.45.82-.91,1.46-1.68,1.94-2.3.96-1.25,1.88-2.58,2.77-4,.89-1.42,1.67-2.8,2.34-4.14.19-.33.36-.5.5-.5.24,0,.36.36.36,1.08,0,.43-.06.91-.18,1.44-.12.53-.32,1.06-.61,1.58-.82,1.39-1.64,2.74-2.48,4.03-.84,1.3-1.74,2.54-2.7,3.74-.77.96-1.76,2.02-2.99,3.17-1.22,1.15-2.52,2.14-3.89,2.95s-2.7,1.22-4,1.22Z"/>
        <path class="cls-11" d="M97.28,321.24c-1.2,0-2.46-.18-3.78-.54-1.32-.36-2.42-.97-3.31-1.84-.89-.86-1.33-2.02-1.33-3.46,0-1.01.31-1.94.94-2.81.62-.86,1.49-1.3,2.59-1.3.67,0,1.3.18,1.87.54.58.36.96.8,1.15,1.33-.1.05-.24.19-.43.43-.19.24-.31.41-.36.5-.34.67-.5,1.37-.5,2.09,0,.91.32,1.64.97,2.2.65.55,1.48.83,2.48.83,1.3,0,2.64-.48,4.03-1.44,1.54-1.1,2.75-2.53,3.64-4.28.89-1.75,1.6-3.33,2.12-4.72l4.1-10.94c-.86,1.06-1.76,2.12-2.7,3.2-.94,1.08-1.52,1.74-1.76,1.98-1.83,1.83-3.46,2.98-4.9,3.46-1.44.48-2.71.72-3.82.72s-2.12-.5-2.92-1.51-1.19-2.47-1.19-4.39c0-.96.14-2.18.43-3.67.29-1.49.7-3.08,1.22-4.79.53-1.7,1.14-3.38,1.84-5.04.7-1.66,1.45-3.13,2.27-4.43,1.25-1.97,2.64-3.24,4.18-3.82,1.54-.58,3.48-.86,5.83-.86.19,0,.29.1.29.29s-.14.43-.43.72c-.67.58-1.49,1.58-2.45,3.02-.96,1.44-1.88,3.02-2.77,4.75-.89,1.73-1.62,3.38-2.2,4.97-.38,1.1-.76,2.4-1.12,3.89-.36,1.49-.54,2.79-.54,3.89,0,.77.11,1.38.32,1.84.22.46.56.68,1.04.68.77,0,1.82-.58,3.17-1.73,2.02-1.68,3.84-3.74,5.47-6.19,1.63-2.45,3.02-4.99,4.18-7.63.67-1.54,1.22-2.84,1.66-3.92.43-1.08.91-1.96,1.44-2.63.53-.67,1.27-1.16,2.23-1.48.96-.31,2.26-.47,3.89-.47h2.95c-.91.58-1.83,1.64-2.74,3.2-.91,1.56-1.78,3.4-2.59,5.51-.62,1.54-1.26,3.22-1.91,5.04-.65,1.83-1.31,3.67-1.98,5.54-.58,1.73-1.2,3.61-1.87,5.65-.67,2.04-1.44,4.03-2.3,5.98-.86,1.94-1.87,3.64-3.02,5.08-1.63,2.02-3.62,3.61-5.98,4.79-2.35,1.18-4.82,1.76-7.42,1.76Z"/>
        <path class="cls-1" d="M129.32,307.2c-1.34,0-2.35-.49-3.02-1.48-.67-.98-1.01-2.32-1.01-4v-.72c0-.24.02-.48.07-.72.24-1.82.66-3.89,1.26-6.19.6-2.3,1.31-4.73,2.12-7.27.48-1.44,1.09-3.25,1.84-5.44.74-2.18,1.62-4.54,2.63-7.06,1.01-2.52,2.12-5.03,3.35-7.52,1.22-2.5,2.58-4.76,4.07-6.8,1.49-2.04,3.06-3.68,4.72-4.93,1.66-1.25,3.42-1.87,5.29-1.87,1.54,0,2.59.37,3.17,1.12.58.75.86,1.62.86,2.63s-.19,2.12-.58,3.2c-.38,1.08-.77,1.98-1.15,2.7-.86,1.73-1.99,3.67-3.38,5.83-1.39,2.16-2.86,4.18-4.39,6.05-.91,1.2-2.04,2.54-3.38,4.03-1.34,1.49-2.6,2.86-3.78,4.1-1.18,1.25-2.03,2.11-2.56,2.59l-1.15,3.31c-.34.91-.66,1.99-.97,3.24s-.58,2.48-.79,3.71c-.22,1.22-.4,2.29-.54,3.2-.05.19-.07.38-.07.58v.5c0,1.44.55,2.16,1.66,2.16.67,0,1.51-.31,2.52-.94.96-.58,1.88-1.33,2.77-2.27.89-.94,1.52-1.64,1.91-2.12.96-1.25,1.87-2.58,2.74-4s1.61-2.72,2.23-3.92c.24-.38.41-.58.5-.58.29,0,.43.41.43,1.22,0,.38-.06.83-.18,1.33-.12.5-.3.97-.54,1.4-.67,1.15-1.46,2.42-2.38,3.82-.91,1.39-1.85,2.74-2.81,4.03-.72.96-1.73,1.99-3.02,3.1-1.3,1.11-2.69,2.04-4.18,2.81-1.49.77-2.91,1.15-4.25,1.15ZM136.88,281.36c2.4-2.83,4.83-5.87,7.31-9.11,2.47-3.24,4.52-6.54,6.16-9.9.1-.24.31-.72.65-1.44.33-.72.65-1.52.94-2.41.29-.89.43-1.64.43-2.27,0-.82-.31-1.22-.94-1.22h-.5c-.62,0-1.36.43-2.2,1.3-.84.86-1.69,2.02-2.56,3.46-1.1,1.82-2.18,3.92-3.24,6.3-1.06,2.38-2.09,4.88-3.1,7.52-1.01,2.64-1.99,5.23-2.95,7.78Z"/>
        <path class="cls-17" d="M151.49,307.35c-2.21,0-4.12-.7-5.72-2.09-1.61-1.39-2.41-3.62-2.41-6.7,0-2.26.41-4.61,1.22-7.06.82-2.45,1.98-4.73,3.49-6.84s3.35-3.84,5.51-5.18c2.16-1.34,4.58-2.02,7.27-2.02,2.21,0,3.92.42,5.15,1.26,1.22.84,2.1,1.96,2.63,3.35.53,1.39.79,2.88.79,4.46,0,1.2-.13,2.41-.4,3.64-.26,1.22-.64,2.44-1.12,3.64.82.96,1.85,1.44,3.1,1.44,1.34,0,2.59-.5,3.74-1.51.67-.58,1.28-1.31,1.84-2.2.55-.89,1.04-1.72,1.48-2.48.14-.29.31-.43.5-.43.24,0,.36.34.36,1.01,0,.43-.06.94-.18,1.51-.12.58-.37,1.15-.76,1.73-.72,1.25-1.46,2.2-2.23,2.84-.77.65-1.63,1.16-2.59,1.55-.72.29-1.49.43-2.3.43-1.49,0-2.83-.46-4.03-1.37-.38.82-.86,1.66-1.44,2.52-1.39,2.35-3.19,4.36-5.4,6.01-2.21,1.66-5.04,2.48-8.5,2.48ZM154.23,304.61c1.1,0,2.17-.37,3.2-1.12,1.03-.74,1.98-1.67,2.84-2.77.86-1.1,1.62-2.26,2.27-3.46.65-1.2,1.19-2.26,1.62-3.17-1.63-1.39-2.45-3.14-2.45-5.26,0-1.39.38-2.47,1.15-3.24s1.82-1.1,3.17-1.01c-.05-1.1-.34-2.02-.86-2.74s-1.39-1.08-2.59-1.08c-1.1,0-2.15.34-3.13,1.01-.98.67-1.9,1.52-2.74,2.56s-1.58,2.09-2.23,3.17c-.65,1.08-1.19,2.05-1.62,2.92-.62,1.25-1.2,2.76-1.73,4.54-.53,1.78-.79,3.43-.79,4.97,0,1.34.28,2.46.83,3.35.55.89,1.57,1.33,3.06,1.33Z"/>
        <path class="cls-2" d="M182.74,324.41c.77-1.06,1.43-2.16,1.98-3.31.55-1.15,1.07-2.28,1.55-3.38.87-2.06,1.82-4.57,2.88-7.52,1.05-2.95,2.13-6.05,3.24-9.29,1.1-3.24,2.16-6.25,3.17-9.04-.86,1.54-1.78,3.07-2.74,4.61-.96,1.54-1.92,2.86-2.88,3.96-1.54,1.87-3.16,3.43-4.86,4.68-1.7,1.25-3.4,1.87-5.08,1.87-1.34,0-2.48-.49-3.42-1.48-.94-.98-1.4-2.7-1.4-5.15s.43-5.06,1.3-7.7c.86-2.64,2.08-5.1,3.64-7.38,1.56-2.28,3.41-4.12,5.54-5.51,2.13-1.39,4.47-2.09,7.02-2.09,1.2,0,2.51.28,3.92.83s2.39,1.62,2.92,3.2c.67-1.34,1.49-2.3,2.45-2.88.96-.58,2.57-.86,4.82-.86h2.16c-.62.38-1.35,1.18-2.16,2.38-.82,1.2-1.62,2.58-2.41,4.14-.79,1.56-1.48,3.04-2.05,4.43-.67,1.63-1.31,3.23-1.91,4.79-.6,1.56-1.16,3.13-1.69,4.72-.05.91.1,1.67.43,2.27.34.6.84.9,1.51.9.24,0,.54-.05.9-.14.36-.1.71-.26,1.04-.5.72-.48,1.4-1.1,2.05-1.87.65-.77,1.26-1.51,1.84-2.23.96-1.25,1.9-2.62,2.81-4.1.91-1.49,1.68-2.83,2.3-4.03.14-.33.31-.5.5-.5.24,0,.36.41.36,1.22,0,.38-.05.83-.14,1.33-.1.5-.29,1-.58,1.48-.62,1.06-1.38,2.3-2.27,3.74-.89,1.44-1.85,2.82-2.88,4.14-1.03,1.32-2.17,2.39-3.42,3.2-1.15.72-2.23,1.08-3.24,1.08-1.3,0-2.16-.55-2.59-1.66-.77,2.5-1.53,5.06-2.27,7.7-.74,2.64-1.55,5.38-2.41,8.21-.43,1.39-1.16,2.62-2.2,3.67-1.03,1.06-2.68,1.7-4.93,1.94-.38.05-.82.08-1.3.11s-.98.04-1.51.04ZM183.25,300.94c.14.05.36.07.65.07.91,0,1.9-.38,2.95-1.15,1.06-.77,2.11-1.76,3.17-2.99,1.06-1.22,1.99-2.46,2.81-3.71,1.58-2.45,2.84-4.45,3.78-6.01.94-1.56,1.62-2.72,2.05-3.49l.5-1.15c-.24-.77-.66-1.32-1.26-1.66-.6-.33-1.29-.5-2.05-.5-1.05,0-2.17.29-3.35.86-1.18.58-2.17,1.27-2.99,2.09-1.25,1.25-2.44,2.86-3.56,4.82-1.13,1.97-2.04,3.91-2.74,5.83-.7,1.92-1.04,3.53-1.04,4.82,0,1.2.36,1.92,1.08,2.16Z"/>
      </g>
      <text class="cls-22" transform="translate(12.19 338.51)"><tspan x="0" y="0">Excellence Meets Eloquence</tspan></text>
    </g>
  </g>
</svg>