<?xml version="1.0" encoding="UTF-8"?>
<svg xmlns="http://www.w3.org/2000/svg" xmlns:xlink="http://www.w3.org/1999/xlink" viewBox="0 0 423.55 392.42">
  <defs>
    <style>
      .cls-1 {
        fill: url(#linear-gradient-138);
      }

      .cls-1, .cls-2, .cls-3, .cls-4, .cls-5, .cls-6, .cls-7, .cls-8, .cls-9, .cls-10, .cls-11, .cls-12, .cls-13, .cls-14, .cls-15, .cls-16, .cls-17, .cls-18, .cls-19, .cls-20, .cls-21, .cls-22, .cls-23, .cls-24, .cls-25, .cls-26, .cls-27, .cls-28, .cls-29, .cls-30, .cls-31, .cls-32, .cls-33, .cls-34, .cls-35, .cls-36, .cls-37, .cls-38, .cls-39, .cls-40, .cls-41, .cls-42, .cls-43, .cls-44, .cls-45, .cls-46, .cls-47, .cls-48, .cls-49, .cls-50, .cls-51, .cls-52, .cls-53, .cls-54, .cls-55, .cls-56, .cls-57, .cls-58, .cls-59, .cls-60, .cls-61, .cls-62, .cls-63, .cls-64, .cls-65, .cls-66, .cls-67, .cls-68, .cls-69, .cls-70, .cls-71, .cls-72, .cls-73, .cls-74, .cls-75, .cls-76, .cls-77, .cls-78, .cls-79, .cls-80, .cls-81, .cls-82, .cls-83, .cls-84, .cls-85, .cls-86, .cls-87, .cls-88, .cls-89, .cls-90, .cls-91, .cls-92, .cls-93, .cls-94, .cls-95, .cls-96, .cls-97, .cls-98, .cls-99, .cls-100, .cls-101, .cls-102, .cls-103, .cls-104, .cls-105, .cls-106, .cls-107, .cls-108, .cls-109, .cls-110, .cls-111, .cls-112, .cls-113, .cls-114, .cls-115, .cls-116, .cls-117, .cls-118, .cls-119, .cls-120, .cls-121, .cls-122, .cls-123, .cls-124, .cls-125, .cls-126, .cls-127, .cls-128, .cls-129, .cls-130, .cls-131, .cls-132, .cls-133, .cls-134, .cls-135, .cls-136, .cls-137, .cls-138, .cls-139, .cls-140, .cls-141, .cls-142, .cls-143, .cls-144, .cls-145, .cls-146, .cls-147, .cls-148, .cls-149, .cls-150 {
        stroke-width: 0px;
      }

      .cls-1, .cls-18, .cls-74, .cls-93, .cls-97 {
        opacity: .3;
      }

      .cls-151 {
        opacity: .81;
      }

      .cls-2 {
        fill: #f4ccb0;
      }

      .cls-3 {
        fill: #eaeaea;
      }

      .cls-4 {
        fill: url(#linear-gradient-127);
      }

      .cls-5 {
        fill: url(#linear-gradient-17);
      }

      .cls-6 {
        fill: url(#linear-gradient-132);
      }

      .cls-7 {
        fill: url(#linear-gradient-88);
      }

      .cls-8 {
        fill: url(#linear-gradient-19);
      }

      .cls-9 {
        fill: url(#linear-gradient);
      }

      .cls-10 {
        fill: url(#linear-gradient-62);
      }

      .cls-11 {
        fill: #300e70;
      }

      .cls-12 {
        fill: url(#linear-gradient-92);
      }

      .cls-13 {
        fill: url(#linear-gradient-98);
      }

      .cls-14 {
        fill: url(#linear-gradient-139);
      }

      .cls-15 {
        fill: url(#linear-gradient-67);
      }

      .cls-16 {
        fill: url(#linear-gradient-57);
      }

      .cls-152 {
        stroke: url(#linear-gradient-39);
      }

      .cls-152, .cls-153, .cls-154, .cls-155, .cls-156, .cls-157, .cls-158, .cls-159 {
        fill: none;
        stroke-linecap: round;
        stroke-linejoin: round;
        stroke-width: 2.38px;
      }

      .cls-17 {
        fill: url(#linear-gradient-6);
      }

      .cls-153 {
        stroke: url(#linear-gradient-37);
      }

      .cls-18 {
        fill: url(#linear-gradient-141);
      }

      .cls-19 {
        fill: #080749;
      }

      .cls-20 {
        fill: #fcfcfa;
      }

      .cls-21 {
        fill: url(#linear-gradient-76);
      }

      .cls-154 {
        stroke: url(#linear-gradient-35);
      }

      .cls-22 {
        fill: url(#linear-gradient-124);
      }

      .cls-23 {
        fill: #3e3e65;
      }

      .cls-155 {
        stroke: url(#linear-gradient-41);
      }

      .cls-160 {
        isolation: isolate;
      }

      .cls-24 {
        fill: url(#linear-gradient-136);
      }

      .cls-25 {
        fill: url(#linear-gradient-42);
      }

      .cls-26 {
        fill: url(#linear-gradient-33);
      }

      .cls-26, .cls-27, .cls-39, .cls-43, .cls-50, .cls-56, .cls-57, .cls-70, .cls-112, .cls-121, .cls-144 {
        mix-blend-mode: screen;
      }

      .cls-27 {
        fill: url(#linear-gradient-85);
      }

      .cls-28 {
        fill: url(#linear-gradient-104);
      }

      .cls-29 {
        fill: url(#linear-gradient-95);
      }

      .cls-30 {
        fill: url(#linear-gradient-15);
      }

      .cls-31 {
        fill: url(#linear-gradient-106);
      }

      .cls-32 {
        fill: url(#linear-gradient-101);
      }

      .cls-33 {
        fill: url(#linear-gradient-81);
      }

      .cls-34 {
        fill: url(#linear-gradient-73);
      }

      .cls-35 {
        fill: url(#linear-gradient-91);
      }

      .cls-36 {
        fill: url(#linear-gradient-5);
      }

      .cls-37 {
        fill: url(#linear-gradient-31);
      }

      .cls-38 {
        fill: url(#linear-gradient-103);
      }

      .cls-39 {
        fill: url(#linear-gradient-20);
      }

      .cls-40 {
        fill: url(#linear-gradient-71);
      }

      .cls-41 {
        fill: url(#linear-gradient-58);
      }

      .cls-42 {
        fill: url(#linear-gradient-63);
      }

      .cls-43 {
        fill: url(#linear-gradient-114);
      }

      .cls-44 {
        fill: url(#linear-gradient-122);
      }

      .cls-45 {
        fill: url(#linear-gradient-96);
      }

      .cls-46 {
        fill: url(#linear-gradient-130);
      }

      .cls-47 {
        fill: url(#linear-gradient-120);
      }

      .cls-48 {
        opacity: .62;
      }

      .cls-48, .cls-161, .cls-108, .cls-126, .cls-148 {
        fill: #fff;
      }

      .cls-49 {
        fill: url(#linear-gradient-89);
      }

      .cls-50 {
        fill: url(#linear-gradient-11);
      }

      .cls-51 {
        fill: url(#linear-gradient-66);
      }

      .cls-52 {
        fill: url(#linear-gradient-126);
      }

      .cls-53 {
        fill: url(#linear-gradient-13);
      }

      .cls-54 {
        fill: url(#linear-gradient-25);
      }

      .cls-55 {
        fill: url(#linear-gradient-43);
      }

      .cls-56 {
        fill: url(#linear-gradient-10);
      }

      .cls-57 {
        fill: url(#linear-gradient-22);
      }

      .cls-58 {
        fill: url(#linear-gradient-16);
      }

      .cls-59 {
        fill: url(#linear-gradient-54);
      }

      .cls-60 {
        fill: url(#linear-gradient-55);
      }

      .cls-61 {
        fill: url(#linear-gradient-110);
      }

      .cls-62 {
        fill: #301da0;
      }

      .cls-63 {
        fill: url(#linear-gradient-50);
      }

      .cls-64 {
        fill: url(#linear-gradient-32);
      }

      .cls-65 {
        fill: url(#linear-gradient-60);
      }

      .cls-66 {
        fill: url(#linear-gradient-59);
      }

      .cls-67 {
        fill: url(#linear-gradient-2);
      }

      .cls-68 {
        fill: url(#linear-gradient-14);
        mix-blend-mode: multiply;
        opacity: .24;
      }

      .cls-69 {
        fill: #eefdff;
      }

      .cls-70 {
        fill: url(#linear-gradient-23);
      }

      .cls-71 {
        fill: url(#linear-gradient-52);
      }

      .cls-72 {
        fill: url(#linear-gradient-45);
      }

      .cls-73 {
        fill: url(#linear-gradient-93);
      }

      .cls-74 {
        fill: url(#linear-gradient-140);
      }

      .cls-156 {
        stroke: url(#linear-gradient-34);
      }

      .cls-75 {
        fill: url(#linear-gradient-7);
      }

      .cls-76 {
        fill: url(#linear-gradient-3);
      }

      .cls-77 {
        fill: url(#linear-gradient-77);
      }

      .cls-78 {
        fill: url(#linear-gradient-119);
      }

      .cls-79 {
        fill: url(#linear-gradient-69);
      }

      .cls-80 {
        fill: url(#linear-gradient-125);
      }

      .cls-81 {
        fill: url(#linear-gradient-94);
      }

      .cls-82 {
        fill: url(#linear-gradient-27);
      }

      .cls-83 {
        fill: url(#linear-gradient-134);
      }

      .cls-161 {
        stroke: #fff;
        stroke-miterlimit: 10;
        stroke-width: .76px;
      }

      .cls-84 {
        fill: url(#linear-gradient-100);
      }

      .cls-85 {
        fill: url(#linear-gradient-131);
      }

      .cls-157 {
        stroke: url(#linear-gradient-38);
      }

      .cls-86 {
        fill: url(#linear-gradient-82);
      }

      .cls-87 {
        fill: url(#linear-gradient-105);
      }

      .cls-88 {
        fill: url(#linear-gradient-83);
      }

      .cls-89 {
        fill: url(#linear-gradient-53);
      }

      .cls-90 {
        fill: url(#linear-gradient-90);
      }

      .cls-91 {
        fill: url(#linear-gradient-117);
      }

      .cls-92 {
        fill: #ffd1a4;
      }

      .cls-93 {
        fill: url(#linear-gradient-133);
      }

      .cls-94 {
        fill: url(#linear-gradient-65);
      }

      .cls-95 {
        fill: url(#linear-gradient-48);
      }

      .cls-96 {
        fill: url(#linear-gradient-49);
      }

      .cls-97 {
        fill: url(#linear-gradient-137);
      }

      .cls-98 {
        fill: url(#linear-gradient-8);
      }

      .cls-99 {
        fill: url(#linear-gradient-47);
      }

      .cls-100 {
        fill: url(#linear-gradient-24);
      }

      .cls-101 {
        fill: url(#linear-gradient-26);
      }

      .cls-102 {
        fill: url(#linear-gradient-61);
      }

      .cls-103 {
        fill: url(#linear-gradient-18);
      }

      .cls-104 {
        fill: #f2ba88;
      }

      .cls-105 {
        fill: url(#linear-gradient-51);
      }

      .cls-106 {
        fill: url(#linear-gradient-30);
      }

      .cls-107 {
        fill: url(#linear-gradient-121);
      }

      .cls-158 {
        stroke: url(#linear-gradient-40);
      }

      .cls-109 {
        fill: url(#linear-gradient-44);
      }

      .cls-110 {
        fill: url(#linear-gradient-84);
      }

      .cls-111 {
        fill: url(#linear-gradient-97);
      }

      .cls-112 {
        fill: url(#linear-gradient-12);
      }

      .cls-113 {
        fill: url(#linear-gradient-68);
      }

      .cls-114 {
        fill: url(#linear-gradient-129);
      }

      .cls-115 {
        fill: url(#linear-gradient-72);
      }

      .cls-116 {
        fill: url(#linear-gradient-29);
      }

      .cls-117 {
        fill: url(#linear-gradient-46);
      }

      .cls-118 {
        fill: url(#linear-gradient-64);
      }

      .cls-119 {
        fill: url(#linear-gradient-107);
      }

      .cls-120 {
        fill: url(#linear-gradient-109);
      }

      .cls-121 {
        fill: url(#linear-gradient-9);
      }

      .cls-122 {
        fill: url(#linear-gradient-113);
      }

      .cls-123 {
        fill: url(#linear-gradient-28);
      }

      .cls-124 {
        fill: url(#linear-gradient-56);
      }

      .cls-125 {
        fill: url(#linear-gradient-99);
      }

      .cls-126 {
        opacity: .5;
      }

      .cls-127 {
        fill: url(#linear-gradient-87);
      }

      .cls-128 {
        fill: url(#linear-gradient-70);
      }

      .cls-129 {
        fill: url(#linear-gradient-78);
      }

      .cls-130 {
        fill: url(#linear-gradient-86);
      }

      .cls-131 {
        fill: url(#linear-gradient-74);
      }

      .cls-132 {
        fill: url(#linear-gradient-102);
      }

      .cls-159 {
        stroke: url(#linear-gradient-36);
      }

      .cls-133 {
        fill: url(#linear-gradient-4);
      }

      .cls-134 {
        fill: url(#linear-gradient-118);
      }

      .cls-135 {
        fill: url(#linear-gradient-112);
      }

      .cls-136 {
        fill: url(#linear-gradient-123);
      }

      .cls-137 {
        fill: url(#linear-gradient-128);
      }

      .cls-138 {
        fill: #f1bf9c;
      }

      .cls-139 {
        fill: url(#linear-gradient-80);
      }

      .cls-140 {
        fill: #100942;
      }

      .cls-141 {
        fill: url(#linear-gradient-115);
      }

      .cls-142 {
        fill: url(#linear-gradient-135);
      }

      .cls-143 {
        fill: url(#linear-gradient-116);
      }

      .cls-144 {
        fill: url(#linear-gradient-21);
      }

      .cls-145 {
        fill: #fefefe;
      }

      .cls-146 {
        fill: url(#linear-gradient-79);
      }

      .cls-147 {
        fill: url(#linear-gradient-111);
      }

      .cls-148 {
        opacity: .05;
      }

      .cls-149 {
        fill: url(#linear-gradient-108);
      }

      .cls-150 {
        fill: url(#linear-gradient-75);
      }
    </style>
    <linearGradient id="linear-gradient" x1="146.01" y1="43.69" x2="192.93" y2="43.69" gradientUnits="userSpaceOnUse">
      <stop offset="0" stop-color="#00fff9"/>
      <stop offset=".09" stop-color="#00f6f9"/>
      <stop offset="1" stop-color="#00a9ff"/>
    </linearGradient>
    <linearGradient id="linear-gradient-2" x1="148.54" y1="45.92" x2="198.94" y2="45.92" gradientUnits="userSpaceOnUse">
      <stop offset="0" stop-color="#00fff9"/>
      <stop offset=".41" stop-color="#38fffb"/>
      <stop offset="1" stop-color="#86ffff"/>
    </linearGradient>
    <linearGradient id="linear-gradient-3" x1="183.23" y1="42.1" x2="204.24" y2="42.1" xlink:href="#linear-gradient"/>
    <linearGradient id="linear-gradient-4" x1="184.36" y1="43.1" x2="206.93" y2="43.1" xlink:href="#linear-gradient-2"/>
    <linearGradient id="linear-gradient-5" x1="162.76" y1="15.56" x2="192.93" y2="15.56" gradientUnits="userSpaceOnUse">
      <stop offset="0" stop-color="#ffee0e"/>
      <stop offset=".12" stop-color="#ffd11e"/>
      <stop offset=".28" stop-color="#ffaf33"/>
      <stop offset=".46" stop-color="#ff9543"/>
      <stop offset=".63" stop-color="#ff824e"/>
      <stop offset=".81" stop-color="#ff7655"/>
      <stop offset="1" stop-color="#ff7358"/>
    </linearGradient>
    <linearGradient id="linear-gradient-6" x1="162.8" y1="8.08" x2="187.78" y2="26.96" gradientUnits="userSpaceOnUse">
      <stop offset="0" stop-color="#ffee0e"/>
      <stop offset=".14" stop-color="#ffe00a"/>
      <stop offset=".42" stop-color="#ffce04"/>
      <stop offset=".7" stop-color="#ffc201"/>
      <stop offset="1" stop-color="#ffbf00"/>
    </linearGradient>
    <linearGradient id="linear-gradient-7" x1="325.24" y1="221.4" x2="387.86" y2="221.4" gradientUnits="userSpaceOnUse">
      <stop offset="0" stop-color="#ffee0e"/>
      <stop offset=".12" stop-color="#ffd11e"/>
      <stop offset=".28" stop-color="#ffaf33"/>
      <stop offset=".46" stop-color="#ff9543"/>
      <stop offset=".63" stop-color="#ff824e"/>
      <stop offset=".81" stop-color="#ff7655"/>
      <stop offset="1" stop-color="#ff7358"/>
    </linearGradient>
    <linearGradient id="linear-gradient-8" x1="319.02" y1="223.49" x2="383.01" y2="223.49" gradientUnits="userSpaceOnUse">
      <stop offset="0" stop-color="#ffee0e"/>
      <stop offset=".03" stop-color="#ffea0d"/>
      <stop offset=".26" stop-color="#ffd007"/>
      <stop offset=".5" stop-color="#ffbd03"/>
      <stop offset=".74" stop-color="#ffb100"/>
      <stop offset="1" stop-color="#ffae00"/>
    </linearGradient>
    <linearGradient id="linear-gradient-9" x1="334.26" y1="188.84" x2="367.01" y2="256.59" xlink:href="#linear-gradient-8"/>
    <linearGradient id="linear-gradient-10" x1="334.26" y1="188.84" x2="367.01" y2="256.59" xlink:href="#linear-gradient-8"/>
    <linearGradient id="linear-gradient-11" x1="334.26" y1="188.85" x2="367.01" y2="256.6" xlink:href="#linear-gradient-8"/>
    <linearGradient id="linear-gradient-12" x1="334.26" y1="188.85" x2="367.01" y2="256.6" xlink:href="#linear-gradient-8"/>
    <linearGradient id="linear-gradient-13" x1="173.63" y1="261.45" x2="278.07" y2="261.45" gradientTransform="translate(0 -3.25) rotate(.75) skewX(.75)" gradientUnits="userSpaceOnUse">
      <stop offset="0" stop-color="#06c9fd"/>
      <stop offset=".25" stop-color="#04adf1"/>
      <stop offset="1" stop-color="#0060d0"/>
    </linearGradient>
    <linearGradient id="linear-gradient-14" x1="110.13" y1="258.85" x2="339.49" y2="258.85" gradientTransform="translate(0 -3.25) rotate(.75) skewX(.75)" gradientUnits="userSpaceOnUse">
      <stop offset="0" stop-color="#3278f2"/>
      <stop offset="1" stop-color="#186afd"/>
    </linearGradient>
    <linearGradient id="linear-gradient-15" x1="126.68" y1="171.43" x2="326.22" y2="171.43" gradientUnits="userSpaceOnUse">
      <stop offset="0" stop-color="#06c9fd"/>
      <stop offset=".5" stop-color="#0277c5"/>
      <stop offset="1" stop-color="#002a90"/>
    </linearGradient>
    <linearGradient id="linear-gradient-16" x1="277.17" y1="347.51" x2="296.8" y2="359.28" gradientTransform="translate(0 -250.88) rotate(32.54) scale(1.19 .84) skewX(24.39)" xlink:href="#linear-gradient-13"/>
    <linearGradient id="linear-gradient-17" x1="289.86" y1="347.51" x2="309.49" y2="359.28" gradientTransform="translate(0 -250.88) rotate(32.54) scale(1.19 .84) skewX(24.39)" xlink:href="#linear-gradient-13"/>
    <linearGradient id="linear-gradient-18" x1="302.55" y1="347.51" x2="322.18" y2="359.28" gradientTransform="translate(0 -250.88) rotate(32.54) scale(1.19 .84) skewX(24.39)" xlink:href="#linear-gradient-13"/>
    <linearGradient id="linear-gradient-19" x1="128.1" y1="159.4" x2="317.48" y2="159.4" gradientTransform="translate(0 -3.25) rotate(.75) skewX(.75)" gradientUnits="userSpaceOnUse">
      <stop offset="0" stop-color="#00fff9"/>
      <stop offset=".5" stop-color="#00ade2"/>
      <stop offset="1" stop-color="#0060ce"/>
    </linearGradient>
    <linearGradient id="linear-gradient-20" x1="134.8" y1="147.62" x2="150.61" y2="147.62" gradientUnits="userSpaceOnUse">
      <stop offset="0" stop-color="#00fff9"/>
      <stop offset=".5" stop-color="#00ade2"/>
      <stop offset="1" stop-color="#0060ce"/>
    </linearGradient>
    <linearGradient id="linear-gradient-21" x1="151.63" y1="151.75" x2="167.44" y2="151.75" xlink:href="#linear-gradient-20"/>
    <linearGradient id="linear-gradient-22" x1="168.45" y1="170.36" x2="184.26" y2="170.36" xlink:href="#linear-gradient-20"/>
    <linearGradient id="linear-gradient-23" x1="185.28" y1="162.42" x2="201.09" y2="162.42" xlink:href="#linear-gradient-20"/>
    <linearGradient id="linear-gradient-24" x1="103.77" y1="73.84" x2="202.46" y2="73.84" xlink:href="#linear-gradient-15"/>
    <linearGradient id="linear-gradient-25" x1="135.9" y1="58.5" x2="199.52" y2="96.86" gradientUnits="userSpaceOnUse">
      <stop offset="0" stop-color="#00bcff"/>
      <stop offset=".12" stop-color="#00a8fe"/>
      <stop offset=".33" stop-color="#008efd"/>
      <stop offset=".55" stop-color="#007bfd"/>
      <stop offset=".77" stop-color="#006ffd"/>
      <stop offset="1" stop-color="#006cfd"/>
    </linearGradient>
    <linearGradient id="linear-gradient-26" x1="134.25" y1="61.24" x2="197.88" y2="99.59" xlink:href="#linear-gradient-25"/>
    <linearGradient id="linear-gradient-27" x1="133.93" y1="61.76" x2="197.56" y2="100.12" xlink:href="#linear-gradient-25"/>
    <linearGradient id="linear-gradient-28" x1="132.27" y1="64.52" x2="195.89" y2="102.87" xlink:href="#linear-gradient-25"/>
    <linearGradient id="linear-gradient-29" x1="131.95" y1="65.05" x2="195.58" y2="103.4" xlink:href="#linear-gradient-25"/>
    <linearGradient id="linear-gradient-30" x1="130.41" y1="67.61" x2="194.03" y2="105.96" xlink:href="#linear-gradient-25"/>
    <linearGradient id="linear-gradient-31" x1="101.79" y1="27.87" x2="129.54" y2="74.25" xlink:href="#linear-gradient-2"/>
    <linearGradient id="linear-gradient-32" x1="104.99" y1="52.9" x2="127.93" y2="52.9" xlink:href="#linear-gradient"/>
    <linearGradient id="linear-gradient-33" x1="205.98" y1="189.84" x2="306.17" y2="189.84" xlink:href="#linear-gradient-20"/>
    <linearGradient id="linear-gradient-34" x1="226.82" y1="116.55" x2="231.56" y2="124.27" gradientTransform="matrix(1,0,0,1,0,0)" xlink:href="#linear-gradient-19"/>
    <linearGradient id="linear-gradient-35" x1="238.37" y1="123.85" x2="243.11" y2="131.56" gradientTransform="matrix(1,0,0,1,0,0)" xlink:href="#linear-gradient-19"/>
    <linearGradient id="linear-gradient-36" x1="249.92" y1="131.15" x2="254.65" y2="138.87" gradientTransform="matrix(1,0,0,1,0,0)" xlink:href="#linear-gradient-19"/>
    <linearGradient id="linear-gradient-37" x1="261.46" y1="138.44" x2="266.2" y2="146.16" gradientTransform="matrix(1,0,0,1,0,0)" xlink:href="#linear-gradient-19"/>
    <linearGradient id="linear-gradient-38" x1="273" y1="145.74" x2="277.74" y2="153.45" gradientTransform="matrix(1,0,0,1,0,0)" xlink:href="#linear-gradient-19"/>
    <linearGradient id="linear-gradient-39" x1="284.55" y1="153.01" x2="289.29" y2="160.72" gradientTransform="matrix(1,0,0,1,0,0)" xlink:href="#linear-gradient-19"/>
    <linearGradient id="linear-gradient-40" x1="296.09" y1="160.3" x2="300.83" y2="168.02" gradientTransform="matrix(1,0,0,1,0,0)" xlink:href="#linear-gradient-19"/>
    <linearGradient id="linear-gradient-41" x1="215.28" y1="109.27" x2="220.02" y2="116.99" gradientTransform="matrix(1,0,0,1,0,0)" xlink:href="#linear-gradient-19"/>
    <linearGradient id="linear-gradient-42" x1="216.42" y1="136.86" x2="291.17" y2="248.61" xlink:href="#linear-gradient-25"/>
    <linearGradient id="linear-gradient-43" x1="277.93" y1="225.68" x2="261.28" y2="196.69" xlink:href="#linear-gradient-2"/>
    <linearGradient id="linear-gradient-44" x1="261.41" y1="232.16" x2="246.1" y2="205.7" xlink:href="#linear-gradient-2"/>
    <linearGradient id="linear-gradient-45" x1="245.34" y1="188.25" x2="261.1" y2="212.93" gradientUnits="userSpaceOnUse">
      <stop offset="0" stop-color="#ffee0e"/>
      <stop offset=".12" stop-color="#ffd11e"/>
      <stop offset=".28" stop-color="#ffaf33"/>
      <stop offset=".46" stop-color="#ff9543"/>
      <stop offset=".63" stop-color="#ff824e"/>
      <stop offset=".81" stop-color="#ff7655"/>
      <stop offset="1" stop-color="#ff7358"/>
    </linearGradient>
    <linearGradient id="linear-gradient-46" x1="261.42" y1="163.4" x2="277.19" y2="188.09" xlink:href="#linear-gradient-45"/>
    <linearGradient id="linear-gradient-47" x1="213.16" y1="167.93" x2="228.93" y2="192.62" xlink:href="#linear-gradient-45"/>
    <linearGradient id="linear-gradient-48" x1="232.06" y1="165.21" x2="242.47" y2="182.31" xlink:href="#linear-gradient-25"/>
    <linearGradient id="linear-gradient-49" x1="280.61" y1="231.16" x2="290.79" y2="247.44" xlink:href="#linear-gradient-25"/>
    <linearGradient id="linear-gradient-50" x1="233.56" y1="199.88" x2="245" y2="215.38" xlink:href="#linear-gradient-45"/>
    <linearGradient id="linear-gradient-51" x1="232.54" y1="200.63" x2="243.98" y2="216.13" xlink:href="#linear-gradient-45"/>
    <linearGradient id="linear-gradient-52" x1="231.52" y1="201.38" x2="242.96" y2="216.88" xlink:href="#linear-gradient-45"/>
    <linearGradient id="linear-gradient-53" x1="229.41" y1="202.93" x2="240.85" y2="218.43" xlink:href="#linear-gradient-45"/>
    <linearGradient id="linear-gradient-54" x1="265.63" y1="184.8" x2="276.76" y2="200.8" xlink:href="#linear-gradient-25"/>
    <linearGradient id="linear-gradient-55" x1="264.63" y1="185.5" x2="275.76" y2="201.5" xlink:href="#linear-gradient-25"/>
    <linearGradient id="linear-gradient-56" x1="263.64" y1="186.19" x2="274.76" y2="202.19" xlink:href="#linear-gradient-25"/>
    <linearGradient id="linear-gradient-57" x1="261.45" y1="187.72" x2="272.57" y2="203.71" xlink:href="#linear-gradient-25"/>
    <linearGradient id="linear-gradient-58" x1="75.65" y1="54.84" x2="94.94" y2="78.95" xlink:href="#linear-gradient-2"/>
    <linearGradient id="linear-gradient-59" x1="97.93" y1="96.01" x2="120.67" y2="96.01" gradientTransform="translate(0 -158.12) rotate(51.33) scale(1.6 .62) skewX(26)" xlink:href="#linear-gradient-2"/>
    <linearGradient id="linear-gradient-60" x1="97.93" y1="100.95" x2="120.67" y2="100.95" gradientTransform="translate(0 -158.12) rotate(51.33) scale(1.6 .62) skewX(26)" xlink:href="#linear-gradient-2"/>
    <linearGradient id="linear-gradient-61" x1="97.93" y1="105.89" x2="120.67" y2="105.89" gradientTransform="translate(0 -158.12) rotate(51.33) scale(1.6 .62) skewX(26)" xlink:href="#linear-gradient-2"/>
    <linearGradient id="linear-gradient-62" x1="97.93" y1="114.44" x2="109.08" y2="114.44" gradientTransform="translate(0 -158.12) rotate(51.33) scale(1.6 .62) skewX(26)" xlink:href="#linear-gradient-2"/>
    <linearGradient id="linear-gradient-63" x1="89" y1="290.87" x2="81.09" y2="277.11" gradientTransform="translate(0 -240.02) rotate(32) scale(1.18 .85) skewX(24.2)" xlink:href="#linear-gradient-2"/>
    <linearGradient id="linear-gradient-64" x1="75.65" y1="85.65" x2="94.94" y2="109.76" xlink:href="#linear-gradient-2"/>
    <linearGradient id="linear-gradient-65" x1="97.93" y1="126.82" x2="120.67" y2="126.82" gradientTransform="translate(0 -158.12) rotate(51.33) scale(1.6 .62) skewX(26)" xlink:href="#linear-gradient-2"/>
    <linearGradient id="linear-gradient-66" x1="97.93" y1="131.76" x2="120.67" y2="131.76" gradientTransform="translate(0 -158.12) rotate(51.33) scale(1.6 .62) skewX(26)" xlink:href="#linear-gradient-2"/>
    <linearGradient id="linear-gradient-67" x1="97.93" y1="136.7" x2="120.67" y2="136.7" gradientTransform="translate(0 -158.12) rotate(51.33) scale(1.6 .62) skewX(26)" xlink:href="#linear-gradient-2"/>
    <linearGradient id="linear-gradient-68" x1="97.93" y1="145.25" x2="109.08" y2="145.25" gradientTransform="translate(0 -158.12) rotate(51.33) scale(1.6 .62) skewX(26)" xlink:href="#linear-gradient-2"/>
    <linearGradient id="linear-gradient-69" x1="75.65" y1="116.46" x2="94.94" y2="140.57" xlink:href="#linear-gradient-2"/>
    <linearGradient id="linear-gradient-70" x1="97.93" y1="157.63" x2="120.67" y2="157.63" gradientTransform="translate(0 -158.12) rotate(51.33) scale(1.6 .62) skewX(26)" xlink:href="#linear-gradient-2"/>
    <linearGradient id="linear-gradient-71" x1="97.93" y1="162.57" x2="120.67" y2="162.57" gradientTransform="translate(0 -158.12) rotate(51.33) scale(1.6 .62) skewX(26)" xlink:href="#linear-gradient-2"/>
    <linearGradient id="linear-gradient-72" x1="97.93" y1="167.51" x2="120.67" y2="167.51" gradientTransform="translate(0 -158.12) rotate(51.33) scale(1.6 .62) skewX(26)" xlink:href="#linear-gradient-2"/>
    <linearGradient id="linear-gradient-73" x1="97.93" y1="176.06" x2="109.08" y2="176.06" gradientTransform="translate(0 -158.12) rotate(51.33) scale(1.6 .62) skewX(26)" xlink:href="#linear-gradient-2"/>
    <linearGradient id="linear-gradient-74" x1="69.47" y1="153.08" x2="124.03" y2="190.32" xlink:href="#linear-gradient-7"/>
    <linearGradient id="linear-gradient-75" x1="75.39" y1="299.42" x2="116.91" y2="327.75" gradientTransform="translate(0 -200.82) rotate(32) scale(1.18 .85) skewX(24.2)" xlink:href="#linear-gradient-8"/>
    <linearGradient id="linear-gradient-76" x1="65.49" y1="155.14" x2="120.05" y2="192.38" xlink:href="#linear-gradient-7"/>
    <linearGradient id="linear-gradient-77" x1="71.41" y1="303.97" x2="112.93" y2="332.31" gradientTransform="translate(0 -200.82) rotate(32) scale(1.18 .85) skewX(24.2)" xlink:href="#linear-gradient-8"/>
    <linearGradient id="linear-gradient-78" x1="123.23" y1="251.01" x2="162.18" y2="251.01" xlink:href="#linear-gradient-25"/>
    <linearGradient id="linear-gradient-79" x1="132.47" y1="245.31" x2="154.1" y2="245.31" gradientUnits="userSpaceOnUse">
      <stop offset="0" stop-color="#ccc9fd"/>
      <stop offset=".05" stop-color="#c2bef8"/>
      <stop offset=".23" stop-color="#a49cea"/>
      <stop offset=".41" stop-color="#8c82de"/>
      <stop offset=".6" stop-color="#7b6fd6"/>
      <stop offset=".79" stop-color="#7163d1"/>
      <stop offset="1" stop-color="#6e60d0"/>
    </linearGradient>
    <linearGradient id="linear-gradient-80" x1="123.23" y1="245.38" x2="162.18" y2="245.38" xlink:href="#linear-gradient-25"/>
    <linearGradient id="linear-gradient-81" y1="239.69" y2="239.69" xlink:href="#linear-gradient-79"/>
    <linearGradient id="linear-gradient-82" x1="123.23" y1="239.76" x2="162.18" y2="239.76" xlink:href="#linear-gradient-25"/>
    <linearGradient id="linear-gradient-83" x1="132.47" y1="234.06" x2="154.1" y2="234.06" xlink:href="#linear-gradient-25"/>
    <linearGradient id="linear-gradient-84" x1="141.67" y1="252.86" x2="169.88" y2="237.55" gradientTransform="translate(246.52) rotate(-180) scale(1 -1)" gradientUnits="userSpaceOnUse">
      <stop offset="0" stop-color="#0060d2"/>
      <stop offset=".73" stop-color="#00adf2"/>
      <stop offset="1" stop-color="#00cbff"/>
    </linearGradient>
    <linearGradient id="linear-gradient-85" x1="72.02" y1="245.2" x2="109.46" y2="245.2" xlink:href="#linear-gradient-20"/>
    <linearGradient id="linear-gradient-86" x1="297.46" y1="242.59" x2="321.63" y2="242.59" gradientUnits="userSpaceOnUse">
      <stop offset="0" stop-color="#bafff9"/>
      <stop offset=".57" stop-color="#4ecdfc"/>
      <stop offset="1" stop-color="#00a9ff"/>
    </linearGradient>
    <linearGradient id="linear-gradient-87" y1="252.48" x2="322.02" y2="252.48" xlink:href="#linear-gradient-86"/>
    <linearGradient id="linear-gradient-88" x1="299.65" y1="237.89" x2="352.45" y2="237.89" xlink:href="#linear-gradient"/>
    <linearGradient id="linear-gradient-89" x1="299.19" y1="252.4" x2="302.4" y2="252.4" xlink:href="#linear-gradient"/>
    <linearGradient id="linear-gradient-90" x1="230.45" y1="339.43" x2="296.68" y2="339.43" xlink:href="#linear-gradient-15"/>
    <linearGradient id="linear-gradient-91" x1="269.74" y1="379.13" x2="274.11" y2="379.13" gradientUnits="userSpaceOnUse">
      <stop offset="0" stop-color="#ffa88d"/>
      <stop offset=".05" stop-color="#fda389"/>
      <stop offset="1" stop-color="#e15648"/>
    </linearGradient>
    <linearGradient id="linear-gradient-92" x1="253.87" y1="300.93" x2="284.71" y2="369.73" gradientUnits="userSpaceOnUse">
      <stop offset="0" stop-color="#06c9fd"/>
      <stop offset=".15" stop-color="#05baf7"/>
      <stop offset="1" stop-color="#006ddd"/>
    </linearGradient>
    <linearGradient id="linear-gradient-93" x1="274.11" y1="377.68" x2="275.34" y2="377.68" xlink:href="#linear-gradient-91"/>
    <linearGradient id="linear-gradient-94" x1="224.99" y1="344.18" x2="281.2" y2="344.18" xlink:href="#linear-gradient-15"/>
    <linearGradient id="linear-gradient-95" x1="227.19" y1="344.18" x2="278.99" y2="344.18" gradientTransform="matrix(1,0,0,1,0,0)" xlink:href="#linear-gradient-19"/>
    <linearGradient id="linear-gradient-96" x1="250.12" y1="344.05" x2="256.06" y2="344.05" xlink:href="#linear-gradient-15"/>
    <linearGradient id="linear-gradient-97" x1="267.08" y1="321.48" x2="293.16" y2="321.48" xlink:href="#linear-gradient-8"/>
    <linearGradient id="linear-gradient-98" x1="227.81" y1="299.28" x2="255.46" y2="299.28" xlink:href="#linear-gradient-8"/>
    <linearGradient id="linear-gradient-99" x1="188.59" y1="287.99" x2="214.88" y2="287.99" gradientUnits="userSpaceOnUse">
      <stop offset="0" stop-color="#ffae00"/>
      <stop offset=".41" stop-color="#ffba04"/>
      <stop offset="1" stop-color="#ffd30e"/>
    </linearGradient>
    <linearGradient id="linear-gradient-100" x1="170.03" y1="284.63" x2="188.59" y2="284.63" gradientUnits="userSpaceOnUse">
      <stop offset="0" stop-color="#ffd30e"/>
      <stop offset=".39" stop-color="#ffad07"/>
      <stop offset=".78" stop-color="#ff8d02"/>
      <stop offset="1" stop-color="#ff8100"/>
    </linearGradient>
    <linearGradient id="linear-gradient-101" x1="197.43" y1="271.29" x2="197.33" y2="290.82" gradientTransform="matrix(1,0,0,1,0,0)" xlink:href="#linear-gradient-19"/>
    <linearGradient id="linear-gradient-102" x1="181.53" y1="263.37" x2="189.46" y2="284.38" gradientTransform="matrix(1,0,0,1,0,0)" xlink:href="#linear-gradient-19"/>
    <linearGradient id="linear-gradient-103" x1="196.24" y1="287.38" x2="203.23" y2="300.24" gradientTransform="matrix(1,0,0,1,0,0)" xlink:href="#linear-gradient-19"/>
    <linearGradient id="linear-gradient-104" x1="196.32" y1="301.05" x2="214.88" y2="301.05" gradientUnits="userSpaceOnUse">
      <stop offset="0" stop-color="#ffd30e"/>
      <stop offset=".59" stop-color="#ffba04"/>
      <stop offset="1" stop-color="#ffae00"/>
    </linearGradient>
    <linearGradient id="linear-gradient-105" x1="170.02" y1="297.68" x2="196.32" y2="297.68" xlink:href="#linear-gradient-104"/>
    <linearGradient id="linear-gradient-106" x1="342.04" y1="153.44" x2="360.13" y2="153.44" xlink:href="#linear-gradient-7"/>
    <linearGradient id="linear-gradient-107" x1="346.63" y1="147.6" x2="351.85" y2="159.39" xlink:href="#linear-gradient-6"/>
    <linearGradient id="linear-gradient-108" x1="37.86" y1="89.81" x2="51.48" y2="89.81" xlink:href="#linear-gradient"/>
    <linearGradient id="linear-gradient-109" x1="46.89" y1="97.44" x2="40.39" y2="84.19" xlink:href="#linear-gradient-2"/>
    <linearGradient id="linear-gradient-110" x1="216.04" y1="55.16" x2="229.66" y2="55.16" xlink:href="#linear-gradient-7"/>
    <linearGradient id="linear-gradient-111" x1="219.5" y1="50.76" x2="223.42" y2="59.63" xlink:href="#linear-gradient-6"/>
    <linearGradient id="linear-gradient-112" x1="285" y1="72.46" x2="300.52" y2="96.56" xlink:href="#linear-gradient-2"/>
    <linearGradient id="linear-gradient-113" x1="37.98" y1="197.87" x2="53.5" y2="221.97" xlink:href="#linear-gradient-2"/>
    <linearGradient id="linear-gradient-114" x1="304.73" y1="339.43" x2="423.55" y2="339.43" xlink:href="#linear-gradient-20"/>
    <linearGradient id="linear-gradient-115" x1="316.42" y1="335.62" x2="417.64" y2="335.62" gradientUnits="userSpaceOnUse">
      <stop offset="0" stop-color="#00cbff"/>
      <stop offset=".27" stop-color="#00adf2"/>
      <stop offset="1" stop-color="#0060d2"/>
    </linearGradient>
    <linearGradient id="linear-gradient-116" x1="316.42" y1="335.62" x2="417.64" y2="335.62" xlink:href="#linear-gradient-15"/>
    <linearGradient id="linear-gradient-117" x1="316.48" y1="335.98" x2="417.58" y2="335.98" gradientTransform="matrix(1,0,0,1,0,0)" xlink:href="#linear-gradient-19"/>
    <linearGradient id="linear-gradient-118" x1="325.3" y1="356.23" x2="335.03" y2="356.23" xlink:href="#linear-gradient-15"/>
    <linearGradient id="linear-gradient-119" x1="334.38" y1="281.8" x2="365.92" y2="281.8" xlink:href="#linear-gradient"/>
    <linearGradient id="linear-gradient-120" x1="342.26" y1="268.68" x2="358.63" y2="290.06" xlink:href="#linear-gradient"/>
    <linearGradient id="linear-gradient-121" x1="338.75" y1="271.37" x2="355.12" y2="292.75" xlink:href="#linear-gradient"/>
    <linearGradient id="linear-gradient-122" x1="313.64" y1="108.58" x2="379.53" y2="108.58" xlink:href="#linear-gradient"/>
    <linearGradient id="linear-gradient-123" x1="343.96" y1="102.09" x2="375.45" y2="121.08" xlink:href="#linear-gradient-25"/>
    <linearGradient id="linear-gradient-124" x1="344.12" y1="106.24" x2="407.74" y2="144.59" xlink:href="#linear-gradient-25"/>
    <linearGradient id="linear-gradient-125" x1="352.46" y1="111.67" x2="374.27" y2="124.81" xlink:href="#linear-gradient-25"/>
    <linearGradient id="linear-gradient-126" x1="342.13" y1="109.52" x2="405.76" y2="147.88" xlink:href="#linear-gradient-25"/>
    <linearGradient id="linear-gradient-127" x1="340.27" y1="112.61" x2="403.9" y2="150.96" xlink:href="#linear-gradient-25"/>
    <linearGradient id="linear-gradient-128" x1="311.66" y1="72.87" x2="339.41" y2="119.25" xlink:href="#linear-gradient-2"/>
    <linearGradient id="linear-gradient-129" x1="314.86" y1="97.9" x2="337.8" y2="97.9" xlink:href="#linear-gradient"/>
    <linearGradient id="linear-gradient-130" x1="101.23" y1="307.77" x2="140.17" y2="307.77" xlink:href="#linear-gradient-25"/>
    <linearGradient id="linear-gradient-131" x1="121.69" y1="310.03" x2="140.17" y2="310.03" gradientUnits="userSpaceOnUse">
      <stop offset="0" stop-color="#ffc20e"/>
      <stop offset="1" stop-color="#ff9200"/>
    </linearGradient>
    <linearGradient id="linear-gradient-132" x1="120.7" y1="306.77" x2="140.17" y2="306.77" xlink:href="#linear-gradient-8"/>
    <linearGradient id="linear-gradient-133" x1="404.72" y1="198.69" x2="401.62" y2="192.38" gradientTransform="translate(0 -251.62) rotate(32) scale(1.18 .85) skewX(24.2)" xlink:href="#linear-gradient-2"/>
    <linearGradient id="linear-gradient-134" x1="338.36" y1="215.55" x2="335.26" y2="209.25" gradientTransform="translate(0 -251.62) rotate(32) scale(1.18 .85) skewX(24.2)" xlink:href="#linear-gradient-2"/>
    <linearGradient id="linear-gradient-135" x1="407.19" y1="286.01" x2="402.78" y2="277.01" gradientTransform="translate(0 -251.62) rotate(32) scale(1.18 .85) skewX(24.2)" xlink:href="#linear-gradient-2"/>
    <linearGradient id="linear-gradient-136" x1="55.64" y1="364.78" x2="52.03" y2="357.43" gradientTransform="translate(0 -251.62) rotate(32) scale(1.18 .85) skewX(24.2)" xlink:href="#linear-gradient-2"/>
    <linearGradient id="linear-gradient-137" x1="301.11" y1="113.08" x2="297.5" y2="105.72" gradientTransform="translate(0 -251.62) rotate(32) scale(1.18 .85) skewX(24.2)" xlink:href="#linear-gradient-2"/>
    <linearGradient id="linear-gradient-138" x1="5.94" y1="418.33" x2="2.33" y2="410.97" gradientTransform="translate(0 -251.62) rotate(32) scale(1.18 .85) skewX(24.2)" xlink:href="#linear-gradient-2"/>
    <linearGradient id="linear-gradient-139" x1="237.86" y1="182.89" x2="234.25" y2="175.53" gradientTransform="translate(0 -251.62) rotate(32) scale(1.18 .85) skewX(24.2)" xlink:href="#linear-gradient-2"/>
    <linearGradient id="linear-gradient-140" x1="339.14" y1="348.72" x2="336.35" y2="343.03" gradientTransform="translate(0 -251.62) rotate(32) scale(1.18 .85) skewX(24.2)" xlink:href="#linear-gradient-2"/>
    <linearGradient id="linear-gradient-141" x1="243.6" y1="134.27" x2="241.6" y2="130.19" gradientTransform="translate(0 -251.62) rotate(32) scale(1.18 .85) skewX(24.2)" xlink:href="#linear-gradient-2"/>
  </defs>
  <g class="cls-160">
    <g id="OBJECTS">
      <g>
        <g>
          <g>
            <path class="cls-9" d="M191.91,51.07l-1.22-.7c-.41-.24-.76-.73-.86-1.19-.46-2.26-1.24-4.58-2.29-6.87-.22-.48-.18-.91.12-1.03l.86-.36c.4-.17.4-.81,0-1.43l-3.54-5.58c-.4-.62-1.04-1-1.43-.83l-.85.36c-.29.12-.75-.1-1.1-.52-1.69-2.02-3.56-3.88-5.55-5.49-.4-.33-.7-.84-.7-1.26v-1.22c0-.56-.45-1.28-1.01-1.6l-5-2.89c-.31-.18-.57-.19-.76-.08h0s-2.86,1.65-2.86,1.65c-1.28-.29-2.5-.42-3.63-.37-.35.02-.81-.29-1.1-.75l-.86-1.35c-.4-.62-1.04-1-1.43-.83l-3.54,1.49-5.06,2.92s2.31,1.38,2.5,1.52c.19.15,1.55.6,1.96.77.11.05.34.03.6-.02-.56.86-1.01,1.84-1.32,2.97-.09.35-.44.44-.86.2l-1.22-.7c-.32-.19-.6-.18-.79-.05v-.02s-4.97,2.87-4.97,2.87c0,0,1.62,1.97,1.76,2.12.15.15,1.07.15,1.19.15.08,0,1.16-.9,1.78-1.43v1.8c0,.56.45,1.28,1.01,1.6l1.22.7c.41.24.76.73.86,1.19.46,2.26,1.24,4.58,2.29,6.87.22.48.18.91-.12,1.03l-.86.36-5.06,2.92,3.5,1.66,1.3-3.82c.04.21.11.44.26.67l3.54,5.58c.4.62,1.04,1,1.43.83l.86-.36c.29-.12.75.1,1.1.52,1.69,2.02,3.55,3.88,5.54,5.49.4.33.7.84.7,1.26v1.22c0,.56.45,1.28,1.01,1.6l3.29,1.9h0c-.16-.09-2.8,1.17-2.8,1.17l-.12.95.31,1.9,5.09-2.94s0,0-.01,0c.16-.09.26-.26.26-.51v-1.22c0-.41.29-.6.7-.46,1.46.5,2.85.79,4.15.89-.15.25-.26.45-.26.51.02.18.77,2.42.77,2.42l2.74,1.46,5.06-2.92c.4-.17.4-.81,0-1.43l-.86-1.35c-.29-.46-.33-.94-.12-1.16.35-.36.66-.78.95-1.22l4.15-2.4h0c.17-.09.28-.26.28-.54v-5c0-.56-.45-1.28-1.01-1.6ZM173.03,54.37c-6.47-3.04-11.93-11.25-11.93-17.58,0-5.93,4.81-7.97,10.74-4.54,6.36,3.67,11.42,12.12,10.67,18.18-.57,4.59-4.56,6.25-9.48,3.94Z"/>
            <path class="cls-67" d="M146.7,37.84l1.22.7c.41.24.76.73.86,1.19.46,2.26,1.24,4.58,2.29,6.87.22.48.18.91-.12,1.03l-.86.36c-.4.17-.4.81,0,1.43l3.54,5.58c.4.62,1.04,1,1.43.83l.86-.36c.29-.12.75.1,1.1.52,1.69,2.02,3.55,3.88,5.54,5.49.4.33.7.84.7,1.26v1.22c0,.56.45,1.28,1.01,1.6l5,2.89c.56.32,1.01.13,1.01-.43v-1.22c0-.41.29-.6.7-.46,1.99.69,3.86.99,5.54.91.35-.02.8.29,1.1.75l.86,1.35c.4.62,1.04,1,1.43.83l3.54-1.49c.4-.17.4-.81,0-1.43l-.86-1.35c-.29-.46-.33-.94-.12-1.16,1.05-1.08,1.83-2.5,2.29-4.22.09-.35.44-.44.86-.2l1.22.7c.56.32,1.01.13,1.01-.43v-5c0-.56-.45-1.28-1.01-1.6l-1.22-.7c-.41-.24-.76-.73-.86-1.19-.46-2.26-1.24-4.58-2.29-6.87-.22-.48-.18-.91.12-1.03l.86-.36c.4-.17.4-.81,0-1.43l-3.54-5.58c-.4-.62-1.04-1-1.43-.83l-.85.36c-.29.12-.75-.1-1.1-.52-1.69-2.02-3.56-3.88-5.55-5.49-.4-.33-.7-.84-.7-1.26v-1.22c0-.56-.45-1.28-1.01-1.6l-5-2.89c-.56-.32-1.01-.13-1.01.43v1.22c0,.41-.29.6-.69.46-1.99-.69-3.86-.99-5.55-.91-.35.02-.81-.29-1.1-.75l-.86-1.35c-.4-.62-1.04-1-1.43-.83l-3.54,1.49c-.4.17-.4.81,0,1.43l.86,1.35c.29.46.33.94.12,1.16-1.05,1.08-1.83,2.5-2.29,4.22-.09.35-.44.44-.86.2l-1.22-.7c-.56-.32-1.01-.13-1.01.43v5c0,.56.45,1.28,1.01,1.6ZM156.04,39.71c0-5.93,4.81-7.97,10.74-4.54,6.36,3.67,11.42,12.12,10.67,18.18-.57,4.59-4.56,6.26-9.48,3.94-6.47-3.04-11.93-11.25-11.93-17.58Z"/>
          </g>
          <g>
            <path class="cls-76" d="M203.79,45.41l-.55-.31c-.19-.11-.34-.33-.38-.53-.21-1.01-.56-2.05-1.03-3.08-.1-.21-.08-.41.05-.46l.38-.16c.18-.07.18-.36,0-.64l-1.58-2.5c-.18-.28-.46-.45-.64-.37l-.38.16c-.13.06-.33-.04-.49-.23-.76-.91-1.59-1.74-2.48-2.46-.18-.15-.31-.38-.31-.56v-.54c0-.25-.2-.57-.45-.72l-2.24-1.29c-.14-.08-.26-.08-.34-.04h0s-1.28.74-1.28.74c-.57-.13-1.12-.19-1.63-.17-.16,0-.36-.13-.49-.34l-.38-.6c-.18-.28-.46-.45-.64-.37l-1.58.67-2.27,1.31s1.03.62,1.12.68.69.27.88.35c.05.02.15.01.27-.01-.25.38-.45.83-.59,1.33-.04.16-.2.2-.38.09l-.55-.32c-.15-.08-.27-.08-.35-.02h0s-2.22,1.28-2.22,1.28c0,0,.72.88.79.95.07.07.48.07.53.07.04,0,.52-.4.8-.64v.8c0,.25.2.57.45.72l.55.32c.19.11.34.33.38.53.21,1.01.56,2.05,1.03,3.08.1.21.08.41-.05.46l-.38.16-2.27,1.31,1.57.74.58-1.71c.02.09.05.2.12.3l1.58,2.5c.18.28.46.45.64.37l.38-.16c.13-.06.33.04.49.23.75.9,1.59,1.74,2.48,2.46.18.15.31.38.31.56v.55c0,.25.2.57.45.72l1.47.85h0c-.07-.04-1.26.52-1.26.52l-.05.43.14.85,2.28-1.32s0,0,0,0c.07-.04.12-.11.12-.23v-.55c0-.19.13-.27.31-.2.65.23,1.28.36,1.86.4-.07.11-.12.2-.12.23,0,.08.35,1.08.35,1.08l1.23.65,2.27-1.31c.18-.07.18-.36,0-.64l-.38-.61c-.13-.21-.15-.42-.05-.52.16-.16.3-.35.43-.54l1.86-1.07h0c.08-.04.13-.12.13-.24v-2.24c0-.25-.2-.57-.45-.72ZM195.33,46.89c-2.9-1.36-5.34-5.04-5.34-7.87,0-2.66,2.15-3.57,4.81-2.03,2.85,1.64,5.11,5.43,4.78,8.14-.25,2.06-2.04,2.8-4.25,1.76Z"/>
            <path class="cls-133" d="M183.54,39.49l.55.32c.19.11.34.33.38.53.21,1.01.56,2.05,1.03,3.08.1.21.08.41-.05.46l-.38.16c-.18.07-.18.36,0,.64l1.58,2.5c.18.28.46.45.64.37l.38-.16c.13-.06.33.04.49.23.75.9,1.59,1.74,2.48,2.46.18.15.31.38.31.56v.55c0,.25.2.57.45.72l2.24,1.29c.25.14.45.06.45-.19v-.55c0-.19.13-.27.31-.2.89.31,1.73.44,2.48.41.16,0,.36.13.49.34l.38.61c.18.28.47.45.64.37l1.58-.67c.18-.08.18-.36,0-.64l-.38-.61c-.13-.21-.15-.42-.05-.52.47-.48.82-1.12,1.03-1.89.04-.16.2-.2.38-.09l.55.31c.25.14.45.06.45-.19v-2.24c0-.25-.2-.57-.45-.72l-.55-.31c-.19-.11-.34-.33-.38-.53-.21-1.01-.56-2.05-1.03-3.08-.1-.21-.08-.41.05-.46l.38-.16c.18-.07.18-.36,0-.64l-1.58-2.5c-.18-.28-.46-.45-.64-.37l-.38.16c-.13.06-.33-.04-.49-.23-.76-.91-1.59-1.74-2.48-2.46-.18-.15-.31-.38-.31-.56v-.54c0-.25-.2-.57-.45-.72l-2.24-1.29c-.25-.14-.45-.06-.45.19v.54c0,.19-.13.27-.31.2-.89-.31-1.73-.44-2.48-.41-.16,0-.36-.13-.49-.34l-.38-.6c-.18-.28-.46-.45-.64-.37l-1.58.67c-.18.07-.18.36,0,.64l.38.61c.13.21.15.42.05.52-.47.48-.82,1.12-1.03,1.89-.04.16-.2.2-.38.09l-.55-.32c-.25-.14-.45-.06-.45.19v2.24c0,.25.2.57.45.72ZM187.72,40.32c0-2.66,2.15-3.57,4.81-2.03,2.85,1.64,5.11,5.43,4.78,8.14-.25,2.06-2.04,2.8-4.25,1.76-2.9-1.36-5.34-5.04-5.34-7.87Z"/>
          </g>
          <g>
            <path class="cls-36" d="M192.32,19.4l-.73-.42c-.25-.14-.46-.44-.51-.71-.28-1.35-.74-2.74-1.37-4.11-.13-.29-.11-.54.07-.62l.51-.22c.24-.1.24-.48,0-.86l-2.12-3.34c-.24-.37-.62-.6-.86-.5l-.51.22c-.18.07-.45-.06-.66-.31-1.01-1.21-2.13-2.33-3.32-3.29-.24-.2-.42-.51-.42-.75v-.73c0-.34-.27-.76-.61-.96l-3-1.73c-.18-.11-.34-.11-.45-.05h0s-1.72.99-1.72.99c-.77-.17-1.5-.25-2.18-.22-.21,0-.48-.17-.66-.45l-.51-.81c-.24-.37-.62-.6-.86-.5l-2.12.9-5.06,2.92s1.14-.11,2.13-.19c-.09.03-.15.06-.15.07.02.06.01,1.3,0,2.09l-4.47,2.57s1.84,1.16,1.93,1.25c.09.09,1.83-1.07,1.9-1.07.03,0,.26-.18.52-.4l-.22,3.48s.16,4.78.33,5.96l-1.98,1.14,2.39-.1c.47,1.13,1.36,3.17,2.54,3.83,1.63.92,1.49,1.6,3.69,2.45,2.2.85,4.96,1.92,5.32,1.65,0,0,0,0,.01,0l1.58.91h0c-.1-.06-1.68.7-1.68.7l-2.15.23.23,2.64,5.09-2.93s0,0,0,0c.09-.05.16-.15.16-.31v-.73c0-.25.17-.36.42-.27.87.3,1.71.48,2.49.53-.09.15-.16.27-.15.3.01.11-1.31,1.21-1.31,1.21l1.39,2.28,5.06-2.92c.24-.1.24-.48,0-.86l-.51-.81c-.18-.28-.2-.56-.07-.7.21-.22.4-.47.57-.73l2.49-1.44h0c.1-.05.17-.16.17-.32v-3c0-.34-.27-.76-.61-.96ZM181.01,21.38c-3.88-1.82-7.15-6.74-7.15-10.53,0-1.87.81-3.09,2.09-3.53.02.15.07.3.16.48.4.75,2.18,2.5,2.78,3.13.6.63,3.97,6.23,3.97,6.23l.63,3.25.56,1.55c-.88.13-1.92-.05-3.04-.58Z"/>
            <path class="cls-17" d="M163.21,12.64l.73.42c.25.14.46.44.51.71.28,1.35.74,2.74,1.37,4.11.13.29.11.54-.07.62l-.51.22c-.24.1-.24.48,0,.86l2.12,3.34c.24.37.62.6.86.5l.51-.22c.18-.07.45.06.66.31,1.01,1.21,2.13,2.32,3.32,3.29.24.2.42.51.42.75v.73c0,.34.27.76.61.96l3,1.73c.34.19.61.08.61-.26v-.73c0-.25.17-.36.42-.27,1.19.41,2.31.59,3.32.55.21,0,.48.17.66.45l.51.81c.24.37.62.6.86.5l2.12-.9c.24-.1.24-.49,0-.86l-.51-.81c-.18-.28-.2-.56-.07-.7.63-.65,1.09-1.5,1.37-2.53.06-.21.27-.26.51-.12l.73.42c.34.19.61.08.61-.26v-3c0-.34-.27-.76-.61-.96l-.73-.42c-.25-.14-.46-.44-.51-.71-.28-1.35-.74-2.74-1.37-4.11-.13-.29-.11-.54.07-.62l.51-.22c.24-.1.24-.49,0-.86l-2.12-3.34c-.24-.37-.62-.6-.86-.5l-.51.22c-.18.07-.45-.06-.66-.31-1.01-1.21-2.13-2.33-3.32-3.29-.24-.2-.42-.51-.42-.75v-.73c0-.34-.27-.76-.61-.96l-3-1.73c-.34-.19-.61-.08-.61.26v.73c0,.25-.17.36-.42.27-1.19-.41-2.31-.59-3.32-.55-.21,0-.48-.17-.66-.45l-.51-.81c-.24-.37-.62-.6-.86-.5l-2.12.9c-.24.1-.24.48,0,.86l.51.81c.18.28.2.56.07.7-.63.65-1.09,1.5-1.37,2.53-.06.21-.27.26-.51.12l-.73-.42c-.34-.19-.61-.08-.61.26v3c0,.34.27.76.61.96ZM168.8,13.76c0-3.55,2.88-4.77,6.44-2.72,3.81,2.2,6.84,7.26,6.39,10.89-.34,2.75-2.73,3.75-5.68,2.36-3.88-1.82-7.15-6.74-7.15-10.53Z"/>
          </g>
        </g>
        <g>
          <path class="cls-75" d="M387.86,239.46c0-20.4-14.32-45.22-32-55.43-8.15-4.7-15.58-5.47-21.23-2.94h0s-.11.05-.11.05c-.24.11-.47.23-.7.35l-4.96,2.55.74,1.75c-2.78,3.87-4.38,9.31-4.38,16.11,0,20.41,14.32,45.22,32,55.42,5.43,3.14,10.55,4.52,15.03,4.35l.55,1.45,4.22-2.22c.52-.23,1.03-.48,1.52-.77l.04-.02h0c5.73-3.37,9.28-10.51,9.28-20.65Z"/>
          <path class="cls-98" d="M319.02,205.02c0,20.4,14.32,45.22,31.99,55.42,17.68,10.2,32,1.92,32-18.47s-14.33-45.22-32-55.42c-17.67-10.21-31.99-1.93-31.99,18.48Z"/>
          <path class="cls-121" d="M324.35,208.1c0-16.98,11.96-23.88,26.66-15.4,14.71,8.49,26.67,29.21,26.67,46.18s-11.96,23.89-26.67,15.4c-14.7-8.49-26.66-29.21-26.66-46.18ZM327.68,210.02c0,14.85,10.46,32.98,23.33,40.41,12.87,7.43,23.34,1.38,23.33-13.47,0-14.85-10.46-32.98-23.33-40.41-12.86-7.43-23.33-1.38-23.33,13.47Z"/>
          <path class="cls-56" d="M332.69,212.91c0-11.67,8.22-16.42,18.32-10.59,10.11,5.84,18.33,20.08,18.33,31.75s-8.22,16.42-18.33,10.59c-10.1-5.84-18.32-20.08-18.32-31.75ZM336.01,214.83c0,9.56,6.73,21.2,15,25.98,8.27,4.77,15,.89,15-8.66,0-9.55-6.73-21.21-15-25.98-8.27-4.77-15-.89-15,8.66Z"/>
          <path class="cls-50" d="M351.01,211.67c-5.65-3.27-10.24-.62-10.24,5.91s4.59,14.47,10.24,17.73c5.66,3.27,10.24.62,10.24-5.91s-4.58-14.47-10.24-17.73ZM351.01,231.25c-3.71-2.14-6.71-7.35-6.71-11.63s3-6.02,6.71-3.88c3.71,2.14,6.72,7.35,6.72,11.63s-3.01,6.02-6.72,3.88Z"/>
          <path class="cls-112" d="M347.46,221.45c0,2.26,1.59,5.02,3.55,6.15,1.96,1.13,3.55.21,3.55-2.05s-1.59-5.02-3.55-6.15c-1.96-1.13-3.55-.21-3.55,2.05Z"/>
        </g>
        <g>
          <g>
            <g>
              <path class="cls-53" d="M277.27,260.26l-46.04-28.95c-.91-.58-2.07-.59-2.98-.04l-52.07,26.95-2.54-1.23v3.68h0c.02.49.26.98.73,1.27l46.2,29.07c.91.58,2.07.59,2.98.04l53.71-27.93c1.07-.64,1.07-2.19,0-2.86Z"/>
              <path class="cls-108" d="M277.27,259.4l-53.71,27.93c-.92.55-2.07.53-2.98-.04l-46.2-29.07c-.98-.62-.98-2.05,0-2.64l53.87-28.03c.92-.55,2.07-.53,2.98.04l46.04,28.95c1.06.67,1.06,2.22,0,2.86Z"/>
            </g>
            <path class="cls-68" d="M297.74,330.04l-186.28-117.11c-1.77-1.11-1.77-3.69,0-4.76l35.1-21.21c1.62-.97,3.65-.94,5.27.07l186.34,117.15c1.75,1.1,1.75,3.64,0,4.7l-35.13,21.23c-1.63.98-3.67.95-5.3-.07Z"/>
            <path class="cls-30" d="M318.45,143.91L136.61,29.08c-1.16-.74-2.49-.65-3.52-.05h0s-.06.03-.06.03c-.02.01-.04.02-.05.03l-1.08.69h0l-5.22,3.12,4.76,1.67v147.11c0,5.68,2.94,10.99,7.77,14.04l177.87,112.31,1.39,6.26,6-3.62s.02-.01.03-.02l.09-.05h0c.95-.57,1.64-1.59,1.64-2.87v-149.79c0-5.68-2.94-10.99-7.77-14.04Z"/>
            <path class="cls-108" d="M320.18,161.59v149.8c0,2.64-2.91,4.23-5.16,2.8l-181.85-114.82c-4.83-3.05-7.77-8.36-7.77-14.04V35.53c0-2.64,2.91-4.23,5.16-2.8l181.85,114.82c4.83,3.05,7.77,8.36,7.77,14.04Z"/>
            <path class="cls-23" d="M320.18,161.59v127.25l-194.78-122.99V35.53c0-2.64,2.91-4.23,5.16-2.8l181.85,114.82c4.83,3.05,7.77,8.36,7.77,14.04Z"/>
            <g>
              <path class="cls-58" d="M283.54,279.29c0,1.89-1.53,2.45-3.43,1.24-1.89-1.21-3.43-3.72-3.43-5.61s1.53-2.45,3.43-1.24c1.89,1.21,3.43,3.72,3.43,5.61Z"/>
              <path class="cls-5" d="M296.23,287.39c0,1.89-1.53,2.45-3.43,1.24-1.89-1.21-3.43-3.72-3.43-5.61s1.53-2.45,3.43-1.24c1.89,1.21,3.43,3.72,3.43,5.61Z"/>
              <path class="cls-103" d="M308.92,295.48c0,1.89-1.53,2.45-3.43,1.24-1.89-1.21-3.43-3.72-3.43-5.61s1.53-2.45,3.43-1.24c1.89,1.21,3.43,3.72,3.43,5.61Z"/>
            </g>
            <path class="cls-8" d="M317.48,162.72v115.26c0,2.57-2.83,4.11-5.01,2.72l-176.81-111.64c-4.7-2.97-7.55-8.13-7.55-13.65V40.15c0-2.57,2.83-4.11,5.01-2.72l176.81,111.64c4.7,2.97,7.55,8.13,7.55,13.65Z"/>
          </g>
          <g>
            <g>
              <path class="cls-39" d="M148.96,130.3l-9.99-6.11c-.36-.22-.77-.16-1.07.05v-.02l-3.1,1.27,2.67,2.59v32.65c0,1.2.62,2.32,1.65,2.94l7.82,4.79-.15,2.72,3.22-1.34h-.02c.34-.16.61-.47.61-.9v-35.71c0-1.2-.62-2.32-1.65-2.94Z"/>
              <path class="cls-145" d="M147.44,134.56v35.71c0,.77-.84,1.24-1.5.84l-9.99-6.11c-1.02-.63-1.65-1.74-1.65-2.94v-35.71c0-.77.84-1.24,1.5-.84l9.99,6.11c1.02.63,1.65,1.74,1.65,2.94Z"/>
            </g>
            <g>
              <path class="cls-144" d="M165.79,128.28l-9.99-6.11c-.36-.22-.77-.16-1.07.05v-.02l-3.1,1.27,2.67,2.6v44.96c0,1.2.62,2.32,1.65,2.94l7.82,4.79-.15,2.72,3.22-1.34h-.02c.34-.16.61-.47.61-.9v-48.02c0-1.2-.62-2.32-1.65-2.94Z"/>
              <path class="cls-145" d="M164.27,132.54v48.02c0,.77-.84,1.24-1.5.84l-9.99-6.11c-1.02-.63-1.65-1.74-1.65-2.94v-48.02c0-.77.84-1.24,1.5-.84l9.99,6.11c1.02.63,1.65,1.74,1.65,2.94Z"/>
            </g>
            <g>
              <path class="cls-57" d="M182.62,155.2l-9.99-6.11c-.36-.22-.77-.16-1.07.05v-.02l-3.1,1.27,2.67,2.6v28.33c0,1.2.62,2.32,1.65,2.94l7.82,4.79-.15,2.72,3.22-1.34h-.02c.34-.16.61-.47.61-.9v-31.39c0-1.2-.62-2.32-1.65-2.94Z"/>
              <path class="cls-145" d="M181.1,159.46v31.39c0,.77-.84,1.24-1.5.84l-9.99-6.11c-1.02-.63-1.65-1.74-1.65-2.94v-31.39c0-.77.84-1.24,1.5-.84l9.99,6.11c1.02.63,1.65,1.74,1.65,2.94Z"/>
            </g>
            <g>
              <path class="cls-70" d="M199.44,129.04l-9.99-6.11c-.36-.22-.77-.16-1.07.05v-.02l-3.1,1.27,2.67,2.6v64.78c0,1.2.62,2.32,1.65,2.94l7.82,4.79-.15,2.72,3.22-1.34h-.02c.34-.16.61-.47.61-.9v-67.84c0-1.2-.62-2.32-1.65-2.94Z"/>
              <path class="cls-145" d="M197.93,133.3v67.84c0,.77-.84,1.24-1.5.84l-9.99-6.11c-1.02-.63-1.65-1.74-1.65-2.94v-67.84c0-.77.84-1.24,1.5-.84l9.99,6.11c1.02.63,1.65,1.74,1.65,2.94Z"/>
            </g>
          </g>
          <g>
            <path class="cls-145" d="M177.88,147.08c0,.84-.68,1.08-1.52.53-.84-.55-1.52-1.67-1.52-2.51s.68-1.08,1.52-.53c.84.55,1.52,1.67,1.52,2.51Z"/>
            <path class="cls-145" d="M177.88,152.15c0,.84-.68,1.08-1.52.53-.84-.55-1.52-1.67-1.52-2.51s.68-1.08,1.52-.53c.84.55,1.52,1.67,1.52,2.51Z"/>
            <path class="cls-145" d="M177.88,111.55c0,.84-.68,1.08-1.52.53-.84-.55-1.52-1.67-1.52-2.51s.68-1.08,1.52-.53c.84.55,1.52,1.67,1.52,2.51Z"/>
            <path class="cls-145" d="M177.88,116.62c0,.84-.68,1.08-1.52.53-.84-.54-1.52-1.67-1.52-2.51s.68-1.08,1.52-.53c.84.55,1.52,1.67,1.52,2.51Z"/>
            <path class="cls-145" d="M177.88,121.7c0,.84-.68,1.08-1.52.53-.84-.54-1.52-1.67-1.52-2.51s.68-1.08,1.52-.53c.84.55,1.52,1.67,1.52,2.51Z"/>
            <path class="cls-145" d="M177.88,126.78c0,.84-.68,1.08-1.52.53-.84-.55-1.52-1.67-1.52-2.51s.68-1.08,1.52-.53c.84.55,1.52,1.67,1.52,2.51Z"/>
            <path class="cls-145" d="M177.88,131.85c0,.84-.68,1.08-1.52.53-.84-.55-1.52-1.67-1.52-2.51s.68-1.08,1.52-.53c.84.54,1.52,1.67,1.52,2.51Z"/>
            <path class="cls-145" d="M177.88,136.93c0,.84-.68,1.08-1.52.53-.84-.54-1.52-1.67-1.52-2.51s.68-1.08,1.52-.53c.84.55,1.52,1.67,1.52,2.51Z"/>
            <path class="cls-145" d="M177.88,142c0,.84-.68,1.08-1.52.53-.84-.55-1.52-1.67-1.52-2.51s.68-1.08,1.52-.53c.84.55,1.52,1.67,1.52,2.51Z"/>
          </g>
          <g>
            <path class="cls-100" d="M199.29,84.64L108.82,27.67c-.8-.5-1.72-.43-2.41.01l-2.64,1.56,1.57.51v26.21c0,2.33,1.2,4.5,3.17,5.74l90.19,56.8-.11,1.85,2.8-1.69c.62-.39,1.06-1.07,1.06-1.91v-26.38c0-2.33-1.2-4.5-3.17-5.74Z"/>
            <path class="cls-145" d="M199.74,92.01v26.38c0,1.78-1.96,2.88-3.47,1.93l-66.72-42.02-23.75-14.96c-1.97-1.25-3.18-3.41-3.18-5.74v-26.39c0-1.78,1.96-2.87,3.47-1.91l23.45,14.77,67.01,42.21c1.97,1.24,3.18,3.41,3.18,5.74Z"/>
            <g>
              <path class="cls-54" d="M195.14,95.86l-61.74-38.58c-.53-.33-.96-1.03-.96-1.56h0c0-.53.43-.69.96-.36l61.74,38.58c.53.33.96,1.03.96,1.56h0c0,.53-.43.69-.96.36Z"/>
              <path class="cls-101" d="M144.64,68.59l-11.24-7.02c-.53-.33-.96-1.03-.96-1.56h0c0-.53.43-.69.96-.36l11.24,7.02c.53.33.96,1.03.96,1.56h0c0,.53-.43.69-.96.36Z"/>
              <path class="cls-82" d="M195.14,100.14l-46.95-29.34c-.53-.33-.96-1.03-.96-1.56h0c0-.53.43-.69.96-.36l46.95,29.34c.53.33.96,1.03.96,1.56h0c0,.53-.43.69-.96.36Z"/>
              <path class="cls-123" d="M162.88,84.26l-29.48-18.42c-.53-.33-.96-1.03-.96-1.56h0c0-.53.43-.69.96-.36l29.48,18.42c.53.33.96,1.03.96,1.56h0c0,.53-.43.69-.96.36Z"/>
              <path class="cls-116" d="M195.14,104.42l-28.92-18.07c-.53-.33-.96-1.03-.96-1.56h0c0-.53.43-.69.96-.36l28.92,18.07c.53.33.96,1.03.96,1.56h0c0,.53-.43.69-.96.36Z"/>
              <path class="cls-106" d="M156.71,84.68l-23.31-14.56c-.53-.33-.96-1.03-.96-1.56h0c0-.53.43-.69.96-.36l23.31,14.56c.53.33.96,1.03.96,1.56h0c0,.53-.43.69-.96.36Z"/>
            </g>
            <path class="cls-37" d="M129.55,44.06v34.24l-23.75-14.96c-1.97-1.25-3.18-3.41-3.18-5.74v-26.39c0-1.78,1.96-2.87,3.47-1.91l23.45,14.77Z"/>
            <g>
              <polygon class="cls-64" points="127.93 48.44 113.38 61.29 112.3 61.93 104.99 48.88 106.07 48.24 111.21 49.38 113.73 57.28 122.46 44.51 123.54 43.87 127.93 48.44"/>
              <polygon class="cls-145" points="126.85 49.08 112.3 61.93 104.99 48.88 110.13 50.03 112.65 57.92 122.46 44.51 126.85 49.08"/>
            </g>
          </g>
          <g>
            <path class="cls-26" d="M302.3,171.24l-90.6-57.2c-.64-.41-1.39-.31-1.91.09h0s-3.81,1.95-3.81,1.95l3.15,2.32v81.22c0,2.83,1.46,5.47,3.87,7l88.07,55.6.31,3.7,3.91-2.04s.01,0,.02-.01h0s0,0,0,0c.5-.28.85-.8.85-1.45v-84.18c0-2.83-1.46-5.47-3.87-7Z"/>
            <path class="cls-145" d="M302.26,180.27v84.18c0,1.31-1.45,2.11-2.57,1.4l-90.6-57.2c-2.41-1.52-3.87-4.16-3.87-7v-84.18c0-1.32,1.45-2.11,2.57-1.4l90.6,57.2c2.41,1.52,3.87,4.16,3.87,7Z"/>
            <g>
              <path class="cls-156" d="M227.23,125.53v-4.68c0-2.07,1.14-3.98,2.97-4.96l.98-.53"/>
              <path class="cls-154" d="M238.78,132.82v-4.68c0-2.07,1.14-3.98,2.97-4.96l.98-.53"/>
              <path class="cls-159" d="M250.33,140.13v-4.68c0-2.07,1.14-3.98,2.97-4.96l.98-.53"/>
              <path class="cls-153" d="M261.87,147.42v-4.68c0-2.07,1.14-3.98,2.97-4.96l.98-.53"/>
              <path class="cls-157" d="M273.42,154.71v-4.68c0-2.07,1.14-3.98,2.97-4.96l.98-.53"/>
              <path class="cls-152" d="M284.96,161.98v-4.68c0-2.07,1.14-3.98,2.97-4.96l.98-.53"/>
              <path class="cls-158" d="M296.5,169.28v-4.68c0-2.07,1.14-3.98,2.97-4.96l.98-.53"/>
              <path class="cls-155" d="M215.69,118.25v-4.68c0-2.07,1.14-3.98,2.97-4.96l.98-.53"/>
            </g>
            <g>
              <path class="cls-25" d="M290.99,180.68l-75.08-47.4c-.58-.37-1.29-.39-1.88-.06-.59.33-.95.93-.95,1.61v63.64c0,2.52,1.28,4.83,3.42,6.19l75.08,47.4c.31.19.65.29,1,.29.3,0,.61-.08.89-.23.59-.33.95-.93.95-1.61v-63.64c0-2.52-1.28-4.83-3.42-6.19ZM293.5,186.87v12.81l-15.15-9.57v-16.33l12.16,7.68c1.87,1.19,2.99,3.21,2.99,5.41ZM246.18,187.29v-16.3l15.14,9.56v16.3l-15.14-9.56ZM261.32,198.05v16.3l-15.14-9.56v-16.3l15.14,9.56ZM262.26,181.15l15.14,9.56v16.3l-15.14-9.56v-16.3ZM262.26,179.96v-16.33l15.14,9.56v16.33l-15.14-9.56ZM261.32,179.36l-15.14-9.56v-16.33l15.14,9.56v16.33ZM245.23,169.2l-15.14-9.56v-16.33l15.14,9.56v16.33ZM245.23,170.4v16.3l-15.14-9.56v-16.3l15.14,9.56ZM229.15,176.54l-15.15-9.57v-16.3l15.15,9.57v16.3ZM214,168.17l15.15,9.57v16.3l-15.15-9.57v-16.3ZM230.09,178.33l15.14,9.56v16.3l-15.14-9.56v-16.3ZM245.23,205.38v16.32l-15.14-9.56v-16.32l15.14,9.56ZM246.18,205.98l15.14,9.56v16.32l-15.14-9.56v-16.32ZM262.26,216.13l15.14,9.56v16.32l-15.14-9.56v-16.32ZM262.26,214.94v-16.3l15.14,9.56v16.3l-15.14-9.56ZM278.34,208.8l15.15,9.57v16.3l-15.15-9.57v-16.3ZM278.34,207.6v-16.3l15.15,9.57v16.3l-15.15-9.57ZM214.47,134.02c.14-.08.29-.12.45-.12.17,0,.35.05.51.15l13.73,8.67v16.33l-15.15-9.57v-14.66c0-.34.18-.64.47-.8ZM216.99,203.87c-1.87-1.19-2.99-3.21-2.99-5.41v-12.8l15.15,9.57v16.32l-12.16-7.68ZM293.02,251.31c-.3.17-.66.15-.95-.03l-13.76-8.69h.03v-16.3l15.15,9.57v14.65c0,.34-.18.64-.47.8Z"/>
              <polygon class="cls-55" points="262.26 198.64 262.26 214.94 277.4 224.5 277.4 208.2 262.26 198.64"/>
              <polygon class="cls-109" points="246.18 205.98 246.18 222.3 261.32 231.86 261.32 215.54 246.18 205.98"/>
              <polygon class="cls-72" points="246.18 188.49 246.18 204.79 261.32 214.35 261.32 198.05 246.18 188.49"/>
              <polygon class="cls-117" points="262.26 163.63 262.26 179.96 277.4 189.52 277.4 173.19 262.26 163.63"/>
              <polygon class="cls-99" points="214 168.17 214 184.47 229.15 194.04 229.15 177.74 214 168.17"/>
              <path class="cls-95" d="M238.61,174.61l3.84-1.44c.37-.14.37-.74,0-1.34-.37-.6-.97-.98-1.34-.84l-3.84,1.44-3.84-6.25c-.37-.6-.97-.98-1.34-.84-.37.14-.37.74,0,1.34l3.84,6.25-3.84,1.44c-.37.14-.37.74,0,1.34.37.6.97.98,1.34.84l3.84-1.44,3.84,6.25c.37.6.97.98,1.34.84.37-.14.37-.74,0-1.34l-3.84-6.25Z"/>
              <path class="cls-96" d="M287,240.06l3.84-1.44c.37-.14.37-.74,0-1.34-.37-.6-.97-.98-1.34-.84l-3.84,1.44-3.84-6.25c-.37-.6-.97-.98-1.34-.84-.37.14-.37.74,0,1.34l3.84,6.25-3.84,1.44c-.37.14-.37.74,0,1.34.37.6.97.98,1.34.84l3.84-1.44,3.84,6.25c.37.6.97.98,1.34.84.37-.14.37-.74,0-1.34l-3.84-6.25Z"/>
              <g>
                <path class="cls-63" d="M243.42,209.53l-11.52-7.2c-.27-.17-.49-.53-.49-.8h0c0-.27.22-.35.49-.18l11.52,7.2c.27.17.49.53.49.8h0c0,.27-.22.35-.49.18Z"/>
                <path class="cls-105" d="M243.42,211.66l-11.52-7.2c-.27-.17-.49-.53-.49-.8h0c0-.27.22-.35.49-.18l11.52,7.2c.27.17.49.53.49.8h0c0,.27-.22.35-.49.18Z"/>
                <path class="cls-71" d="M243.42,213.79l-11.52-7.2c-.27-.17-.49-.53-.49-.8h0c0-.27.22-.35.49-.18l11.52,7.2c.27.17.49.53.49.8h0c0,.27-.22.35-.49.18Z"/>
                <path class="cls-89" d="M237.17,212.02l-5.27-3.29c-.27-.17-.49-.53-.49-.8h0c0-.27.22-.35.49-.18l5.27,3.29c.27.17.49.53.49.8h0c0,.27-.22.35-.49.18Z"/>
              </g>
              <g>
                <path class="cls-59" d="M275.61,194.96l-11.52-7.2c-.27-.17-.49-.53-.49-.8h0c0-.27.22-.35.49-.18l11.52,7.2c.27.17.49.53.49.8h0c0,.27-.22.35-.49.18Z"/>
                <path class="cls-60" d="M275.61,197.09l-11.52-7.2c-.27-.17-.49-.53-.49-.8h0c0-.27.22-.35.49-.18l11.52,7.2c.27.17.49.53.49.8h0c0,.27-.22.35-.49.18Z"/>
                <path class="cls-124" d="M275.61,199.23l-11.52-7.2c-.27-.17-.49-.53-.49-.8h0c0-.27.22-.35.49-.18l11.52,7.2c.27.17.49.53.49.8h0c0,.27-.22.35-.49.18Z"/>
                <path class="cls-16" d="M269.36,197.45l-5.27-3.29c-.27-.17-.49-.53-.49-.8h0c0-.27.22-.35.49-.18l5.27,3.29c.27.17.49.53.49.8h0c0,.27-.22.35-.49.18Z"/>
              </g>
            </g>
          </g>
        </g>
        <g>
          <g>
            <path class="cls-41" d="M77.86,55.03l13.77,8.6c.61.38,1.1,1.23,1.1,1.69v13.44s-13.77-8.6-13.77-8.6c-.61-.38-1.1-1.23-1.1-1.69v-13.44M77.45,53.62c-.47,0-.78.33-.78.92v13.93c0,.92.74,2.12,1.66,2.7l13.93,8.7c.32.2.62.3.88.3.47,0,.78-.33.78-.92v-13.93c0-.92-.74-2.12-1.66-2.7l-13.93-8.7c-.32-.2-.62-.3-.88-.3h0Z"/>
            <path class="cls-66" d="M119.45,82.06l-20.3-12.69c-.67-.42-1.22-1.31-1.22-1.98h0c0-.67.55-.88,1.22-.46l20.3,12.69c.67.42,1.22,1.31,1.22,1.98h0c0,.67-.55.88-1.22.46Z"/>
            <path class="cls-65" d="M119.45,86.99l-20.3-12.69c-.67-.42-1.22-1.31-1.22-1.98h0c0-.67.55-.88,1.22-.46l20.3,12.69c.67.42,1.22,1.31,1.22,1.98h0c0,.67-.55.88-1.22.46Z"/>
            <path class="cls-102" d="M119.45,91.93l-20.3-12.69c-.67-.42-1.22-1.31-1.22-1.98h0c0-.67.55-.88,1.22-.46l20.3,12.69c.67.42,1.22,1.31,1.22,1.98h0c0,.67-.55.88-1.22.46Z"/>
            <path class="cls-10" d="M107.86,89.62l-8.71-5.44c-.67-.42-1.22-1.31-1.22-1.98h0c0-.67.55-.88,1.22-.46l8.71,5.44c.67.42,1.22,1.31,1.22,1.98h0c0,.67-.55.88-1.22.46Z"/>
          </g>
          <g>
            <path class="cls-42" d="M86.49,98.2l3.84-1.44c.37-.14.37-.74,0-1.34s-.97-.98-1.34-.84l-3.84,1.44-3.84-6.25c-.37-.6-.97-.98-1.34-.84-.37.14-.37.74,0,1.34l3.84,6.25-3.84,1.44c-.37.14-.37.74,0,1.34.37.6.97.98,1.34.84l3.84-1.44,3.84,6.25c.37.6.97.98,1.34.84s.37-.74,0-1.34l-3.84-6.25Z"/>
            <g>
              <path class="cls-118" d="M77.86,85.84l13.77,8.6c.61.38,1.1,1.23,1.1,1.69v13.44s-13.77-8.6-13.77-8.6c-.61-.38-1.1-1.23-1.1-1.69v-13.44M77.45,84.43c-.47,0-.78.33-.78.92v13.93c0,.92.74,2.12,1.66,2.7l13.93,8.7c.32.2.62.3.88.3.47,0,.78-.33.78-.92v-13.93c0-.92-.74-2.12-1.66-2.7l-13.93-8.7c-.32-.2-.62-.3-.88-.3h0Z"/>
              <path class="cls-94" d="M119.45,112.87l-20.3-12.69c-.67-.42-1.22-1.31-1.22-1.98h0c0-.67.55-.88,1.22-.46l20.3,12.69c.67.42,1.22,1.31,1.22,1.98h0c0,.67-.55.88-1.22.46Z"/>
              <path class="cls-51" d="M119.45,117.8l-20.3-12.69c-.67-.42-1.22-1.31-1.22-1.98h0c0-.67.55-.88,1.22-.46l20.3,12.69c.67.42,1.22,1.31,1.22,1.98h0c0,.67-.55.88-1.22.46Z"/>
              <path class="cls-15" d="M119.45,122.74l-20.3-12.69c-.67-.42-1.22-1.31-1.22-1.98h0c0-.67.55-.88,1.22-.46l20.3,12.69c.67.42,1.22,1.31,1.22,1.98h0c0,.67-.55.88-1.22.46Z"/>
              <path class="cls-113" d="M107.86,120.43l-8.71-5.44c-.67-.42-1.22-1.31-1.22-1.98h0c0-.67.55-.88,1.22-.46l8.71,5.44c.67.42,1.22,1.31,1.22,1.98h0c0,.67-.55.88-1.22.46Z"/>
            </g>
          </g>
          <g>
            <path class="cls-79" d="M77.86,116.65l13.77,8.6c.61.38,1.1,1.23,1.1,1.69v13.44s-13.77-8.6-13.77-8.6c-.61-.38-1.1-1.23-1.1-1.69v-13.44M77.45,115.24c-.47,0-.78.33-.78.92v13.93c0,.92.74,2.12,1.66,2.7l13.93,8.7c.32.2.62.3.88.3.47,0,.78-.33.78-.92v-13.93c0-.92-.74-2.12-1.66-2.7l-13.93-8.7c-.32-.2-.62-.3-.88-.3h0Z"/>
            <path class="cls-128" d="M119.45,143.68l-20.3-12.69c-.67-.42-1.22-1.31-1.22-1.98h0c0-.67.55-.88,1.22-.46l20.3,12.69c.67.42,1.22,1.31,1.22,1.98h0c0,.67-.55.88-1.22.46Z"/>
            <path class="cls-40" d="M119.45,148.61l-20.3-12.69c-.67-.42-1.22-1.31-1.22-1.98h0c0-.67.55-.88,1.22-.46l20.3,12.69c.67.42,1.22,1.31,1.22,1.98h0c0,.67-.55.88-1.22.46Z"/>
            <path class="cls-115" d="M119.45,153.55l-20.3-12.69c-.67-.42-1.22-1.31-1.22-1.98h0c0-.67.55-.88,1.22-.46l20.3,12.69c.67.42,1.22,1.31,1.22,1.98h0c0,.67-.55.88-1.22.46Z"/>
            <path class="cls-34" d="M107.86,151.24l-8.71-5.44c-.67-.42-1.22-1.31-1.22-1.98h0c0-.67.55-.88,1.22-.46l8.71,5.44c.67.42,1.22,1.31,1.22,1.98h0c0,.67-.55.88-1.22.46Z"/>
          </g>
        </g>
        <g>
          <g>
            <path class="cls-131" d="M117.68,167.96l-13.18-8.24c-.45-.28-.87-.35-1.17-.2l-4.21,2.14c-.3.15-.72.08-1.17-.2l-21.22-13.26c-.48-.3-.91-.34-1.2-.17l-1.25.62.89.64v24.24c0,.86.7,1.99,1.56,2.53l40.64,25.4.24,1.01,1.27-.66c.21-.13.34-.38.34-.75v-30.57c0-.86-.7-1.99-1.56-2.53Z"/>
            <path class="cls-150" d="M102.11,160.14l-4.21,2.14c-.3.15-.72.08-1.17-.2l-21.22-13.26c-.86-.54-1.56-.28-1.56.58v24.75c0,.86.7,1.99,1.56,2.53l40.94,25.58c.86.54,1.56.28,1.56-.58v-30.57c0-.86-.7-1.99-1.56-2.53l-13.18-8.24c-.45-.28-.87-.35-1.17-.2Z"/>
          </g>
          <g>
            <path class="cls-21" d="M113.7,170.02l-13.18-8.24c-.45-.28-.87-.35-1.17-.2l-4.21,2.14c-.3.15-.72.08-1.17-.2l-21.22-13.26c-.48-.3-.91-.34-1.2-.17l-1.25.62.89.64v24.24c0,.86.7,1.99,1.56,2.53l40.64,25.4.24,1.01,1.27-.66c.21-.13.34-.38.34-.75v-30.57c0-.86-.7-1.99-1.56-2.53Z"/>
            <path class="cls-77" d="M98.12,162.21l-4.21,2.14c-.3.15-.72.08-1.17-.2l-21.22-13.26c-.86-.54-1.56-.28-1.56.58v24.75c0,.86.7,1.99,1.56,2.53l40.94,25.58c.86.54,1.56.28,1.56-.58v-30.57c0-.86-.7-1.99-1.56-2.53l-13.18-8.24c-.45-.28-.87-.35-1.17-.2Z"/>
          </g>
        </g>
        <g>
          <g>
            <path class="cls-129" d="M159.37,247.03c-3.41-3.37-9.59-5.63-16.67-5.63s-13.26,2.26-16.67,5.63l-2.8-1.08v3.07c0,6.41,8.72,11.61,19.47,11.61s19.47-5.2,19.47-11.61v-3.07l-2.8,1.08Z"/>
            <ellipse class="cls-108" cx="142.7" cy="245.94" rx="19.47" ry="11.61"/>
            <path class="cls-146" d="M151.78,241.18l1.76-1.02-1.39-.8-1.76,1.02c-3.17-1.61-7.07-1.99-9.78-.42-3.41,1.98-1.14,4.05.59,5.76l-3.43,1.99c-.51-.58-.4-1.14.41-1.71l-3.98-2.3c-2.71,1.69-2.08,3.83.63,5.71l-1.78,1.04,1.39.8,1.76-1.02c3.61,1.9,7.55,1.79,9.9.43,3.36-1.96.99-4.05-.69-5.78l3.36-1.95c.4.48.32,1.01-.4,1.53l4,2.31c2.55-1.72,2.16-3.71-.61-5.58ZM142.07,248.47c-.8.47-1.94.49-2.96.07l3.07-1.79c.53.68.66,1.26-.12,1.72ZM144.49,243.81c-.45-.66-.51-1.22.25-1.66.85-.49,1.83-.48,2.77-.09l-3.02,1.75Z"/>
          </g>
          <g>
            <path class="cls-139" d="M159.37,241.4c-3.41-3.37-9.59-5.63-16.67-5.63s-13.26,2.26-16.67,5.63l-2.8-1.08v3.07c0,6.41,8.72,11.61,19.47,11.61s19.47-5.2,19.47-11.61v-3.07l-2.8,1.08Z"/>
            <ellipse class="cls-108" cx="142.7" cy="240.32" rx="19.47" ry="11.61"/>
            <path class="cls-33" d="M151.78,235.56l1.76-1.02-1.39-.8-1.76,1.02c-3.17-1.61-7.07-1.99-9.78-.42-3.41,1.98-1.14,4.05.59,5.76l-3.43,1.99c-.51-.58-.4-1.14.41-1.71l-3.98-2.3c-2.71,1.69-2.08,3.83.63,5.71l-1.78,1.04,1.39.8,1.76-1.02c3.61,1.9,7.55,1.79,9.9.43,3.36-1.96.99-4.05-.69-5.78l3.36-1.95c.4.48.32,1.01-.4,1.53l4,2.31c2.55-1.72,2.16-3.71-.61-5.58ZM142.07,242.85c-.8.47-1.94.49-2.96.07l3.07-1.79c.53.68.66,1.26-.12,1.72ZM144.49,238.18c-.45-.66-.51-1.22.25-1.66.85-.49,1.83-.48,2.77-.09l-3.02,1.75Z"/>
          </g>
          <g>
            <path class="cls-86" d="M159.37,235.77c-3.41-3.37-9.59-5.63-16.67-5.63s-13.26,2.26-16.67,5.63l-2.8-1.08v3.07c0,6.41,8.72,11.61,19.47,11.61s19.47-5.2,19.47-11.61v-3.07l-2.8,1.08Z"/>
            <path class="cls-108" d="M162.18,234.69c0,6.41-8.72,11.61-19.47,11.61s-19.47-5.2-19.47-11.61,8.72-11.61,19.47-11.61,19.47,5.2,19.47,11.61Z"/>
            <path class="cls-88" d="M151.78,229.93l1.76-1.02-1.39-.8-1.76,1.02c-3.17-1.61-7.07-1.99-9.78-.42-3.41,1.98-1.14,4.05.59,5.76l-3.43,1.99c-.51-.58-.4-1.14.41-1.71l-3.98-2.3c-2.71,1.69-2.08,3.83.63,5.71l-1.78,1.04,1.39.8,1.76-1.02c3.61,1.9,7.55,1.79,9.9.43,3.36-1.96.99-4.05-.69-5.78l3.36-1.95c.4.48.32,1.01-.4,1.53l4,2.31c2.55-1.72,2.16-3.71-.61-5.58ZM142.07,237.22c-.8.47-1.94.49-2.96.07l3.07-1.79c.53.68.66,1.26-.12,1.72ZM144.49,232.56c-.45-.66-.51-1.22.25-1.66.85-.49,1.83-.48,2.77-.09l-3.02,1.75Z"/>
          </g>
        </g>
        <g>
          <g>
            <path class="cls-19" d="M84.87,358.93v.1c0,.43-.13.87-.41,1.2-1.26,1.47-4.22,2.09-4.83,2.21-.03,0-.07.01-.11.02-1.67.26-3.55.36-4.36.45-1.02.11-1.63.29-1.63.29v.19c-.32.08-1.38.33-2.31.39h0c-.88.03-1.95-.1-2.5-.56-.62-.55-.68-1.22-.68-1.22v-.44s0-.2,0-.2l2.18-.15h0l1.08-.08,1-.06.93-.06,11.64-2.05Z"/>
            <path class="cls-20" d="M75.4,356.62s2.11.79,3.63.79,4.5-.04,5.26.5c.38.27.6.59.6.95,0,2.04-4.82,3.28-7.72,3.51-2.9.23-3.05.19-4.42.42-1.37.23-2.8.34-3.66-.09-1.49-.74-1.6-3-.68-4.48.91-1.49,7-1.59,7-1.59Z"/>
            <path class="cls-2" d="M69.11,354.74s-.11,2.28-.14,2.68c-.03.41-.24.77-.18,1.13.1.58.92,1.5,3.47,1.23,1.87-.19,3.45-1.39,3.7-2.12.22-.63-.27-.73-.36-.97-.14-.38,0-3.77-.25-2.61"/>
          </g>
          <g>
            <path class="cls-19" d="M71.96,348.4s.22.95-.09,1.91c-.31.96-.85,1.63-1.48,2.33-.63.7-1.66,1.55-2.38,1.97-.72.42-1.84,1.25-1.99,1.4-.58.55-1.42,1.86-1.42,1.86v.39s-.82,1.01-1.98,1.55c-.86.4-2.46.72-3.75.22-1.35-.53-1.57-1.85-1.61-2.13-.05-.29,0-1.35,0-1.35"/>
            <path class="cls-20" d="M63.06,349.85s2.79-.89,4.36-2.02c2.17-1.55,3.75-1.16,4.29-.24.55.94.77,4.04-3.85,6.74-1.82,1.06-2.62,1.95-3.19,2.82-.43.67-1.25,1.49-2.17,1.95-.78.39-1.63.48-2.41.41-3.16-.26-3.82-3.46-2.28-5.88,1.54-2.42,5.24-3.79,5.24-3.79Z"/>
            <path class="cls-2" d="M58.26,351.27l-.12,2.38s-.32.55-.2,1.03c.15.65,1.98,1.89,4.49.57,2.81-1.48,2.35-2.47,2.37-2.59-.29-1.03-.26-1.26-.26-2.05"/>
          </g>
          <path class="cls-11" d="M55.74,329.18c-.36,7.62,2.11,22.78,2.11,22.78,0,0,1.46,2.38,7.1-.78,0,0,.86-22.79,1.82-29.22.28-1.89.59-3.59,1.05-5.22h0c1.05-3.79,2.01-7.36,2.26-12.41.18-3.61-.46-10.95-1.16-17.43-.7-6.54-1.46-12.19-1.46-12.19,0,0-5.75.19-9.87-3.87,0,0-6.73,9.12-2.45,18.71.99,2.21,1.52,4.6,1.71,7.01.25,3.23.56,7.66.72,11.51.26,6.25.72,8.04.45,8.77-.28.73-1.93,4.73-2.29,12.34Z"/>
          <path class="cls-140" d="M63.6,295.16c1.9,4.9,3.91,16.29,4.22,21.56,1.05-3.78,2.01-7.34,2.26-12.4.18-3.61-.46-10.95-1.16-17.43-2.15-1.69-6.06-4.79-6.06-4.79,0,0-1.18,8.17.73,13.06Z"/>
          <path class="cls-11" d="M79.79,273.91s2.45,9.46,2.9,19.34c.45,9.88-1.74,24.03-2.2,27.38-.45,3.36-1.55,8.59-2.48,16.93-.87,7.85-1.56,17.89-1.56,17.89,0,0-5.69,3.24-7.91.43,0,0-1.38-22.25-.74-29.14.63-6.89,2.06-7.38,1.87-9.64-.18-2.27-2.22-19.5-3.3-21.13-1.09-1.63-6.71-10.25-1.27-21.67,0,0,6.26,1.57,14.69-.39Z"/>
          <g>
            <path class="cls-20" d="M111.39,243.91l-.58-.99-.12.46-24.01-15.18c-.39-.21-.87-.09-1.11.28l-12.45,19.13c-.23.35-.11.81.25,1.01l23.84,15.08-.07.37,1.05.09c.32.01.64-.13.82-.41l12.38-19.03c.17-.26.15-.57,0-.81Z"/>
            <path class="cls-110" d="M70.99,247.8l25.54,16.15c.45.25,1.02.11,1.3-.32l12.96-19.92c.25-.38.12-.89-.28-1.11l-25.59-16.18c-.4-.22-.91-.1-1.16.29l-13.03,20.02c-.24.36-.11.85.27,1.06Z"/>
            <path class="cls-27" d="M72.38,247.37l23.9,15.25c.42.23.95.1,1.22-.3l11.84-18.21c.23-.36.11-.83-.26-1.04l-23.95-15.28c-.38-.21-.86-.09-1.09.27l-11.9,18.31c-.22.34-.11.8.25,1Z"/>
          </g>
          <path class="cls-2" d="M98.7,255.15s.57-.64.69-1.04c.12-.41.19-1.01.69-1.62.5-.62,1.91-3.06,2.2-2.9.29.17.57.87.35,1.82-.23.95-.62,1.56-.63,1.8-.01.24,1.62.28,2.62-.05.55-.18,2.15-1.5,2.56-1.94.38,0-.15,2.88-.38,3.76-.18.72-2.48,3.03-2.48,3.03"/>
          <path class="cls-2" d="M71.24,245.33l2.94-2.85c.39-.38.85-.69,1.34-.91.45-.2,1.02-.49,1.39-.79.7-.56,1.22-1.84,1.49-2.38.27-.54,1.83-2.03,1.99-2.43s.11-1.17-.44-1.12c-.45.04-2.74,1.91-2.86,2.09l1.12-1.72s-2.28.2-3.61.9c-1.33.7-1.67,2.56-2.19,3.01-.52.45-4.06,3.22-4.06,3.22"/>
          <path class="cls-11" d="M77.1,216.21s.93,3.48-1.38,5.65c-2.32,2.17-1.31-4.74-1.31-4.74"/>
          <path class="cls-2" d="M62.85,241.98l8.04-.93,1.21.42s-.26-2.33-.26-4.88c0-1.62.9-3.1,2.34-3.84.86-.44,1.57-.84,1.57-.84,1.39-.91.94-5.44.81-8.23-.14-2.92-.41-6.18-.41-6.18-.79-.94-8.05-.04-10.47,1.64-2.42,1.67-2.27,11.4-2.18,13.22.1,1.82,0,6.15,0,6.15l-.65,3.47Z"/>
          <path class="cls-20" d="M58.15,263.7c.36,5.07-2.23,10.05-2.23,10.05,0,0,5.52,5.35,14.2,6.51,7.6,1.02,10.5-2.69,10.5-2.69,0,0-1.01-5.08-1.43-9.24-.14-1.37-.22-2.63-.17-3.6.08-1.64.5-4.71.89-7.9.53-4.35,1-8.96.44-10.66-.97-2.96-8.28-7.59-8.28-7.59,0,0-8.76.59-8.56-1.92,0,0-4.74-.7-6.92.33-2.18,1.01-2.54,7-1.87,12.02.65,5.02,3.09,9.62,3.45,14.7Z"/>
          <path class="cls-3" d="M72.08,251.87s1.36,6.53,3.21,11.88c0,0,.73.05,1.79,0l2.09,4.58c-.14-1.37-.22-2.63-.17-3.6.08-1.64.5-4.71.89-7.9l-.34-1.15-7.47-3.8Z"/>
          <path class="cls-2" d="M76.67,259.84s3.37,6.74,4.72,8.79c1.68,2.56,2.56,3.53,5.71,1.24h0s11.83-10.85,12.93-10.96c1.11-.11,1.29.07,2.51-.11,1.21-.17,1.78-.78,1.78-.78,0,0-2.28-3.19-2.63-5.14-.9.58-2.58,1.98-3.69,2.64-1.14.67-8.21,4.44-11.93,6.58-.3-.69-1.52-4.3-1.78-4.94,0,.02-7.44,2.78-7.61,2.68Z"/>
          <path class="cls-20" d="M80.33,246.17l4.85,12s-4.11,4.26-8.58,4.26c0,0-4.68-8.8-4.94-12.79"/>
          <path class="cls-20" d="M63.53,235.18l-.42,1.42s0,1.46,1.63,2.11c2.77,1.11,6.9.53,7.89.23l-.61-1.92s-5.67.83-8.49-1.84Z"/>
          <path class="cls-11" d="M58.39,220.17c.76-5.22,4.46-9.63,13.24-8.16,1.84.31,5.9,1.91,5.49,5.22-.41,3.31-2.93,1.18-2.93,4.86,0,1.71-.8,2.82-1.7,3.44-1.53,1.04-1.88,2.68-1.82,6.5.05,3.37,1.72,3.88,2.34,4.21.25.13-4.45,3.17-9.94,1.57-3.47-1.01-5.51-4.64-5.47-8.26.06-5.21.33-6.3.78-9.38Z"/>
        </g>
        <g>
          <path class="cls-130" d="M302.57,250.05l-5.11-4.92,17.29-9.76c.66-.37,1.48-.3,2.06.18l4.82,3.93-19.06,10.57Z"/>
          <path class="cls-127" d="M302.39,252.86l-4.93,10.72,17.51-10.05c.57-.33,1.04-.81,1.35-1.4l5.7-10.77-19.62,11.49Z"/>
          <path class="cls-7" d="M352.45,224.44c0,.45-.14.77-.36.97-.05.04-.11.07-.17.1-.15.1-.25.15-.25.15l-49.7,28.68-2.32-3.89,49.95-28.83c.06-.05.12-.09.2-.11.27-.12.64-.07,1.04.15.89.51,1.61,1.76,1.61,2.78Z"/>
          <path class="cls-49" d="M302.4,253.33c0,.45-.14.77-.36.97-.05.04-.11.07-.17.1-.29.12-.66.09-1.07-.15-.89-.51-1.6-1.76-1.6-2.78,0-.45.14-.77.36-.96.06-.05.12-.09.2-.11.27-.12.64-.07,1.04.15.89.51,1.61,1.76,1.61,2.78Z"/>
        </g>
        <g>
          <path class="cls-108" d="M277.55,386.15h0c-1.26.5-2.7-.03-3.34-1.23l-5.31-9.88,7.43-2.92,2.83,10.85c.34,1.31-.35,2.67-1.61,3.17Z"/>
          <path class="cls-108" d="M231.98,359.01h0c.7,1.16,2.16,1.62,3.39,1.06l10.23-4.59-4.12-6.84-8.85,6.88c-1.07.83-1.35,2.33-.65,3.5Z"/>
          <g>
            <path class="cls-90" d="M296.68,352.39c0-17.92-12.58-39.72-28.1-48.68-7.16-4.13-13.68-4.8-18.64-2.58h0s-.1.04-.1.04c-.21.09-.41.2-.61.3l-15.58,8.05.65,1.54c-2.44,3.4-3.84,8.18-3.84,14.15,0,17.93,12.58,39.72,28.11,48.68,4.77,2.75,9.26,3.97,13.2,3.82l.48,1.27,14.93-7.77c.46-.2.9-.42,1.33-.67l.03-.02h0c5.04-2.96,8.15-9.23,8.15-18.14Z"/>
            <path class="cls-35" d="M273.88,378.1c.08-.03.15-.07.22-.1l-4.36,2.26h0s4.14-2.16,4.14-2.16Z"/>
            <path class="cls-12" d="M294.19,353.67c0,8.9-3.12,15.17-8.15,18.14h-.04c-.43.27-.87.49-1.33.69l-9.34,4.86c2.47-1.47,4.47-3.77,5.86-6.79,1.4-3.06,2.19-6.85,2.19-11.3,0-17.92-12.58-39.72-28.11-48.69-7.15-4.13-13.68-4.8-18.64-2.58h0s-.11.04-.11.04c-.2.1-.39.2-.59.31v-.02l10.79-5.59c.2-.1.4-.2.62-.3l.1-.05c1.83-.82,3.88-1.24,6.09-1.24,3.78,0,8.04,1.22,12.56,3.83,15.52,8.97,28.1,30.77,28.1,48.69Z"/>
            <path class="cls-73" d="M275.34,377.36s-.06.04-.09.05l-.03.02c-.36.21-.73.4-1.11.57l1.23-.64Z"/>
            <path class="cls-81" d="M224.99,327.95c0,17.92,12.58,39.71,28.1,48.68,15.52,8.96,28.11,1.69,28.11-16.23s-12.58-39.72-28.11-48.68c-15.52-8.96-28.1-1.7-28.1,16.23Z"/>
            <path class="cls-29" d="M227.19,329.22c0,16.52,11.59,36.61,25.89,44.86,14.31,8.26,25.9,1.56,25.9-14.95s-11.59-36.6-25.9-44.86c-14.3-8.26-25.89-1.56-25.89,14.95Z"/>
          </g>
          <g>
            <path class="cls-108" d="M253.09,344.51h0c-1.22-.74-2.2-2.34-2.15-3.53l.8-18.18c.03-.7.62-.91,1.35-.48h0c.72.43,1.31,1.36,1.35,2.1l.8,19.14c.05,1.25-.92,1.69-2.15.95Z"/>
            <path class="cls-108" d="M252.58,343.36h0c.54-.45,1.34-.37,1.78.17l18.02,22.34c.26.32.21.78-.1,1.04h0c-.31.26-.77.22-1.04-.08l-18.79-21.69c-.46-.53-.39-1.33.14-1.78Z"/>
            <path class="cls-45" d="M256.06,345.6c0-1.88-1.33-4.18-2.97-5.13-.78-.45-1.49-.51-2.02-.24l-.93.47.25.22c-.17.33-.27.75-.27,1.26,0,1.88,1.33,4.18,2.97,5.13.46.26.88.38,1.27.4l-.06.33.95-.56c.5-.32.81-.96.81-1.86Z"/>
            <path class="cls-108" d="M255.24,346.08c0,1.88-1.33,2.64-2.97,1.7-1.64-.95-2.88-3.25-2.97-5.13-.09-1.9,1.21-2.66,2.97-1.7,1.66.91,2.97,3.24,2.97,5.13Z"/>
            <g>
              <path class="cls-161" d="M253.49,318.29h0c-.22-.13-.4-.47-.4-.76v-1.34c0-.29.18-.43.4-.3h0c.22.13.4.47.4.76v1.34c0,.29-.18.43-.4.3Z"/>
              <path class="cls-161" d="M253.49,371.88h0c-.22-.13-.4-.47-.4-.76v-1.34c0-.29.18-.43.4-.3h0c.22.13.4.47.4.76v1.34c0,.29-.18.43-.4.3Z"/>
              <path class="cls-161" d="M231.18,331.01h0c0,.25-.15.37-.34.26l-1.4-.81c-.19-.11-.34-.4-.34-.65h0c0-.25.15-.37.34-.26l1.4.81c.19.11.34.4.34.65Z"/>
              <path class="cls-161" d="M277.89,357.97h0c0,.25-.15.37-.34.26l-1.4-.81c-.19-.11-.34-.4-.34-.65h0c0-.25.15-.37.34-.26l1.4.81c.19.11.34.4.34.65Z"/>
              <path class="cls-108" d="M242.34,315.28h0c-.19.02-.43-.2-.54-.48l-.65-1.66c-.11-.28-.04-.52.15-.54h0c.19-.02.43.2.54.48l.65,1.66c.11.28.04.52-.15.54Z"/>
              <path class="cls-108" d="M265.69,375.18h0c-.19.02-.43-.2-.54-.48l-.65-1.66c-.11-.28-.04-.52.15-.54h0c.19-.02.43.2.54.48l.65,1.66c.11.28.04.52-.15.54Z"/>
              <path class="cls-108" d="M234.17,345.53h0c.11.28.04.52-.15.54l-1.12.1c-.19.02-.43-.2-.54-.48h0c-.11-.28-.04-.52.15-.54l1.12-.1c.19-.02.43.2.54.48Z"/>
              <path class="cls-108" d="M274.62,342.09h0c.11.28.04.52-.15.54l-1.12.1c-.19.02-.43-.2-.54-.48h0c-.11-.28-.04-.52.15-.54l1.12-.1c.19-.02.43.2.54.48Z"/>
              <path class="cls-108" d="M234.17,319.93h0c-.11.16-.35.09-.54-.15l-1.12-1.39c-.19-.24-.26-.55-.15-.71h0c.11-.16.35-.09.54.15l1.12,1.39c.19.24.26.55.15.71Z"/>
              <path class="cls-108" d="M274.62,370.08h0c-.11.15-.35.09-.54-.15l-1.12-1.39c-.19-.24-.26-.55-.15-.71h0c.11-.15.35-.09.54.15l1.12,1.39c.19.24.26.55.15.71Z"/>
              <path class="cls-108" d="M242.34,359.62h0c.19.24.26.55.15.71l-.65.91c-.11.16-.35.09-.54-.15h0c-.19-.24-.26-.55-.15-.71l.65-.91c.11-.16.35-.09.54.15Z"/>
              <path class="cls-108" d="M265.69,326.69h0c.19.24.26.55.15.71l-.65.91c-.11.15-.35.09-.54-.15h0c-.19-.24-.26-.55-.15-.71l.65-.91c.11-.15.35-.09.54.15Z"/>
            </g>
          </g>
          <path class="cls-111" d="M269.39,311.92s-4.01,3.57-1.47,11.02c2.18,6.37,8.29,13.47,15.36,11.94,7.07-1.53,13.69-9.89,7.29-20.54-2.93-4.87-12.58-10.42-21.18-2.42Z"/>
          <path class="cls-13" d="M248.14,288.89c1.96.57,5.21,2.27,6.89,6.16,1.66,3.86-1.44,8.32-8.96,12.01-7.1,3.49-13.93,5.05-17.24.29-.95-1.37-1.86-6.35.34-10.61,1.38-2.68,3.52-4.85,6.52-6.45,3.88-2.07,8.07-2.69,12.45-1.4Z"/>
          <path class="cls-108" d="M292.44,312.78h0c-.75-1.12-2.26-1.41-3.38-.66-1.26.85-1.92,1.3-1.92,1.3-.65.44-.57,1.69.18,2.81.75,1.11,1.88,1.66,2.53,1.23,0,0,.67-.45,1.94-1.31,1.11-.75,1.4-2.26.66-3.37Z"/>
          <path class="cls-108" d="M234.25,287.88h0c-1.12.64-1.54,1.99-.95,3.02.67,1.17,1.02,1.77,1.02,1.77.34.6,1.39.22,2.5-.42,1.11-.64,1.87-1.29,1.53-1.89,0,0-.36-.62-1.03-1.78-.59-1.02-1.97-1.34-3.08-.7Z"/>
        </g>
        <g>
          <g>
            <path class="cls-19" d="M195.02,387.6v.1c0,.43-.13.86-.41,1.2-1.25,1.47-4.21,2.08-4.82,2.2-.03,0-.07.01-.11.02-1.67.26-3.55.36-4.36.45-1.02.11-1.63.28-1.63.28v.18c-.32.08-1.38.33-2.3.38h0c-.88.03-1.95-.1-2.49-.56-.17-.15-.57-.6-.68-1.16v-.49s0-.2,0-.2l2.18-.15h0l1.08-.08,1-.06.93-.06,11.62-2.05Z"/>
            <path class="cls-20" d="M185.56,385.29s2.1.78,3.62.78,4.49-.04,5.25.49c.38.27.6.59.59.95,0,2.04-4.82,3.27-7.71,3.5-2.89.23-3.04.19-4.41.42-1.37.23-2.79.34-3.66-.09-1.49-.74-1.59-2.99-.68-4.47.91-1.48,6.99-1.58,6.99-1.58Z"/>
            <path class="cls-138" d="M179.29,383.42s-.11,2.27-.14,2.68c-.03.41-.24.77-.18,1.13.1.58,1.46,1.16,3.33.95,1.87-.21,3.4-1.25,3.74-1.82.34-.57-.18-.75-.27-.99-.14-.38,0-3.76-.25-2.61"/>
          </g>
          <g>
            <path class="cls-19" d="M172.9,373.26s.19.82-.07,1.65c-.27.83-.73,1.41-1.28,2.01-.54.6-1.43,1.33-2.06,1.7-.62.37-1.59,1.08-1.72,1.21-.5.48-1.23,1.6-1.23,1.6v.34s-.71.87-1.71,1.34c-.75.35-1.79.59-3.15.18-1.2-.36-1.43-1.58-1.47-1.83-.04-.25,0-1.17,0-1.17"/>
            <path class="cls-20" d="M165.22,374.51s2.41-.77,3.76-1.74c1.87-1.34,3.24-1,3.7-.2.47.81.66,3.49-3.32,5.81-1.57.91-2.26,1.68-2.75,2.43-.37.58-1.08,1.29-1.87,1.69-.67.34-1.41.41-2.08.36-2.73-.22-3.3-2.98-1.97-5.08,1.33-2.09,4.52-3.27,4.52-3.27Z"/>
            <path class="cls-138" d="M161.08,375.73l-.1,2.06s-.28.47-.18.89c.13.56,1.71,1.63,3.87.49,2.42-1.28,2.15-3.17,2.17-3.28.13-.86-.36-.05-.36-.73"/>
          </g>
          <path class="cls-11" d="M193.55,340.58c-.77,6.87-3.23,18.51-4.07,24.36-.86,5.98-2.5,19.31-2.5,19.31,0,0-.87,1.38-4.03,1.8-3.11.42-4.43-1.47-4.43-1.47,0,0-1.04-18.73-.82-22.13.22-3.42,1.22-9.69,1.07-13.04-.1-2.41-.07-8.13-1.26-13.18-.17.53-.35,1.02-.52,1.44-1.8,4.07-5.21,12.81-6.16,16.13-.91,3.23-3.26,22.23-3.26,22.23-.14.29-.47.63-.96.98-.6.42-1.46.83-2.46,1.11-2.83.79-3.82-.83-3.82-.83-.34-1.98-.08-23.8.87-27.51.94-3.7,2.1-9.52,2.32-13.07.22-3.56.65-11.49.22-16.13-.17-1.75.03-3.33.35-4.59.5-2.11,1.33-3.41,1.33-3.41,0,0,27.22,1.49,28.13,5.62.26,1.18.45,2.54.56,4,.49,5.63.05,12.92-.56,18.38Z"/>
          <path class="cls-140" d="M177.52,336.23c-.17.54-.35,1.02-.53,1.44-1.79,4.07-5.21,12.81-6.15,16.13-.92,3.23-3.27,22.23-3.27,22.23-.13.28-.47.63-.96.98.39-4.57,1.9-19.36,2.48-21.86.71-3.08,1.01-4.27,1.92-6.35.91-2.08,5.26-12.16,2.77-17.09-1.63-3.22-2.31-6.2-2.58-7.87.89,4.06,4.72,7.37,4.72,7.37l1.6,5.01Z"/>
          <path class="cls-138" d="M184.67,263.58c-.67.44-1.35.65-1.91.81,0,0-.04,0-.12.03-.05,0-.1.03-.15.05-.13.04-.31.1-.51.19-.2.1-.34.21-.4.37-.25.64,0,4.47,0,4.47l-1.21-.42-7.34-2.53s.1-1.97,0-3.78c-.1-1.81-.25-11.49,2.16-13.15,2.41-1.67,9.33-.64,10.11.29,0,0,.23,1.48.7,4.23.48,2.74.04,8.55-1.34,9.45Z"/>
          <path class="cls-2" d="M180.8,265.35c.36-.32.8-.54,1.18-.69-.2.1-.34.21-.4.37-.25.64,0,4.47,0,4.47l-1.21-.42c-.09-1.22-.19-3.19.43-3.72Z"/>
          <path class="cls-62" d="M183.88,244.61c-.76.88-3.5,1.1-3.5,1.1,0,0-3.27-.13-5.42.62-4.4,1.52-5.41,5.45-5.22,8.19.2,2.78,1.73,4.75,2.13,5.66.39.92.43,2.55.72,3.08.29.52,5.25,1.34,5.77,1.02.52-.33,1.82-2.16,1.92-2.95.1-.79-.03-2.72.16-3.4.2-.69,1.08-1.57,1.57-1.47.49.1.79.95.98,1.8.2.85.62.85.82.65.2-.2.1-2.32.23-2.98.13-.65.39-.82.33-2.75-.07-1.93.52-1.41,1.43-2.52,2.68-2.7-.43-7.77-1.92-6.05Z"/>
          <g>
            <polygon class="cls-125" points="188.59 268.73 188.59 290.83 214.88 307.25 214.88 285.15 188.59 268.73"/>
            <polygon class="cls-84" points="188.59 268.73 188.59 290.83 170.03 300.52 170.03 278.42 188.59 268.73"/>
            <path class="cls-32" d="M212.39,280.5l-9.37,14.35c-.2.31-.61.4-.93.21l-19.51-11.78c-.33-.2-.43-.64-.22-.96l9.59-14.68c.2-.31.62-.4.94-.21l19.28,12.12c.32.2.42.63.21.95Z"/>
            <path class="cls-132" d="M191.01,289.95l-6.55.34c-.46.02-.84-.33-.86-.79l-.86-21.5c-.02-.45.33-.83.78-.85l6.55-.35c.46-.02.85.33.86.79l.86,21.51c.02.45-.33.83-.78.85Z"/>
            <path class="cls-38" d="M204.58,299.73h-10.51c-.34,0-.62-.27-.64-.61l-.66-13.3c-.02-.37.27-.67.64-.67h10.5c.34,0,.62.27.64.61l.67,13.3c.02.37-.27.67-.64.67Z"/>
            <polygon class="cls-28" points="214.88 285.15 214.88 307.25 196.32 316.94 196.32 294.84 214.88 285.15"/>
            <polygon class="cls-87" points="170.02 278.42 170.02 300.52 196.32 316.94 196.32 294.84 170.02 278.42"/>
          </g>
          <path class="cls-2" d="M214.66,306.11c-.12-.1-.81-.37-1.32-.43-.51-.06-1.9.02-2.75-.31-.72-.29-2.09-1.47-2.31-1.67h0c-2.32-2.26-5.92-5.74-8.25-7.71-.54-1.61-1.64-5.25-1.86-5.79-.01.02-1.37,2.66-4.21,3.73-2.68.99-4.19.11-4.36,0h0c.12.27.25.54.38.77.42.83,1.34,2.38,1.88,3.28.41.91,1.05,2.06,2.97,3.04,0,0,4.8,2.76,9.05,4.73.61.28,4.08,1.7,4.68,2.37.85.96,1.6,1.96,2.02,1.96.72,0,.76-.28,1.26-.26.5.01.86-.46,1.12-.53.25-.07.6-.08.86-.34.26-.26.17-1.25.17-1.25l-.35.18s-.89-.57-.95-.79c-.08-.25.08-.33.08-.33,0,0,.96-.12,1.35-.1.39.02.66-.45.54-.56Z"/>
          <path class="cls-2" d="M198.42,290.79c-.66.7-1.92,1.88-3.48,2.69,2.16-1.22,3.22-3.26,3.23-3.28.08.2.16.4.24.59Z"/>
          <path class="cls-20" d="M198.96,290.2s-.2.24-.54.59c-.67.7-1.91,1.89-3.48,2.69-.14.1-.3.17-.45.24-.17.07-.34.13-.52.2-.23.1-.46.17-.68.23-1.55.43-2.63.21-3.2.01-.08-.02-.15-.06-.21-.08-.07-.04-.12-.06-.17-.08-.02-.01-.05-.02-.06-.02-.01-.01-.02-.01-.04-.02h-.02s0,0,0,0c.13.27.26.52.39.77.61,1.15,2.16,3.75,2.3,3.97h.01v.02s-.3,4.01.96,9.88c.68,3.28.96,7.17,1.07,9.86h0c.19,3.21.3,8.44-.02,6.98-.15-.67-1.57-5.13-1.77-5.13-.25.1-.73,2.2-.73,2.2-.65,2.32-2.33,5.1-6.6,5.29-.62.02-1.3,0-2.01-.06h-.04c-5.1-1.28-15.25-7.94-17.77-9.41-1.52-.88-1.75-2.44-1.69-3.53h0c.07-.48.14-.89.19-1.21.01-.02.01-.04.01-.04.08-.45.13-.74.13-.74.32-2.4.98-6.66,2.15-10.64,1.42-4.74,1.3-8.32-1.83-13.75-3.88-6.73-5.61-16.05-1.55-20.01,1.26-1.24,3.66-3.19,7.67-1.66l.95-1.03s7,1.56,12.23,4.85v1.02c.11.06.24.12.36.18,4.64,2.18,8.35,4.57,10.18,7.91,1.17,2.16,3.22,6.09,4.77,10.52Z"/>
          <path class="cls-3" d="M183.64,271.1v.5s-5.51-2.37-8.52-3.35c.66.18,5.68,1.51,8.52,2.85Z"/>
          <path class="cls-3" d="M192.73,305.79c-.21-1.1-1.1-3.6-2.53-6.82-1.85-4.19-3.71-7.67-5.21-11.92l3.42,6.12,1.18.78s.01.01.02.03c.12.26.23.5.36.73.6,1.15,2.16,3.75,2.3,3.98h.01v.02s-.21,2.77.44,7.07Z"/>
        </g>
        <g>
          <path class="cls-92" d="M280.11,118.55l-.9,7.83s-4.12,7.77-6.83,12.18c-1.12,1.82-1.83,2.96-2.28,3.68,0,0-1.83,2.3-2.99,2.67-1.16.37-1.67.65-2.34,1.03-.67.38-.96,1.58-1,1.71-.04.14.17.72.17.72,0,0-.83,1.44-1.16,1.96s-1.02,1.44-.71,1.81c.31.37,1.46-.81,1.7-1.02.32-.28,1.45-1.6,1.45-1.6,0,0,.5.41.87.46.37.06.75.35,1.2.39.44.04,1.1.33,1.64.19.98-.24,2.24-3.74,3.54-4.77,0,0,13.56-12.67,15.39-15.53,1.84-2.86,2.35-11.34,2.35-11.34l-10.1-.36Z"/>
          <path class="cls-20" d="M291.2,111.27s.02,4.53-.16,7.47c-.18,2.94-.41,4.71-.41,4.71,0,0-4.95,2.68-11.88-.66l.76-13.05,11.7,1.52Z"/>
          <path class="cls-92" d="M255.19,95.56s-7.02-.02-9.69.63-3.49,3.73-2.06,6.2,12.52,4.25,12.52,4.25l-.78-11.09Z"/>
          <path class="cls-20" d="M265.22,95.16c-5.13-.36-11.18.1-13.91.27-.62.04-2.23,7.97.8,11.36,4.48.21,10.82.88,10.82.88,0,0,5.46-12.28,2.29-12.51Z"/>
          <path class="cls-92" d="M267.54,113.18c-1.03-.38-1.13-.35-1.74-.7-.61-.35-1.83-1.57-1.83-1.57h0c-2.3-2.68-7.6-7.56-10.74-10.39-1.35-1.21-3.49-2.85-3.49-2.85l-6.16,4.9c3.36,3.72,9.71,6.67,14.27,8.84,2.01.96,3.08,1.8,4.06,2.34.14.32,1.06,1.38,1.44,1.68.49.38,1.6.67,1.6.67,0,0,.49.28,1.57.88,1.74.97,3.9-.64,3.58-1.24-.32-.6-1.52-2.19-2.54-2.56Z"/>
          <path class="cls-20" d="M291.2,111.27c-.07.28-.14.57-.21.84-.06.28-.15.57-.21.83-.66,2.7-1.46,5.38-2.28,8.05-.33,1.08-.72,2.16-1.11,3.24l-26.58-16.78c-.1-2.44-.16-4.28-.11-5.16.02-.4-2.16-1.42-2.07-1.79.64-2.55,3.81-6.6,4.77-6.54,1.98.12,4.71.88,5.01.88,1.71.33,3.5.62,5.28.99.33.07.66.14.99.22,0,0,.01,0,.02.01.58.19,9.93,3.19,13.83,8.51,1.62,2.21,2.36,4.63,2.66,6.7Z"/>
          <path class="cls-104" d="M273.08,92.13l3.36,4.81c.52.85.16,1.84-.46,2.59-1.64,1.98-5.19,2.74-6.91,1.36-.76-.54-.44-2.29-1.5-3.84l3.86-3.59,1.66-1.33Z"/>
          <path class="cls-92" d="M259.2,88.16s.42,3.98,1.96,7.37c1.54,3.4,1.95,4.15,3.52,4.48,1.57.33,2.87.14,4.97-1.91,2.09-2.05,2.89-4.85,2.89-4.85,0,0,.39.15,1.05-1,1.03-1.8,1.14-2.62.71-4.68-.43-2.07-1.48-4.56-3.65-6.93-2.17-2.37-6.93-.48-8.93,1.13-2,1.61-2.56,3.99-2.51,6.39Z"/>
          <path class="cls-62" d="M274.75,86.06s0,0,0,0c-.32-1.41-.8-2.94-1.51-4.55-.57-1.31-2.41-1.4-2.41-1.4,0,0-4.61-3.4-8.49-.38-2.11,1.64-3.6,3.91-4.47,5.73-.62,1.3-2.76,4.44,1.99,6.23,0,0,3.41.96,5.29.45.77-.21,1.8-1.75,2.06-2.42.7.5,1.45.52,1.92.66.7.22,1.25,2.13,1.25,2.13l.79-.25s-.41-1.83-.31-2.82c.1-.99,1.48-2.02,2.62-.85.93.96.25,2.91-.07,3.98l.55.7c.44-.87,1.33-3.14.79-7.19Z"/>
        </g>
        <g>
          <g>
            <path class="cls-31" d="M359.95,153.77l-4.84-3.55c-.07-.05-.13-.12-.16-.2l-2.15-5.63c-.1-.27-.4-.35-.61-.23h0s-3.14,1.79-3.14,1.79c0,0,.12.46.25.94l-3.64-1.61c-.14-.06-.26-.03-.36.03h-.02s-3.24,1.85-3.24,1.85l1.9,1.85,1.27,1.17s1.84-.19,2.15-.25c.06-.01.13-.12.21-.29l.81,1.26c.06.1.08.21.06.32l-.83,4.34c-.05.26.15.51.41.52l4.3.27c.12,0,.23.06.3.15l.76.85c-.39.47-1.27,1.54-1.28,1.65-.01.13.27,1.05.27,1.05l1.53,2.75,3.08-1.77h0c.19-.06.34-.22.3-.45l-.69-4.44s.01-.08.02-.11l.21.23,3.06-1.73c.3-.12.34-.53.07-.73Z"/>
            <path class="cls-119" d="M348.85,146.09l-1.86,2.67c-.11.16-.32.21-.5.13l-4.03-1.78c-.38-.17-.73.24-.5.6l3.21,5.01c.06.1.08.21.06.32l-.83,4.34c-.05.26.15.51.41.52l4.3.27c.12,0,.23.06.3.15l3.93,4.38c.29.32.79.1.72-.31l-.69-4.44c-.03-.19.07-.37.25-.44l3.04-1.18c.3-.12.34-.53.07-.73l-4.84-3.55c-.07-.05-.13-.12-.16-.2l-2.15-5.63c-.12-.32-.55-.4-.74-.12Z"/>
          </g>
          <g>
            <path class="cls-149" d="M51.34,90.06l-3.64-2.67c-.05-.04-.09-.09-.12-.15l-1.62-4.23c-.08-.2-.3-.26-.46-.17h0s-2.36,1.35-2.36,1.35c0,0,.09.35.19.71l-2.74-1.21c-.1-.05-.2-.02-.27.02h-.01s-2.44,1.39-2.44,1.39l1.43,1.39.96.88s1.38-.14,1.62-.19c.04,0,.1-.09.16-.22l.61.95c.05.07.06.16.05.24l-.62,3.26c-.04.19.11.38.31.39l3.24.2c.09,0,.17.05.23.11l.57.64c-.3.36-.96,1.16-.97,1.24-.01.1.2.79.2.79l1.15,2.07,2.32-1.34h0c.14-.04.25-.16.23-.34l-.52-3.34s.01-.06.02-.09l.16.17,2.3-1.3c.23-.09.26-.4.05-.55Z"/>
            <path class="cls-120" d="M42.98,84.28l-1.4,2.01c-.08.12-.24.16-.38.1l-3.03-1.34c-.29-.13-.55.18-.38.45l2.41,3.77c.05.07.06.16.05.24l-.62,3.26c-.04.19.11.38.31.39l3.24.2c.09,0,.17.05.23.11l2.96,3.29c.21.24.59.07.54-.24l-.52-3.34c-.02-.14.05-.28.19-.33l2.29-.88c.23-.09.26-.4.05-.55l-3.64-2.67c-.05-.04-.09-.09-.12-.15l-1.62-4.23c-.09-.24-.42-.3-.56-.09Z"/>
          </g>
          <g>
            <path class="cls-61" d="M229.52,55.4l-3.64-2.67c-.05-.04-.09-.09-.12-.15l-1.62-4.23c-.08-.2-.3-.26-.46-.17h0s-2.36,1.35-2.36,1.35c0,0,.09.35.19.71l-2.74-1.21c-.1-.05-.2-.02-.27.02h-.01s-2.44,1.39-2.44,1.39l1.43,1.39.96.88s1.38-.14,1.62-.19c.04,0,.1-.09.16-.22l.61.95c.05.07.06.16.05.24l-.62,3.26c-.04.19.11.38.31.39l3.24.2c.09,0,.17.05.23.11l.57.64c-.3.36-.96,1.16-.97,1.24-.01.1.2.79.2.79l1.15,2.07,2.32-1.34h0c.14-.04.25-.16.22-.34l-.52-3.34s.01-.06.01-.09l.16.17,2.3-1.3c.23-.09.26-.4.05-.55Z"/>
            <path class="cls-147" d="M221.16,49.63l-1.4,2.01c-.08.12-.24.16-.38.1l-3.03-1.34c-.29-.13-.55.18-.38.45l2.41,3.77c.05.07.06.16.05.24l-.62,3.26c-.04.19.11.38.31.39l3.24.2c.09,0,.17.05.23.11l2.96,3.29c.21.24.59.07.54-.24l-.52-3.34c-.02-.14.05-.28.19-.33l2.29-.88c.23-.09.26-.4.05-.55l-3.64-2.67c-.05-.04-.09-.09-.12-.15l-1.62-4.23c-.09-.24-.42-.3-.56-.09Z"/>
          </g>
        </g>
        <g>
          <path class="cls-135" d="M300.97,81.18l-14.76-8.5c-.7-.4-1.57.1-1.57.9v12.98c0,1.17.62,2.25,1.64,2.83l.29.16c.53.31.92.81,1.09,1.4l1.26,4.35c.07.24.39.26.5.04l1.43-2.92c.08-.17.29-.23.46-.14l9.74,5.61c.7.4,1.57-.1,1.57-.91v-12.98c0-1.17-.62-2.25-1.64-2.83Z"/>
          <path class="cls-108" d="M289.4,81.38c.71.41,1.28,1.4,1.28,2.21,0,.81-.58,1.14-1.28.73s-1.28-1.39-1.27-2.21c0-.81.58-1.14,1.28-.73Z"/>
          <path class="cls-108" d="M293.63,83.82c.71.41,1.28,1.4,1.28,2.21,0,.81-.58,1.14-1.28.73s-1.28-1.39-1.28-2.21c0-.81.58-1.14,1.28-.73Z"/>
          <path class="cls-108" d="M297.87,86.27c.71.41,1.28,1.4,1.27,2.21,0,.81-.58,1.14-1.28.73s-1.28-1.39-1.27-2.21c0-.81.58-1.14,1.28-.73Z"/>
        </g>
        <g>
          <path class="cls-122" d="M53.69,206.76l-14.76-8.5c-.7-.4-1.57.1-1.57.9v12.98c0,1.17.62,2.25,1.64,2.83l7.68,4.41c.53.31.92.81,1.09,1.4l1.26,4.35c.07.24.39.26.5.04l1.43-2.92c.08-.17.29-.23.46-.14l2.35,1.36c.7.4,1.57-.1,1.57-.9v-12.98c0-1.17-.62-2.25-1.64-2.83Z"/>
          <path class="cls-108" d="M42.12,206.95c.71.41,1.28,1.4,1.28,2.21,0,.81-.58,1.14-1.28.73s-1.28-1.39-1.28-2.21c0-.81.58-1.14,1.28-.73Z"/>
          <path class="cls-108" d="M46.35,209.4c.71.41,1.28,1.4,1.27,2.21s-.58,1.14-1.28.73-1.28-1.39-1.28-2.21c0-.81.58-1.14,1.28-.73Z"/>
          <path class="cls-108" d="M50.59,211.85c.71.41,1.28,1.4,1.28,2.21,0,.81-.58,1.14-1.28.73s-1.28-1.39-1.28-2.21.58-1.14,1.28-.73Z"/>
        </g>
        <g>
          <g>
            <path class="cls-43" d="M422.98,328.01l-42.65-25.81c-1.52-.92-3.42-.92-4.94,0l-70.08,42.41c-.38.23-.58.63-.58,1.02v4.22h0c.03.36.22.7.57.92l42.92,25.97c1.35.81,3.03.81,4.38,0l70.37-42.59c.38-.23.57-.62.57-1.02v-4.11c0-.39-.19-.78-.57-1.02Z"/>
            <path class="cls-108" d="M348.22,372.63l-42.92-25.97c-.77-.47-.77-1.58,0-2.05l70.08-42.41c1.52-.92,3.42-.92,4.94,0l42.65,25.81c.76.46.76,1.57,0,2.03l-70.37,42.59c-1.35.81-3.03.81-4.38,0Z"/>
            <path class="cls-141" d="M355.59,365.61l-38.65-23.39c-.69-.42-.69-1.43,0-1.84l57.33-34.68c1.37-.83,3.08-.83,4.44,0l38.41,23.25c.69.42.69,1.41,0,1.83l-57.59,34.84c-1.21.73-2.73.73-3.94,0Z"/>
            <path class="cls-143" d="M417.58,330.22c-.08.22-.22.41-.45.55l-57.59,34.84c-1.21.73-2.73.73-3.94,0l-38.65-23.39c-.23-.14-.38-.34-.46-.56-.16-.46,0-1.01.46-1.29l57.33-34.68c1.37-.83,3.08-.83,4.45,0l38.41,23.25c.46.28.61.83.45,1.28Z"/>
            <path class="cls-91" d="M417.58,330.22c-.08.22-.22.41-.45.55l-57.08,34.53-.51.31c-1.21.73-2.73.73-3.94,0l-5.2-3.14-1.65-1-3.3-2-28.5-17.25c-.23-.14-.38-.34-.46-.56.08-.22.23-.42.46-.56l49.44-29.91,5.65-3.42,2.24-1.35c.18-.11.37-.21.57-.29,1.25-.53,2.7-.43,3.88.29l5.45,3.3,32.97,19.95c.22.13.37.33.45.55Z"/>
            <path class="cls-134" d="M335.03,356.17l-.04.04c-.13-.71-.67-1.42-1.61-1.99-2.02-1.21-5.09-1.29-6.87-.18-.65.4-1.03.91-1.16,1.45l-.05-.04v.57h0c.04.78.59,1.6,1.64,2.23,2.02,1.21,5.09,1.29,6.87.18.81-.51,1.21-1.17,1.21-1.86h0s0-.39,0-.39Z"/>
            <path class="cls-69" d="M326.51,353.64c1.78-1.11,4.85-1.03,6.87.18,2.02,1.21,2.21,3.09.43,4.2-1.78,1.11-4.85,1.03-6.87-.18-2.02-1.21-2.21-3.09-.43-4.2Z"/>
          </g>
          <g class="cls-151">
            <path class="cls-126" d="M386.9,313.75l-2.7-1.66h0s-6.66-4.08-6.66-4.08c-.19-.12-.44-.12-.63,0l-6.07,3.79c-.21.13-.21.44,0,.57l3.56,2.18h0s5.79,3.56,5.79,3.56c.2.12.44.12.64,0l6.07-3.8c.21-.13.21-.44,0-.56Z"/>
            <path class="cls-126" d="M404.74,324.73l-16.19-9.94c-.14-.08-.31-.08-.45,0l-.93.54c-.15.09-.15.31,0,.4l16.18,9.94c.14.08.31.08.45,0l.93-.54c.15-.09.15-.31,0-.4Z"/>
            <path class="cls-126" d="M402.72,326.04l-16.19-9.94c-.14-.08-.31-.08-.45,0l-.93.54c-.15.09-.15.31,0,.4l16.18,9.94c.14.08.31.08.45,0l.93-.54c.15-.09.15-.31,0-.4Z"/>
            <path class="cls-126" d="M400.7,327.43l-16.19-9.94c-.14-.08-.31-.08-.45,0l-.93.54c-.15.09-.15.31,0,.4l16.18,9.94c.14.08.31.08.45,0l.93-.54c.15-.09.15-.31,0-.4Z"/>
            <path class="cls-48" d="M402.68,334.53l-9.59-5.89h0s-23.69-14.53-23.69-14.53c-.69-.43-1.56-.43-2.26,0l-21.58,13.49c-.76.47-.76,1.57,0,2.04l12.65,7.74h0s20.6,12.67,20.6,12.67c.69.43,1.57.43,2.27,0l21.6-13.5c.75-.46.75-1.55,0-2.01Z"/>
            <path class="cls-48" d="M374,353.96l-18.53,11.58-5.08-3.08-1.66-1.01-3.29-1.99-26.26-15.88,19.28-12.05c.7-.43,1.57-.43,2.26,0l23.69,14.53,9.59,5.9c.76.46.76,1.55,0,2.01Z"/>
          </g>
          <path class="cls-148" d="M384.16,309.72l-24.11,55.57-.51.31c-1.21.73-2.73.73-3.94,0l-5.2-3.14,24.44-56.32c1.25-.53,2.7-.43,3.88.29l5.45,3.3Z"/>
          <polygon class="cls-148" points="372.03 307.78 348.74 361.46 345.44 359.46 366.38 311.2 372.03 307.78"/>
        </g>
        <g>
          <path class="cls-78" d="M363.37,274.4l-24.83-14.3c-.53-.3-1.12-.27-1.58,0h0s-.01,0-.01,0c0,0,0,0,0,0l-2.56,1.47s.86,1.24.92,1.43c.01.03.05.06.11.1v21.77c0,1.2.64,2.3,1.68,2.9l25.78,14.85-.3.71.04.39,2.57-1.47c.43-.25.74-.71.74-1.27v-22.15c0-1.82-.97-3.5-2.55-4.4Z"/>
          <path class="cls-108" d="M363.4,280.25v22.15c0,1.13-1.22,1.84-2.21,1.27l-25.89-14.91c-1.04-.6-1.68-1.7-1.68-2.9v-22.94c0-1.23,1.33-1.99,2.39-1.38l24.83,14.3c1.57.91,2.55,2.59,2.55,4.4Z"/>
          <g>
            <path class="cls-47" d="M339.34,270.81v2.24l9.17,10.28,9.19.22v-1.95c0-1-.53-1.92-1.4-2.42l-15.79-9.04c-.52-.3-1.16.08-1.16.67Z"/>
            <path class="cls-107" d="M348.51,284.47l-9.17-10.28v8.43c0,1,.53,1.92,1.4,2.42l15.79,9.04c.52.3,1.16-.08,1.16-.67v-8.71l-9.19-.22Z"/>
          </g>
        </g>
        <g>
          <path class="cls-44" d="M376.36,109.11l-57.67-36.44c-.8-.5-1.72-.43-2.41.01l-2.64,1.56,1.57.51v26.21c0,2.33,1.2,4.5,3.17,5.74l57.4,36.27-.11,1.85,2.8-1.69c.62-.39,1.06-1.07,1.06-1.91v-26.38c0-2.33-1.2-4.5-3.17-5.74Z"/>
          <path class="cls-145" d="M376.81,116.48v26.38c0,1.78-1.96,2.88-3.47,1.93l-33.92-21.48-23.75-14.96c-1.97-1.25-3.18-3.41-3.18-5.74v-26.39c0-1.78,1.96-2.87,3.47-1.91l23.45,14.77,34.22,21.67c1.97,1.24,3.18,3.41,3.18,5.74Z"/>
          <g>
            <path class="cls-136" d="M372.74,120.77l-29.48-18.48c-.53-.33-.96-1.03-.96-1.56h0c0-.53.43-.69.96-.36l29.48,18.48c.53.33.96,1.03.96,1.56h0c0,.53-.43.69-.96.36Z"/>
            <path class="cls-22" d="M354.51,113.59l-11.24-7.02c-.53-.33-.96-1.03-.96-1.56h0c0-.53.43-.69.96-.36l11.24,7.02c.53.33.96,1.03.96,1.56h0c0,.53-.43.69-.96.36Z"/>
            <path class="cls-80" d="M372.74,125.05l-14.68-9.24c-.53-.33-.96-1.03-.96-1.56h0c0-.53.43-.69.96-.36l14.68,9.24c.53.33.96,1.03.96,1.56h0c0,.53-.43.69-.96.36Z"/>
            <path class="cls-52" d="M372.74,129.26l-29.48-18.42c-.53-.33-.96-1.03-.96-1.56h0c0-.53.43-.69.96-.36l29.48,18.42c.53.33.96,1.03.96,1.56h0c0,.53-.43.69-.96.36Z"/>
            <path class="cls-4" d="M366.57,129.69l-23.31-14.56c-.53-.33-.96-1.03-.96-1.56h0c0-.53.43-.69.96-.36l23.31,14.56c.53.33.96,1.03.96,1.56h0c0,.53-.43.69-.96.36Z"/>
          </g>
          <path class="cls-137" d="M339.42,89.07v34.24l-23.75-14.96c-1.97-1.25-3.18-3.41-3.18-5.74v-26.39c0-1.78,1.96-2.87,3.47-1.91l23.45,14.77Z"/>
          <g>
            <polygon class="cls-114" points="337.8 93.44 323.24 106.29 322.16 106.93 314.86 93.88 315.94 93.24 321.07 94.39 323.6 102.28 332.32 89.52 333.4 88.87 337.8 93.44"/>
            <polygon class="cls-145" points="336.71 94.09 322.16 106.93 314.86 93.88 319.99 95.03 322.52 102.92 332.32 89.52 336.71 94.09"/>
          </g>
        </g>
        <g>
          <path class="cls-46" d="M140.17,301.33v5.81c0,6.21-8.19,11.29-18.48,11.59-.33.02-.66.02-.99.02-10.76,0-19.47-5.2-19.47-11.61v-5.81l2.8,1.08c3.41-3.37,9.59-5.63,16.67-5.63s13.26,2.26,16.67,5.63l.18-.07,2.62-1.01Z"/>
          <path class="cls-85" d="M140.17,301.33v5.81c0,6.21-8.19,11.29-18.48,11.59v-5.81l15.86-10.58,2.62-1.01Z"/>
          <path class="cls-108" d="M140.17,301.33c0,6.21-8.19,11.29-18.48,11.59-.33.02-.66.02-.99.02-10.76,0-19.47-5.2-19.47-11.61s8.71-11.61,19.47-11.61,18.82,4.82,19.43,10.9c.03.24.04.47.04.71Z"/>
          <path class="cls-6" d="M140.17,301.33c0,6.21-8.19,11.29-18.48,11.59l-.99-11.59,19.43-.71c.03.24.04.47.04.71Z"/>
        </g>
        <g>
          <path class="cls-93" d="M406.52,197.75c0,1.9-1.54,2.48-3.45,1.29-1.9-1.19-3.45-3.7-3.45-5.6s1.54-2.48,3.45-1.29c1.9,1.19,3.45,3.7,3.45,5.6Z"/>
          <path class="cls-83" d="M340.16,173.15c0,1.9-1.54,2.48-3.45,1.29s-3.45-3.7-3.45-5.6,1.54-2.48,3.45-1.29c1.9,1.19,3.45,3.7,3.45,5.6Z"/>
          <path class="cls-142" d="M409.77,285.68c0,2.72-2.2,3.54-4.92,1.85-2.72-1.7-4.92-5.28-4.92-7.99s2.2-3.54,4.92-1.85c2.72,1.7,4.92,5.28,4.92,7.99Z"/>
          <path class="cls-24" d="M57.75,145.34c0,2.22-1.8,2.9-4.03,1.51-2.22-1.39-4.03-4.32-4.03-6.54s1.8-2.9,4.03-1.51c2.22,1.39,4.03,4.32,4.03,6.54Z"/>
          <path class="cls-97" d="M303.22,47.03c0,2.22-1.8,2.9-4.02,1.51-2.22-1.39-4.02-4.32-4.02-6.54s1.8-2.9,4.02-1.51c2.22,1.39,4.02,4.32,4.02,6.54Z"/>
          <path class="cls-1" d="M8.05,167.83c0,2.22-1.8,2.9-4.03,1.51-2.22-1.39-4.03-4.32-4.03-6.54s1.8-2.9,4.03-1.51c2.22,1.39,4.03,4.32,4.03,6.54Z"/>
          <path class="cls-14" d="M239.97,77.32c0,2.22-1.8,2.9-4.02,1.51-2.22-1.39-4.03-4.32-4.03-6.54s1.8-2.9,4.03-1.51c2.22,1.39,4.02,4.32,4.02,6.54Z"/>
          <path class="cls-74" d="M340.77,307.02c0,1.72-1.39,2.24-3.11,1.17-1.72-1.07-3.11-3.34-3.11-5.06s1.39-2.24,3.11-1.17c1.72,1.07,3.11,3.34,3.11,5.06Z"/>
          <path class="cls-18" d="M244.77,33.44c0,1.23-1,1.61-2.24.84-1.23-.77-2.24-2.4-2.24-3.63s1-1.61,2.24-.84c1.23.77,2.24,2.4,2.24,3.63Z"/>
        </g>
      </g>
    </g>
  </g>
</svg>